<svg xmlns="http://www.w3.org/2000/svg" id="Layer_1" version="1" viewBox="0 0 186 186">
  <path d="M50.2 146.6c-1.9 0-3.7-.3-5.4-1-1.6-.6-3.2-1.6-4.4-2.8-1.3-1.2-2.3-2.7-3-4.4-1.4-3.7-1.4-7.7 0-11.4.7-1.6 1.7-3.1 3-4.4 1.3-1.2 2.8-2.2 4.4-2.8 3.8-1.5 8-1.4 11.8.3 1.8.9 3.3 2.2 4.5 3.8l-1.2.9c-1-1.4-2.4-2.6-3.9-3.4-1.8-.8-3.7-1.3-5.6-1.2-1.7 0-3.3.3-4.9.9-3 1.2-5.3 3.6-6.4 6.5-1.2 3.2-1.2 6.7 0 9.9 1.2 3 3.5 5.3 6.4 6.6 1.6.6 3.2 1 4.9.9 2 0 3.9-.4 5.7-1.3 1.7-.8 3.1-2.1 4.2-3.6l1.2.9c-1.2 1.7-2.8 3.1-4.7 4C54.6 146.1 52.4 146.6 50.2 146.6zM73.3 146.6c-2.1 0-3.7-.6-5-1.9-1.2-1.3-1.9-3.1-1.9-5.6v-9.2h1.6v9.1c0 2 .4 3.5 1.3 4.6.8 1.1 2.2 1.6 4 1.6 1.8 0 3.2-.5 4-1.6.8-1.1 1.3-2.6 1.3-4.6v-9.1h1.6v9.2c0 2.4-.6 4.3-1.9 5.6C77.1 146 75.4 146.6 73.3 146.6zM87 117.4h1.6v28.9H87V117.4zM99.9 146.6c-1 0-2-.4-2.7-1.1-.7-.7-1.1-1.9-1.1-3.6v-10.7h-2.6v-1.3h2.6v-8.5h1.6v8.5h4.7v1.3h-4.7v10.7c0 1.2.2 2 .6 2.5.4.5 1 .8 1.6.7.6 0 1.1-.1 1.6-.4.4-.2.7-.5 1-.8l1 1c-.4.5-.9.8-1.4 1.2C101.5 146.5 100.7 146.6 99.9 146.6zM108.9 124.2c-.3 0-.7-.1-.9-.4-.3-.2-.4-.6-.4-1 0-.4.1-.7.4-.9.5-.5 1.3-.5 1.8 0 .3.2.4.6.4.9 0 .4-.1.7-.4 1C109.5 124.1 109.2 124.2 108.9 124.2zM108.1 129.9h1.6v16.3h-1.6V129.9zM114.3 129.9h1.7l5.4 12.3c.1.2.2.4.3.7.1.2.2.4.2.7.1.3.2.5.2.7.1-.2.1-.5.2-.7.1-.2.1-.4.2-.7.1-.2.2-.5.3-.7l5.3-12.3h1.6l-7.4 16.7h-.5L114.3 129.9zM140.7 146.6c-1.1 0-2.2-.2-3.2-.7-1-.4-1.8-1-2.5-1.8-.7-.8-1.3-1.7-1.7-2.7-.4-1.1-.6-2.2-.6-3.4 0-1.1.2-2.3.6-3.3.4-1 1-1.9 1.7-2.7.7-.8 1.6-1.4 2.5-1.8 1-.4 2.1-.7 3.2-.7 1.5-.1 3 .4 4.3 1.2 1.2.8 2.1 1.9 2.7 3.2l0-4h1.6v16.3h-1.6l0-4c-.6 1.3-1.6 2.3-2.7 3.1C143.7 146.2 142.2 146.6 140.7 146.6zM140.9 145.2c.9 0 1.9-.2 2.8-.5.8-.3 1.5-.8 2.1-1.5.6-.6 1.1-1.4 1.4-2.2.3-.9.5-1.8.5-2.8 0-1-.2-1.9-.5-2.8-1-2.6-3.5-4.4-6.3-4.3-.9 0-1.9.2-2.7.5-.8.3-1.5.8-2.1 1.5-.6.7-1 1.4-1.3 2.2-.6 1.8-.6 3.8 0 5.6.3.8.7 1.6 1.3 2.3.6.6 1.3 1.2 2.1 1.5C139 145 140 145.2 140.9 145.2L140.9 145.2z" class="st0"/>
  <linearGradient id="_x3C_Group_x3E__1_" x1="92" x2="92" y1="100" y2="30" gradientUnits="userSpaceOnUse">
    <stop offset="0" stop-color="#637d37"/>
    <stop offset="1" stop-color="#dece25"/>
  </linearGradient>
  <path id="_x3C_Group_x3E_" fill="url(#_x3C_Group_x3E__1_)" d="M99.5,98c-2.1-2.2-9.5-12.6-3-14.1C103.9,83.2,99.5,98,99.5,98z M119.5,79	c-2.9-5.1-11.5,4.1-17.5,13.6C102,92.6,124.2,87.2,119.5,79z M104.3,72.8c-4,1.1-2.5,16.4-2.5,16.4	C111.3,78.8,109.7,71.2,104.3,72.8z M123.6,65.7c-4.5-2.6-12.2,9.9-12.3,12.7C111.3,78.4,129.1,69.2,123.6,65.7z M110.2,63	c-6.5-0.3,0.1,12.1,0.2,15.2C110.3,78.2,115.6,63.3,110.2,63z M129.1,57.1c-3.8-7.3-12.6,8.1-14.4,11.4	C117.7,64.8,131.2,61.2,129.1,57.1z M114.8,66.4c1.1-2.2,1.7-13.5-3.1-11.3C106.8,58.7,114.6,62.4,114.8,66.4z M132.7,41.6	c-5.4-3.2-13.6,13.7-13.6,15.5C120,56.3,140,45.9,132.7,41.6z M117.5,60C117.5,60,117.5,60,117.5,60C117.5,60,117.5,60,117.5,60	L117.5,60z M117.5,60c4.5-10.5,0-20.5-4.2-17.3C108.1,46.6,118.2,51.9,117.5,60z M72.9,59.6c-0.3-3.9-3.2-8.8-5.4-11.4	c-1.7-2.1-4.8-2-5.9-0.4C58.2,52.8,71.6,57,72.9,59.6z M79.9,85.9c2.4-2.9,4.8-5.9,5.8-9.6c1-3.2,1.3-11.8-4.4-10.8	C74.3,66.4,80.7,80.2,79.9,85.9z M65.9,67.3c0,0,2.3,1.1,3.1,6.4c0.2,1.3,7.4,3,9.2,7.8C78.2,76.4,71.6,62.4,65.9,67.3z M77,70.9	c0-4.3,10-18.4,2-19.3C72.2,51.3,75.8,68,77,70.9z M76.3,72.7c-1.9-14.3-14.8-21.3-16-15C58.8,65.3,72.2,61.5,76.3,72.7z M73.6,42.5	c-6.6-0.8-0.2,13.2,0,15.7C73.6,58.2,79.8,43.5,73.6,42.5z M62.3,29c-10.2,3.4,5.9,16.8,7.4,19.6C69.7,48.6,69.9,26.5,62.3,29z M67.8,47.8c-1.6-2.6-15.3-14.9-17.5-8.9C47.7,46.3,64,43.6,67.8,47.8z M72.2,98.7c-2.3,6.6,11.2,3.2,14.7,4.3	C83.8,100.4,74.1,93.3,72.2,98.7z M83.9,85c-5-0.6-2.1,8.7-1.2,11C83.8,93.9,88.5,85.6,83.9,85z M84.6,100.1	c0,0-13.7-21.1-17.4-11.7C65.2,93.4,78.9,94.1,84.6,100.1z M88.5,91.4c-6.3-1.7-1.8,9.5-1.7,10.9C86.8,102.3,93,92.6,88.5,91.4z M71.1,84c-2.5-4.9-3.1-19.6-8.3-15.6C59,72,71.1,84,71.1,84z M57.8,80c-3.8,4.7,3.4,4.8,5.8,4.8c3.3-0.4,5.5,0.2,8.4,1	C71.9,85.7,61.3,75.9,57.8,80z M52.1,66.6c-3.3,5.3,8.8,9,14,13.8C63.3,76,55.7,60.8,52.1,66.6z M60.4,77.5	c-2.6-2.9-13.5-4.8-12.5,0.4C50.2,83.6,56.4,76.4,60.4,77.5z M35.7,72.7c1.8,5.3,16.7,0.7,16.7,0.7C39.7,66.4,33.9,67.2,35.7,72.7z M52.4,72.7c-1.3-3.3-6.2-23.2-11.6-17.1C36.3,60.5,48.6,70.7,52.4,72.7z M97.7,101.7c0,0,17.4,6.4,15-1.4	C111.4,94.4,100.3,99.4,97.7,101.7z M101.4,97.1c0,0,17.8-0.7,17.5-5.2C118.3,83.5,101.4,97.1,101.4,97.1z M129.4,77.5	c-3-0.6-5.7,2.8-8.2,4c0,0,0,0.5-0.3,1.5c-0.1,0.4-0.8,1.6-0.8,1.6c2.6-1.7,12.1-0.6,11.5-4.8C131.4,78.6,130.5,77.7,129.4,77.5z M130.4,63.3c-3.7-0.9-5.7,10.7-9.8,14.8C120.6,78.1,139.7,65.5,130.4,63.3z M126.8,76.3c3.5-1.2,11.7,6.5,12.4,0.4	C139.8,71.1,128.2,74.2,126.8,76.3z M146.1,52c-6.1-4.2-8.5,9-14.2,18.6C135.9,68.5,149.8,54.6,146.1,52z M148.9,67.8	c-0.7-8.9-17.9,5.2-17.9,5.2C135.1,71.4,149.3,73.7,148.9,67.8z M106.5,46.7c0.9-0.8,6.2-12.1,0.6-10.8	C103.4,36.8,106.8,44.2,106.5,46.7z M103,50.7c1.4-2.4-0.7-10.7-3.6-7.8C97.2,45.3,103,50.7,103,50.7z M111.1,51	c0-5.1-6.9,1.3-8.7,4.4C104.1,55.6,111.1,53.4,111.1,51z M98.4,59L98.4,59c2.7-4,1.4-8.6-1.9-7C94.2,53.2,95.4,56,98.4,59z M105.9,58.1c-0.1-0.3-0.2-0.5-0.4-0.7c-2-1.7-6.6,4.1-7.7,5.6C99.8,62.1,106.9,62,105.9,58.1z M91.7,93c-4.7,2.7,6,11.8,6,11.8	C96.1,102.5,97.5,89.7,91.7,93z M86.1,80.1c-2.8,2,4.3,7.3,4.4,10.6C90.5,90.7,91.1,76.6,86.1,80.1z M100.3,76.3	c-2.5-3.1-7.8,6.7-9.1,11l0,0C94.4,80.7,102.8,79.4,100.3,76.3z M101.7,71c0-3.3-5.3-2.5-6.9,0.4c-1.8,3-3,12.2-3,12.2	C95.6,72,101.6,74.4,101.7,71z M88.2,67.3c-4.2,2.6,2.7,9.8,3.1,13C92.1,77.7,93.8,63.7,88.2,67.3z M93.5,70.3c0,0,2.2-8.7,1.2-10.4	c-0.9-1.7-3.1-2-3.9,0C89.5,63.3,94,66.7,93.5,70.3z M80.4,91.8c0,0-4.6-18.3-9.3-12.1C68.3,83.4,78.9,88.4,80.4,91.8z M94,70.5	c1.2-2.2,8.4-3.5,7.4-5.7C99.5,60.3,94,68.1,94,70.5z"/>
  <linearGradient id="SVGID_1_" x1="-1417" x2="-1290" y1="1111" y2="1111" gradientTransform="matrix(0 1 1 0 -939 1446)" gradientUnits="userSpaceOnUse">
    <stop offset="0" stop-color="#637d37"/>
    <stop offset="1" stop-color="#dece25"/>
  </linearGradient>
  <path fill="url(#SVGID_1_)" d="M160.6,155.6l-0.5-0.4c32.9-35.3,33-90.1,0.1-125.6l0.5-0.4C193.8,64.8,193.8,120,160.6,155.6z"/>
  <linearGradient id="SVGID_2_" x1="-905" x2="-779" y1="-1207" y2="-1207" gradientTransform="matrix(0 -1 -1 0 -1194 -749)" gradientUnits="userSpaceOnUse">
    <stop offset="0" stop-color="#637d37"/>
    <stop offset="1" stop-color="#dece25"/>
  </linearGradient>
  <path fill="url(#SVGID_2_)" d="M24.8,155.6C-8.3,119.9-8.3,64.7,24.9,29.1l0.5,0.4c-32.9,35.3-33,90.1-0.1,125.6L24.8,155.6z"/>
</svg>
