<svg xmlns="http://www.w3.org/2000/svg" id="Layer_1" version="1" viewBox="0 0 676 676">
  <path d="M190.2 525.9c-6.4 0-12.8-1.2-18.8-3.5-5.7-2.3-10.9-5.6-15.4-9.9-4.4-4.3-7.9-9.5-10.3-15.2-5-12.7-5-26.8 0-39.5 2.4-5.7 5.9-10.9 10.3-15.2 4.4-4.3 9.6-7.6 15.4-9.9 13.2-5.1 27.9-4.7 40.8 1 6.3 3 11.6 7.6 15.5 13.3l-4.3 3.2c-3.5-5-8.2-9-13.6-11.7-6.1-2.9-12.8-4.4-19.6-4.2-5.8-.1-11.6 1-17 3.3-10.2 4.2-18.3 12.4-22.4 22.7-4.3 11.1-4.3 23.4 0 34.5 4 10.3 12.1 18.5 22.4 22.7 5.4 2.2 11.2 3.3 17 3.3 6.8.1 13.6-1.4 19.8-4.4 5.8-2.9 10.8-7.1 14.5-12.4l4.3 3.1c-4.1 6-9.7 10.9-16.3 14C205.6 524.4 197.9 526 190.2 525.9zM270.5 525.9c-7.2 0-13-2.2-17.3-6.7-4.3-4.4-6.5-10.9-6.5-19.3v-31.8h5.4v31.5c0 7 1.5 12.3 4.4 15.9 2.9 3.7 7.6 5.5 14 5.5 6.4 0 11.1-1.8 14-5.5 2.9-3.7 4.4-9 4.4-15.9v-31.5h5.4V500c0 8.4-2.2 14.9-6.5 19.3C283.6 523.7 277.8 525.9 270.5 525.9zM317.9 424.5h5.4v100.3h-5.4V424.5zM362.8 525.9c-3.5.1-6.8-1.3-9.2-3.8-2.6-2.5-3.8-6.6-3.8-12.4v-37.1h-8.9v-4.6h8.9v-29.6h5.4v29.6h16.4v4.6h-16.4v37c0 4.2.7 7.1 2 8.8 1.3 1.7 3.4 2.7 5.6 2.6 2 .1 3.9-.3 5.6-1.2 1.2-.8 2.4-1.8 3.4-2.9l3.5 3.3c-1.4 1.6-3 2.9-4.9 4C368 525.5 365.4 526.1 362.8 525.9zM393.7 448.3c-1.2 0-2.3-.4-3.2-1.2-.9-.9-1.4-2.1-1.4-3.3 0-1.2.5-2.4 1.4-3.3 1.8-1.8 4.6-1.8 6.4 0 .9.8 1.4 2 1.4 3.3.1 1.3-.5 2.5-1.4 3.3C396.1 447.8 394.9 448.3 393.7 448.3zM391.1 468.2h5.4v56.7h-5.4V468.2zM412.6 468.2h5.8l18.8 42.5c.3.7.6 1.5.9 2.4.3.8.6 1.6.8 2.4.3.9.6 1.8.8 2.5.2-.7.4-1.6.7-2.5.2-.7.4-1.5.7-2.4.3-.8.6-1.6 1-2.4l18.3-42.5h5.6L440.4 526h-1.7L412.6 468.2zM504 525.9c-3.8 0-7.5-.8-11-2.3-3.3-1.5-6.3-3.6-8.8-6.2-2.5-2.7-4.5-5.9-5.8-9.4-1.4-3.7-2.1-7.7-2.1-11.7 0-4 .7-7.9 2.1-11.6 1.3-3.5 3.3-6.6 5.8-9.3 2.5-2.6 5.5-4.8 8.8-6.3 3.5-1.5 7.2-2.3 11-2.3 5.3-.2 10.5 1.3 14.9 4.3 4 2.8 7.2 6.6 9.3 11l-.1-14h5.4v56.7h-5.4l.1-14c-2.2 4.4-5.4 8.1-9.5 10.8C514.4 524.6 509.3 526.1 504 525.9zM504.9 521.1c3.3 0 6.6-.6 9.6-1.9 2.8-1.2 5.3-2.9 7.4-5.1 2.1-2.2 3.7-4.8 4.8-7.7 1.1-3.1 1.7-6.4 1.7-9.7 0-3.3-.5-6.7-1.7-9.8-3.3-9.2-12.1-15.2-21.8-15.1-3.3 0-6.5.6-9.5 1.9-2.7 1.2-5.2 2.9-7.2 5.1-2 2.3-3.6 4.9-4.6 7.8-2.1 6.4-2.1 13.2 0 19.6 1 2.9 2.6 5.6 4.6 7.8 2 2.2 4.5 4 7.2 5.2C498.4 520.5 501.6 521.1 504.9 521.1L504.9 521.1z" class="st0"/>
  <linearGradient id="_x3C_Group_x3E__1_" x1="336" x2="336" y1="363" y2="121" gradientUnits="userSpaceOnUse">
    <stop offset="0" stop-color="#637d37"/>
    <stop offset="1" stop-color="#dece25"/>
  </linearGradient>
  <path id="_x3C_Group_x3E_" fill="url(#_x3C_Group_x3E__1_)" d="M361.3,357.5c-7.3-7.5-32.9-43.8-10.3-49C376.4,306,361.3,357.5,361.3,357.5z M430.7,291.5c-10.2-17.8-39.8,14.2-60.8,47.3C369.9,338.8,447,320,430.7,291.5z M377.8,270c-13.8,4-8.6,56.8-8.6,56.8	C402.1,290.7,396.7,264.5,377.8,270z M444.8,245.3c-15.6-8.9-42.4,34.3-42.8,44.1C402.1,289.4,464,257.5,444.8,245.3z M398.2,236.2	c-22.7-1.2,0.3,41.9,0.5,52.7C398.7,288.8,417.1,237.1,398.2,236.2z M463.9,215.5c-13.2-25.4-43.8,28.1-50.1,39.7	C424.5,242.4,471.2,229.6,463.9,215.5z M414.4,247.9c3.8-7.5,6-46.8-10.6-39.2C386.5,221,413.8,234.1,414.4,247.9z M476.4,161.6	c-18.8-11.3-47.2,47.5-47.3,53.8C432.2,212.8,501.6,176.7,476.4,161.6z M423.6,225.4C423.6,225.4,423.6,225.4,423.6,225.4	C423.6,225.4,423.6,225.4,423.6,225.4L423.6,225.4z M423.6,225.4c15.5-36.4-0.1-71.1-14.5-60C391.1,179.2,426.1,197.6,423.6,225.4z M268.8,224.3c-0.9-13.6-11.1-30.5-18.7-39.5c-6.1-7.2-16.6-7.1-20.5-1.4C217.9,200.6,264.4,215.1,268.8,224.3z M293.2,315.3	c8.3-10.1,16.8-20.6,20.2-33.4c3.6-11.2,4.5-41-15.4-37.6C274,247.9,296,295.6,293.2,315.3z M244.8,250.9c0,0,7.9,3.8,10.7,22.2	c0.7,4.6,25.5,10.4,31.8,27C287.2,282.3,264.5,233.8,244.8,250.9z M283.1,263.5c0.1-15,34.7-64,6.8-66.8	C266.4,195.6,279.2,253.4,283.1,263.5z M280.6,269.8c-6.5-49.7-51.2-74-55.4-52.1C220.2,244.1,266.7,230.8,280.6,269.8z M271.5,165.1c-22.8-2.9-0.8,45.8,0,54.4C271.5,219.5,292.9,168.2,271.5,165.1z M232.3,118.1C197,130,252.8,176.3,258,186	C258,186,258.5,109.3,232.3,118.1z M251.3,183.2c-5.5-8.9-53.2-51.8-60.6-30.8C181.5,178.2,238.2,168.7,251.3,183.2z M266.4,359.9	c-8.1,23,38.8,11.3,51.1,15.1C306.7,365.8,273,341.2,266.4,359.9z M307.3,312.2c-17.3-2-7.1,30.3-4.1,38.1	C306.6,343.2,323.2,314.5,307.3,312.2z M309.4,364.7c0,0-47.7-73.1-60.5-40.4C242.2,341.5,289.9,343.9,309.4,364.7z M323,334.4	c-21.7-5.9-6.3,33-5.9,37.9C317.1,372.3,338.7,338.7,323,334.4z M262.7,308.7c-8.5-17.1-10.8-68.1-28.8-54.1	C220.6,267.4,262.7,308.7,262.7,308.7z M216.6,295c-13.3,16.3,11.7,16.8,20.1,16.5c11.3-1.3,19,0.8,29,3.4	C265.7,314.9,228.9,280.6,216.6,295z M196.9,248.5c-11.3,18.3,30.6,31.2,48.4,48C235.7,281.1,209.2,228.4,196.9,248.5z M225.8,286.3	c-9.1-10.2-46.7-16.7-43.4,1.3C190.2,307.4,211.7,282.3,225.8,286.3z M140,269.8c6.2,18.5,57.8,2.4,57.8,2.4	C153.8,247.7,133.5,250.6,140,269.8z M197.8,269.8c-4.4-11.4-21.4-80.3-40.4-59.3C142.1,227.3,184.8,262.6,197.8,269.8z M355,370.1	c0,0,60.4,22.3,52.2-4.9C402.5,345,363.9,362.3,355,370.1z M367.7,354.4c0,0,61.8-2.4,60.8-18.1	C426.6,306.9,367.7,354.4,367.7,354.4z M464.9,286.1c-10.3-2-19.8,9.6-28.3,14c0,0,0,1.7-1.1,5c-0.5,1.4-2.9,5.6-2.9,5.6	c8.9-6,42-2.1,39.8-16.7C471.9,290.1,468.8,286.9,464.9,286.1z M468.4,237.2c-12.9-3-19.6,37-33.8,51.2	C434.6,288.4,500.7,244.8,468.4,237.2z M455.9,282c12.3-4,40.7,22.5,43,1.4C501.1,264,460.9,274.7,455.9,282z M522.7,197.8	c-21.3-14.6-29.4,31.3-49.1,64.4C487.6,255.2,535.7,206.8,522.7,197.8z M532.5,252.5c-2.5-30.9-62.1,17.9-62.1,17.9	C484.8,265.1,534.1,272.9,532.5,252.5z M385.4,179.3c3.2-2.8,21.3-42,2.2-37.5C374.6,145,386.6,170.9,385.4,179.3z M373.2,193.5	c4.8-8.2-2.6-37.1-12.4-26.9C353.2,174.5,373.2,193.5,373.2,193.5z M401.5,194.2c0.1-17.8-24.1,4.5-30.3,15.1	C377.3,210.2,401.4,202.8,401.5,194.2z M357.6,222.1L357.6,222.1c9.2-14,5-30-6.5-24.2C342.8,202,346.9,211.8,357.6,222.1z M383.5,219.1c-0.2-0.9-0.7-1.8-1.5-2.5c-7-6-22.8,14.1-26.8,19.5C362.4,232.8,387.1,232.6,383.5,219.1z M334.1,339.9	C317.8,349.2,355,381,355,381C349.4,373.1,354.2,328.6,334.1,339.9z M314.7,295.2c-9.8,6.8,15.1,25.3,15.4,36.8	C330.1,332,332,283.1,314.7,295.2z M364.2,282c-8.5-10.8-27.1,23.2-31.5,38.3l0,0C343.4,297.6,372.8,293,364.2,282z M368.9,263.9	c0.1-11.4-18.3-8.7-23.9,1.3c-6.2,10.5-10.4,42.3-10.4,42.3C347.8,267.1,368.6,275.6,368.9,263.9z M321.9,250.8	c-14.5,9,9.3,34.1,10.9,45.1C335.6,287.1,341.6,238.5,321.9,250.8z M340.3,261.2c0,0,7.6-30.2,4.3-36.2c-3.2-6-10.8-6.9-13.5,0.1	C326.7,237,342.2,248.8,340.3,261.2z M294.9,335.8c0,0-16.1-63.4-32.1-41.9C253.1,306.9,289.7,324.2,294.9,335.8z M342.2,262.1	c4.1-7.5,29-12.1,25.7-19.8C361.4,226.7,342.2,253.7,342.2,262.1z"/>
  <linearGradient id="SVGID_1_" x1="-1327" x2="-889" y1="1554" y2="1554" gradientTransform="matrix(0 1 1 0 -939 1446)" gradientUnits="userSpaceOnUse">
    <stop offset="0" stop-color="#637d37"/>
    <stop offset="1" stop-color="#dece25"/>
  </linearGradient>
  <path fill="url(#SVGID_1_)" d="M573.1,557l-1.6-1.5c114.3-122.6,114.5-312.7,0.4-435.5l1.6-1.5C688.4,242.2,688.2,433.6,573.1,557z"/>
  <linearGradient id="SVGID_2_" x1="-816" x2="-378" y1="-764" y2="-764" gradientTransform="matrix(0 -1 -1 0 -704 -259)" gradientUnits="userSpaceOnUse">
    <stop offset="0" stop-color="#637d37"/>
    <stop offset="1" stop-color="#dece25"/>
  </linearGradient>
  <path fill="url(#SVGID_2_)" d="M102,557c-114.8-123.7-114.7-315,0.4-438.5l1.6,1.5c-114.3,122.6-114.5,312.7-0.4,435.5L102,557z"/>
</svg>
