<svg xmlns="http://www.w3.org/2000/svg" xmlns:xlink="http://www.w3.org/1999/xlink" width="250.07" height="250.07" viewBox="0 0 250.07 250.07"><defs><style>.cls-1,.cls-3,.cls-4{fill:none;}.cls-2{fill:#6d6e71;}.cls-3{stroke:#6d6e71;stroke-linecap:round;stroke-linejoin:round;stroke-width:0;}.cls-4{stroke-miterlimit:10;stroke:url(#linear-gradient);}</style><linearGradient id="linear-gradient" y1="645.03" x2="250.07" y2="645.03" gradientTransform="matrix(1, 0, 0, -1, 0, 770.07)" gradientUnits="userSpaceOnUse"><stop offset="0" stop-color="#637d37"/><stop offset="1" stop-color="#dece25"/></linearGradient></defs><title>vegetables</title><g id="Layer_2" data-name="Layer 2"><g id="Layer_2-2" data-name="Layer 2"><path class="cls-1" d="M51.16,203.31c.26-2.73.78-5.41,1.19-8.12,1-6.46-3.85-8.26-8-11.4-12.75-9.53-17-31.51-4.24-42.9,3.6-3.2,7.35-3.78,11.94-4.39,1.33-.19,2.67-.5,4-.78-2.86-16.09-5.39-32.38-9.64-48.07S36.86,56.36,34.06,40.21A125.44,125.44,0,0,0,23.67,52.9c.24,1.14.48,2.28.7,3.42,0,0,0,0,0,.08.15,1.51,2.81,3.12,3.73,4.28a11.22,11.22,0,0,1,1.5,2.57c1.4,3.4.17,7.14,1.61,10.52,0,0,0,0,0,0s0,0,0,0a.1.1,0,0,1,0,.09s0,0,0,0a10.41,10.41,0,0,0-1.62,4.89,25.93,25.93,0,0,0,.58,2.89c.3,2.37-.7,4.67-.47,7.06h0c1,3.4-.15,7.18.18,10.68s-.48,6.73-1.06,10c0,0,0,0,0,0-.11,3,.79,5.56.39,8.55-.47,3.53,0,7.26-.07,10.89.59,2.79-1.25,5.33-.39,8.13,0,0,0,0,0,0h0c.16,7.7-1.46,15.32-.67,23h0s0,0,0,0a13.58,13.58,0,0,1-.23,3.82c-.64,3.26-.37,5.87-.19,9.13,0,0,0,0,0,0-.17,6.36-.14,12.87-1.55,19.11a.14.14,0,0,1-.08.11c-.33,2.32-.72,4.63-1.19,6.92a125.62,125.62,0,0,0,25.74,26v-.07A139.23,139.23,0,0,1,51.16,203.31Z"/><path class="cls-1" d="M25.84,191.76a80.7,80.7,0,0,0,1.38-15c-1.28-1-3,1-4.26,0h0c1.29,1,3-1,4.26,0,0-1.22.05-2.44.09-3.65l0,0c0-.75-.13-1.5-.22-2.26l-4,.35v0l4-.35a19.15,19.15,0,0,1-.16-4.59c.32-2.41,1.1-4.5.69-7a.12.12,0,0,1,0-.1c-.57-7.36.9-14.6.75-22-.84-2.78,1-5.31.4-8.1,0,0,0,0,0,0l0,0a31,31,0,0,0-.19-6.17,8.63,8.63,0,0,1-.27-2.26c.14-2.67.93-4.77.48-7.53a17.64,17.64,0,0,1-.33-3.55h0s0,0,0,0h0c.12-.59.2-1.19.29-1.79-1.53-.21-2.66.9-4.11,1.14a4.09,4.09,0,0,1-2.31-.36h0c1.74.76,2.93.13,4.54-.5a3.31,3.31,0,0,1,1.86-.28h0a45.75,45.75,0,0,0,.53-7.48c-1-.94-2.29-.52-3.52-.34A18.5,18.5,0,0,1,23,99.64a4.62,4.62,0,0,0-.65.06h0a3.57,3.57,0,0,1,.65-.06,5.55,5.55,0,0,1,1.22.06,14.28,14.28,0,0,0,3.12-.29,2.86,2.86,0,0,1,2,.69c0-.68,0-1.36-.05-2-.21-3.1,1-6.14.11-9.19h0s0,0,0,0A15,15,0,0,1,29.59,85a17.28,17.28,0,0,0-.28-5.32c-.27-2.14.59-4,1.56-5.84-.94-2.29-.73-4.75-.92-7.15-3.37.18-6.74.53-10.08,1v0c3.34-.51,6.71-.86,10.08-1a10.3,10.3,0,0,0-1.07-4.16c-.09-.16-.19-.31-.29-.46l-3.67-.87,3.67.87c-1.06-1.61-2.66-2.45-3.79-3.94A2.48,2.48,0,0,1,24,56.51a11.41,11.41,0,0,0-2.43-.62q-3.09,4.62-5.78,9.52L22,65.12v0l-6.18.29c-1.35,2.46-2.62,5-3.8,7.54l.1,0,.13,0a15.41,15.41,0,0,1,2.71.16h.24a18.13,18.13,0,0,0,3.33-.79,13.83,13.83,0,0,1,2.8-.25c-2,0-3.78.85-5.74,1H15a17.75,17.75,0,0,0-2.71-.16l-.13,0L12,73c-.23.49-.45,1-.67,1.46C11.28,77.51,12.9,80.09,14,83c.74,1.91.19,3.76.73,5.7,0,0,0,0,0,0,1.19,2,.74,4.11.94,6.33a9,9,0,0,0,.14.93,48.66,48.66,0,0,1,7.89-1,48.68,48.68,0,0,0-7.89,1c.29,1.48.87,2.86,1.06,4.41a19.56,19.56,0,0,1,0,3.67c2.91-1,6.06.14,9-.85v0c-2.91,1-6.06-.11-9,.85-.05.44-.11.89-.18,1.33h0l0,0c.09,2.13.56,4.21.73,6.33a2.17,2.17,0,0,1,1.53-.12,9.51,9.51,0,0,0,1.88.28c.68-.11,1.36-.19,2.05-.24a7.38,7.38,0,0,1,1.88,0c-.63,0-1.26,0-1.88,0a15.11,15.11,0,0,1-2.31.25,8.93,8.93,0,0,1-1.62-.29,2.31,2.31,0,0,0-1.53.13,14.79,14.79,0,0,1,.07,1.89,30,30,0,0,0,1,9.53s0,0,0,0a.24.24,0,0,1,0,.09,22.19,22.19,0,0,0-.21,5.38l.78-.11q3.17-.43,6.34-.7s3.16-.22,0,0q-3.16.27-6.33.7v-.05a5.86,5.86,0,0,1-.78.13c.29,4,1.37,7.88,1.83,11.94.08.73.13,1.46.16,2.2a18.22,18.22,0,0,0,4,.17c.52,0,1-.1,1.54-.18h0c-.51.08-1,.14-1.54.18a18.22,18.22,0,0,1-4-.17c.2,4.48-.4,9,.08,13.45a.13.13,0,0,1,.12.14c-.13,1.34-.19,2.67-.21,4a8.63,8.63,0,0,0,2.15.16,8.46,8.46,0,0,0,2.22-.42v0a8.46,8.46,0,0,1-2.22.42,8.63,8.63,0,0,1-2.15-.16c-.08,6.27.88,12.46.37,18.79a.16.16,0,0,1-.32,0c.59-7.52-.89-14.94-.19-22.45a.13.13,0,0,1-.07-.12c-.57-4.66-.19-9.26-.33-13.89h0a38.74,38.74,0,0,0-.6-6,70.14,70.14,0,0,1-1.17-8c-.32.05-.46.06,0,0a23.92,23.92,0,0,1,.23-5.45l0,0a25.43,25.43,0,0,1-1.12-8.58c.15-3.13-.58-6.14-.71-9.26h0s0,0,0,0c.42-3.42-.41-6.16-.93-9.44-.39-2.4.32-4.85-1-7.06h0a0,0,0,0,0,0,0c-.5-1.66,0-3.32-.45-5a40.16,40.16,0,0,0-1.93-4.47,11.25,11.25,0,0,1-1-4.29,124.87,124.87,0,0,0,9.77,118.36,78.07,78.07,0,0,0-.42-13.83h0c0-.2.33-.2.33,0A79.2,79.2,0,0,1,21.15,194c1.09,1.66,2.23,3.29,3.4,4.89.47-2.31.86-4.64,1.19-7A.15.15,0,0,1,25.84,191.76ZM24.55,71.63l0,0a3.16,3.16,0,0,1,2.4-.07,9,9,0,0,0,3.14-.27,8,8,0,0,1-2.61.34,5.15,5.15,0,0,1-.53-.07c-.3,0-.6-.07-.9-.13a1.94,1.94,0,0,0-1.52.22v0Zm-2.44,3.85c1.95-.25,3.77-.92,5.68-1.18a2.69,2.69,0,0,1,2.27.55l0,0h0c-1.39-1.16-3.18-.3-4.66.07a25.55,25.55,0,0,1-3.24.57ZM17.26,80.6c-.22,0-.43,0-.65,0a3.42,3.42,0,0,0-.45,0,3.9,3.9,0,0,0-1,.11l-.08,0a1.89,1.89,0,0,0-.45.17h0a2.1,2.1,0,0,0-.46.34h-.07v0a2.56,2.56,0,0,1,.53-.35h0a3.47,3.47,0,0,1,.45-.17s.05,0,.08,0a2.66,2.66,0,0,1,1-.11c.36,0,.73,0,1.1,0A20,20,0,0,0,22.49,80v0a23.82,23.82,0,0,1-3.74.66A9.68,9.68,0,0,1,17.26,80.6Zm3,5.16v0a3.12,3.12,0,0,1,1.4-.65,1.66,1.66,0,0,1,.22,0l.16,0a3.58,3.58,0,0,1,1.22,0c1.18.18,2.26.61,3.42.67a16.91,16.91,0,0,1,2.42-.27c.12,0,.25,0,.37,0l0,0-.33,0a3.69,3.69,0,0,0-1.28.2,4.43,4.43,0,0,1-1.14.07,3.66,3.66,0,0,1-.81,0c-1.27-.21-2.57-.79-3.83-.7l-.16,0a.83.83,0,0,0-.22,0,3.58,3.58,0,0,0-1.4.65Zm.05,6.2v0c2,.17,4,.35,6,.68A4.06,4.06,0,0,1,29.24,94l0,0h0c-1.07-1.46-3.27-1.47-4.86-1.66C23,92.21,21.67,92.08,20.32,92Zm3.38,13.48,4.51-.22v0l-4.51.22v0Zm.71,67.7.09,0a2.78,2.78,0,0,1,.38.12,3.21,3.21,0,0,1,.46.22h0a3.21,3.21,0,0,0-.46-.22,2.78,2.78,0,0,0-.38-.12l-.09,0a4,4,0,0,0-2.88.32h-.05v0A4.09,4.09,0,0,1,24.41,173.14Zm.92-5a26,26,0,0,0-4.32.06v0a27.1,27.1,0,0,1,4.32-.06Zm.48-50.59a2.69,2.69,0,0,1,1.56-.27,2,2,0,0,1,.65.25h0a1.84,1.84,0,0,0-.63-.25,2.86,2.86,0,0,0-1.56.27c-.93.39-1.86,1-2.86.71C23.94,118.56,24.87,118,25.81,117.58Zm-7.24,3.81,0,0v0a24.45,24.45,0,0,1,5.34.1v.05A24.82,24.82,0,0,0,18.57,121.39Zm5.7,3.44a1.68,1.68,0,0,1-.93-.43h0a1.79,1.79,0,0,0,.93.43c1.38.15,3-1.29,4.35-.34h0C27.27,123.55,25.68,125,24.27,124.83Zm2.28,6.64a3.79,3.79,0,0,1,1.88.15h0a3.75,3.75,0,0,0-1.84-.15,9.33,9.33,0,0,0-2.89,1.2A9.09,9.09,0,0,1,26.55,131.47Zm-7.06,4,0,0h0c1,.73,2.48-.35,3.42-.57a7.5,7.5,0,0,1,2.5-.09v0a8.16,8.16,0,0,0-4.08.64C20.68,135.71,20.09,135.92,19.49,135.46Zm3,2v0a22.51,22.51,0,0,0,5.23-1.3v0A22.11,22.11,0,0,1,22.5,137.45Zm.68,9.18,4.51-.31v.05l-4.51.31Zm-2.48,3.19,0,0h0c.21-.39.61-.44,1.05-.39a7.23,7.23,0,0,0,3.46,0v0a5.53,5.53,0,0,1-2,.28C22.57,149.67,21.09,149.05,20.7,149.82Zm5.82,2-5,1.32Zm-3.6,5.72v0l4.49-.67h0Zm1.13,5.6,3.28-.23V163l-3.28.23ZM21,164.92h0c1.34-.55,3,1.33,4.14.13v0c-1.15,1.2-2.81-.64-4.14-.13v0Zm4.57,15.15a38.34,38.34,0,0,1-4.53-.54v0a36.4,36.4,0,0,0,4.52.53Z"/><path class="cls-1" d="M58.76,194.29c4.6-7.53,15.53-8.45,22.62-12.54,10.61-6.1,11.85-22.28,8.41-32.89-2.08-6.46-7-9.94-13.49-11.13a134.69,134.69,0,0,0-14.57-2,21.77,21.77,0,0,0-5.22.39.22.22,0,0,1-.37.06c-1.38.24-2.75.52-4.13.71-3.49.49-6.54.72-9.6,2.7-4.49,2.91-7.42,7.89-8.75,13a30.26,30.26,0,0,0,8,28.43c5.24,5.19,12.49,6.39,11,14.94A134,134,0,0,0,51,225.49q1.82,1.35,3.69,2.64c0-.22,0-.43,0-.65C54.16,217.34,53.21,203.38,58.76,194.29Z"/><path class="cls-1" d="M214.61,38.21l-.08-.08c-.57.1-1.15.2-1.72.32Z"/><path class="cls-1" d="M212.32,38.51v0l.49-.09Z"/><path class="cls-1" d="M23.41,53.27c-.54.76-1.08,1.54-1.6,2.31a11.52,11.52,0,0,1,2.2.58Z"/><path class="cls-1" d="M248.45,105.41a124,124,0,0,0-15-42.39c1.61,9.95,5.9,19.25,9.86,28.57C245.23,96.11,247,100.73,248.45,105.41Z"/><path class="cls-1" d="M212.31,38.5c.73-.16,1.45-.29,2.18-.41-.78-.8-1.57-1.58-2.37-2.36,0,.62,0,1.25.07,1.9A8.66,8.66,0,0,0,212.31,38.5Z"/><path class="cls-1" d="M149.46,216.9c-3.41-11.47-6.28-23.31-10.72-34.43,0-.11,0-.18.14-.19h0c1.2-.34,2.29-1,3.5-1.37h0a.18.18,0,0,1,.17.1q5.18,14.14,9.44,28.54a177.2,177.2,0,0,0-6.38-28.33h0a.15.15,0,0,1-.11-.11v0a.15.15,0,0,1-.07,0h-.2c-.22,0-.21-.33,0-.33h.2s.05,0,.07,0c0-1.34.07-2.67.19-4l0,0c0-.06,0-.12.1-.12,1-.15,2.1-.15,3.13-.29a.16.16,0,0,1,.1,0h0l.05,0a.1.1,0,0,1,0,0c2.27,8.11,4.63,16.22,7,24.34-.21-3.51-.54-7-1-10.49-.32-2.52-1.34-5.32-1-7.85a1.07,1.07,0,0,1-.77-.4h0c-.13-.16.11-.39.24-.23a.83.83,0,0,0,.62.31.16.16,0,0,1,.18,0,.13.13,0,0,1,.07.15c-.53,2.94.81,6.54,1.18,9.53.43,3.45.71,6.89.89,10.38,3.85,13.46,7.57,27,10.57,40.59A124,124,0,0,0,178.9,238c-.06-1.21-.08-2.44-.05-3.71.07-3.31-.73-6.35-.94-9.62-.26-4.18.13-8.26-2.37-11.92h0c-.1-.14.14-.29.24-.14a14.19,14.19,0,0,1,2.28,7.77c.2,3.71.85,7.3,1.13,11a55.44,55.44,0,0,1-.16,6.57l2.31-1.14c-.14-2.17-.27-4.35-.38-6.52-.38-7-.53-13.3,2.27-19.79a.13.13,0,0,1-.05-.19c.1-.15.21-.29.32-.44h0v0a86.9,86.9,0,0,1,7.23-8.1c.42-.46.81-.92,1.19-1.38-1.59-.75-3.62-.41-5.32-.41l-4.9.08a.14.14,0,0,1-.14-.14.15.15,0,0,1,.14-.14l6.4-.1a8.34,8.34,0,0,1,4,.48h0s0,0,0,0A35.49,35.49,0,0,0,198,188.35c.06-.16.33-.09.27.08a1.09,1.09,0,0,0-.05.17c2.24-2.23,1.3-5.46.4-8.16v0c-.06-.17.21-.24.27-.08,1,2.89,1.91,6.4-.71,8.72a.11.11,0,0,1-.11,0c-1.25,3.81-2.63,7.45-5.17,10.63-2.87,3.62-6.45,6.53-9.14,10.31-3.51,7.7-2.76,15.51-2.28,23.72.06,1,.14,1.91.2,2.87a123.41,123.41,0,0,0,14.29-8.5c-1.27-5-2.4-10-3.28-15.13-.06-.29.4-.42.45-.12.87,5.05,2,10,3.23,15,1.24-.86,2.46-1.73,3.67-2.63-.31-1.13-.61-2.26-.92-3.4-.39-1.46-.78-2.92-1.16-4.39l-.69-2.65-3.63-2.3c-.22.2-.54-.12-.32-.33,1.74-1.65,3.25-.35,4.12,1.51,1.34,2.94,1.79,6.7,2.62,9.81l.39,1.43q3.71-2.79,7.18-5.86c-.47-3.46-.95-6.93-1.42-10.4h0c0-.3.47-.29.47,0,.45,3.35.91,6.7,1.36,10,1.4-1.24,2.77-2.5,4.11-3.8a18.47,18.47,0,0,0-1.45-6.83h0a.21.21,0,0,1,.07-.27H207a.24.24,0,0,1,0-.47H211a.23.23,0,0,1,0,.46s0,0,.06.05a19.58,19.58,0,0,1,1.51,6.61q3-3,5.88-6.16c.07-2.63.1-5.26,0-7.89h0a.21.21,0,0,1,.18-.2c0-.13,0-.26.21-.26a39.8,39.8,0,0,0,5.35,0c.3,0,.3.46,0,.46a40.3,40.3,0,0,1-5.27,0c.08,2.45.06,4.89,0,7.34q2.91-3.32,5.59-6.82c0-.19,0-.39-.05-.58s.46-.3.46,0v0a124.58,124.58,0,0,0,18.62-35.24c-6.35-5.38-11.29-13.37-10.26-21.53,1.15-9.1,8.28-15.31,16.74-17.3,0-.33,0-.67,0-1a126.78,126.78,0,0,0-1.18-17.21A215.07,215.07,0,0,0,241,87.24c-3.49-8.12-6.83-16.33-8.09-25a124.36,124.36,0,0,0-7.49-11.31l-.21,1.18h0c-.11,3,.79,5.56.39,8.54-.47,3.54,0,7.26-.07,10.89.59,2.79-1.25,5.33-.39,8.13,0,0,0,0,0,0h0c.15,7.71-1.46,15.33-.68,23h0a13.36,13.36,0,0,1-.22,3.84c-.64,3.26-.37,5.87-.19,9.14a0,0,0,0,0,0,0c-.18,6.36-.14,12.88-1.55,19.12a.12.12,0,0,1-.08.1,116.71,116.71,0,0,1-4.25,18.73c-1.08,3.68-1.92,7.73-3.68,11.15a43,43,0,0,0-2.8,5.6,34.66,34.66,0,0,1-1.83,4.47.17.17,0,0,1-.16.17.16.16,0,0,1-.21-.19,5.1,5.1,0,0,1-.62-4.58c.63-2.76,1.63-5.43,2.45-8.15a.11.11,0,0,1-.06-.16,78.41,78.41,0,0,0,5.55-39.7h0c0-.21.33-.21.33,0A78.39,78.39,0,0,1,212,161s0,.05,0,.08c-.91,3.28-4.61,10.17-2.37,13.42,1.39-2.78,2-5.65,3.58-8.28,2.24-3.63,3.26-7.93,4.45-12v0c.08-.23.15-.46.22-.69s0-.18.07-.26h0a117.63,117.63,0,0,0,4.19-18.73.16.16,0,0,1,.1-.13,79.35,79.35,0,0,0,1.37-15c-1.27-1-2.95,1-4.24,0h0c1.29,1,3-1,4.24,0,0-1.23.06-2.45.1-3.66a0,0,0,0,1,0,0c0-.74-.13-1.49-.22-2.25l-4,.35v0l4-.35a19.11,19.11,0,0,1-.15-4.59c.32-2.41,1.1-4.49.68-7,0,0,0,0,0-.08-.58-7.37.9-14.62.75-22-.84-2.77,1-5.3.4-8.09,0,0,0,0,0,0s0,0,0,0A31.8,31.8,0,0,0,225,65.4a9.09,9.09,0,0,1-.28-2.26c.14-2.67.94-4.77.49-7.53a17.67,17.67,0,0,1-.33-3.56h0l0,0h0c.1-.5.17-1,.25-1.49l-.26-.33c-1.38,0-2.45.93-3.8,1.14A4.08,4.08,0,0,1,218.8,51h0c1.73.75,2.93.13,4.54-.51a3.34,3.34,0,0,1,1.56-.29c-.57-.76-1.15-1.51-1.74-2.26l-3,.15v0l3-.15c-.51-.64-1-1.29-1.54-1.92-2.7.6-5.55-.22-8.21.66-.05.45-.11.9-.18,1.34,0,0,0,0,0,.06.1,2.11.56,4.17.74,6.28a2.11,2.11,0,0,1,1.57-.14,9.41,9.41,0,0,0,1.88.28c.68-.11,1.36-.19,2-.24a7.36,7.36,0,0,1,1.88-.05c-.63,0-1.26,0-1.88.05a15.24,15.24,0,0,1-2.31.25,8.93,8.93,0,0,1-1.62-.29,2.25,2.25,0,0,0-1.55.13h0a17.15,17.15,0,0,1,.06,1.9,30,30,0,0,0,1,9.52h0a.21.21,0,0,1,0,.12,22.19,22.19,0,0,0-.21,5.38l.8-.11c2.11-.29,4.23-.52,6.34-.7,0,0,3.17-.22,0,0-2.11.18-4.21.41-6.32.7l0-.05a6.13,6.13,0,0,1-.8.13c.29,4,1.37,7.88,1.83,11.94.08.73.13,1.46.17,2.19a18.38,18.38,0,0,0,4,.18c.52,0,1-.1,1.54-.18v0c-.51.08-1,.14-1.54.18a19,19,0,0,1-4-.17c.19,4.47-.41,8.95.07,13.43A.16.16,0,0,1,217,99c-.13,1.34-.19,2.67-.21,4a8.59,8.59,0,0,0,2.14.16,8.45,8.45,0,0,0,2.23-.42v0a8.45,8.45,0,0,1-2.23.42,8.59,8.59,0,0,1-2.14-.16c-.08,6.26.88,12.46.37,18.79a.16.16,0,0,1-.32,0c.59-7.52-.89-14.93-.19-22.44a.14.14,0,0,1-.1-.13c-.57-4.66-.19-9.26-.33-13.89h0a39,39,0,0,0-.6-6,72.11,72.11,0,0,1-1.17-8c-.29,0-.42,0,0,0a23.71,23.71,0,0,1,.23-5.43s0,0,0,0a25.46,25.46,0,0,1-1.12-8.58c.15-3.13-.58-6.14-.71-9.26h0a.17.17,0,0,1,.05-.12c.39-3.36-.43-6.08-1-9.32a22,22,0,0,1-.14-3.14,125,125,0,0,0-32.21-22.47c-5.2,2.62-11.27,4-16.32,7.26-6.88,4.39-7.64,13.72-8.23,21.09a136.48,136.48,0,0,0,0,19c.4,7,1,13.89,1.72,20.82.53,5.54,1.65,11.09.8,16.63l.06.19a.16.16,0,0,1-.13.22c0,.11,0,.22-.05.34h-.08c0,.23-.36.13-.36-.11s.08-.5.12-.76c-4.77-13.4-6.07-28.27-6.72-42.39a139.23,139.23,0,0,1,.6-21.8c.26-2.73.79-5.41,1.2-8.12,1-6.46-3.85-8.26-8-11.4a30,30,0,0,1-9.67-13c-3-.22-6.1-.34-9.19-.34-1.91,0-3.81,0-5.71.14-.16,5.88-.2,11.79-.18,17.73a.14.14,0,0,1-.14.14l0,0,.18,3c0,.18-.28.18-.28,0l-.19-3.31a.12.12,0,0,1,.19-.11c0-5.82,0-11.62.15-17.41A124.33,124.33,0,0,0,35.39,38.8c1.44-.76,2.66.42,3.41,2,1.34,2.93,1.79,6.69,2.62,9.8q1.53,5.71,3.11,11.42,6.21,22.35,13.14,44.5c.09.29-.36.41-.45.12Q52,90.17,47.28,73.55,44.9,65.24,42.61,56.9L40.48,49c-.39-1.46-.78-2.93-1.16-4.4L38.62,42,35,39.64a.22.22,0,0,1-.35-.07l-.3.32a.19.19,0,0,1,.16.15c2.79,16.13,8,31.58,12.33,47.49s6.8,32,9.64,48.11a20.92,20.92,0,0,1,3.68-.46c3.16-.05,6.28,1,9.39,1.4,8.44,1,16.63,2,20.15,10.9,3.13,7.92,3,19.13-.84,26.76-5,10.13-16.76,10.33-25.43,15.87-6.89,4.39-7.65,13.72-8.24,21.09a137.57,137.57,0,0,0-.09,17.23,124.05,124.05,0,0,0,58.49,21q-.44-6.67-.61-13.39c-8.46-4.9-16.51-14.84-15.22-25s10.15-16.84,20-17.85h0c.2,0,.2.33,0,.33-10.41,1.07-19.62,8.66-19.8,19.68-.16,9.35,7.56,18.19,15.28,22.64,0,0,0,0,0,0a.15.15,0,0,1,.06.09q.18,6.76.62,13.52c1.4.13,2.8.24,4.22.32a49.82,49.82,0,0,1,2-13.2.15.15,0,0,1,.1-.19c8.22-3.26,15.49-9.29,17.67-18.2,2.46-10.09-2.9-17.71-10.42-23.68h0c-.16-.13.07-.37.23-.24l0,0s0-.05,0-.07c10.78-23.71,21.81-47.33,32.08-71.27,0-.06.06-.08.11-.08a28.35,28.35,0,0,0,3.43-8.44c-.84-.23-1.78.07-2.63-.17-4.8,8.85-8,18.5-11.48,27.94v0c-.07.2-.39.11-.32-.08s.07-.18.1-.27c-.1.15-.36.07-.29-.11l3.95-10.18c1.39-3.56,3.14-7.1,3-11v0c0-.22.32-.21.32,0a13.61,13.61,0,0,1-.44,4,109.38,109.38,0,0,1,4.91-10.46c0-.09.07-.18.18-.13.92.32,2-.1,2.92.24,0,0,0,0,0,0a.18.18,0,0,1,.1.16,28.52,28.52,0,0,1-3.56,8.79h0a.12.12,0,0,1-.08.06c-10.25,23.92-21.28,47.5-32,71.18h0a.12.12,0,0,1-.09.08c7.51,6.06,12.72,13.77,10.26,23.81-2.19,9-9.49,15.08-17.75,18.38a49.82,49.82,0,0,0-2,13.15q3.39.18,6.83.18a125.1,125.1,0,0,0,32.54-4.29C155.59,236,152.3,226.44,149.46,216.9Zm69.73-18.14a36.61,36.61,0,0,0,5.34,0c.45,0,.45.7,0,.7a36.61,36.61,0,0,1-5.34,0A.35.35,0,0,1,219.19,198.76Zm2.8-76.14v0a38.34,38.34,0,0,1-4.53-.54v0A38.4,38.4,0,0,0,222,122.62Zm-.65-6.73a3.68,3.68,0,0,1,.45.21h0a3.68,3.68,0,0,0-.45-.21,4,4,0,0,0-3.36.17h0v0A4.08,4.08,0,0,1,221.34,115.89Zm.45-5.16a27.1,27.1,0,0,0-4.32.07v0a27.1,27.1,0,0,1,4.32-.06Zm.48-50.56a2.69,2.69,0,0,1,1.56-.27,2,2,0,0,1,.65.25h0a1.84,1.84,0,0,0-.63-.25,2.76,2.76,0,0,0-1.56.27c-.93.39-1.86,1-2.87.71C220.39,61.15,221.33,60.56,222.27,60.17ZM215,64v-.05a24.55,24.55,0,0,1,5.35.1v0A24.55,24.55,0,0,0,215,64Zm5.71,3.43a1.53,1.53,0,0,1-.93-.43h0a1.62,1.62,0,0,0,.93.43c1.38.16,3-1.29,4.35-.33h0C223.72,66.15,222.13,67.6,220.73,67.42ZM223,74.07a3.68,3.68,0,0,1,1.88.15h0a3.64,3.64,0,0,0-1.84-.15,9.33,9.33,0,0,0-2.89,1.2A9.09,9.09,0,0,1,223,74.07Zm-7,4h0a1.41,1.41,0,0,0,1.12.22,6,6,0,0,0,.72-.23,8.06,8.06,0,0,1,1-.37,3.42,3.42,0,0,1,.54-.18,7,7,0,0,1,2.5-.09,8,8,0,0,0-3,.27,8.91,8.91,0,0,1-1.76.6A1.32,1.32,0,0,1,216,78.07Zm3,2v0a22.51,22.51,0,0,0,5.23-1.3v0A21.91,21.91,0,0,1,219,80.05Zm.68,9.18,4.51-.31v0l-4.51.31v0Zm-2.46,3.18,0,0v0a1,1,0,0,1,1.06-.38,7.19,7.19,0,0,0,3.45,0v0a5.47,5.47,0,0,1-2,.28C219.05,92.26,217.56,91.65,217.18,92.41Zm5.8,2-5,1.31Zm-3.61,5.72v0l4.49-.67v0Zm1.14,5.6,3.27-.23v0l-3.27.22Zm-3.08,1.74c1.35-.54,3,1.34,4.15.13v0c-1.15,1.21-2.81-.63-4.15-.12h0ZM60.58,26a36.61,36.61,0,0,0,5.34,0c.45,0,.45.7,0,.7a36.61,36.61,0,0,1-5.34,0A.35.35,0,0,1,60.58,26Zm-2.74,81.59Q52.38,71.72,47.57,35.8h0c0-.29.47-.28.47,0q4.77,35.87,10.27,71.62C58.34,107.71,57.84,107.84,57.84,107.54Zm4.07,21.64L58.43,109.4a.16.16,0,0,1,0-.1.23.23,0,0,1-.38-.17v-.62c0-.3.46-.3.46,0v.62s0,0,0,.06.33-.11.37.09l3.47,19.78C62.41,129.35,62,129.48,61.91,129.18ZM65.57,27.57a38.62,38.62,0,0,1-5.27,0c.3,8.76-.7,17.4-.36,26.32s.83,17.69-.07,26.54h0v0c0,.06,0,.12,0,.18a.31.31,0,0,1-.07.14s0,0,0,.06a125.81,125.81,0,0,1,1.42,15,.23.23,0,0,1-.46,0A125.87,125.87,0,0,0,59.37,81a.19.19,0,0,1,.07-.19.2.2,0,0,1-.06-.13c0-.07,0-.13,0-.2l-4-22.35c-.57-3.22-1.21-6.42-1.56-9.66-.49-4.46.14-9-1.8-13.2h0a.22.22,0,0,1,.08-.27h-3.7a.23.23,0,1,1,0-.46h3.91a.23.23,0,0,1,.24.23.24.24,0,0,1-.19.22s0,0,.06,0A19.13,19.13,0,0,1,54,42.64a105.43,105.43,0,0,0,1.55,13.6q2,11.16,4,22.4c.65-8.27.25-16.6-.07-24.75-.35-8.8.65-17.56.35-26.32a.21.21,0,0,1,.18-.21.21.21,0,0,1,.21-.26,39.8,39.8,0,0,0,5.35,0C65.86,27.08,65.86,27.57,65.57,27.57Zm.74-.06q.47,4.5.77,9a.2.2,0,0,1-.22.22h0l1.65.35c.3.06.17.52-.12.45l-1.65-.35c-.28-.06-.18-.45.08-.44a.23.23,0,0,1-.24-.23q-.3-4.52-.76-9C65.82,27.21,66.31,27.21,66.31,27.51Zm3.32,99Q66.53,82,66.28,37.35a.24.24,0,0,1,.24-.23.23.23,0,0,1,.23.23Q67,82,70.09,126.48C70.11,126.78,69.63,126.78,69.63,126.48Zm1.74-12.93c.11-.45.2-.89.3-1.34a.21.21,0,0,1-.14-.19c-2.43-24.73.54-49.55-2.26-74.23,0-.3.47-.3.47,0,2.77,24.36-.07,48.91,2.18,73.29,5.94-26.77,6.57-54.29,9.66-81.48v0a.24.24,0,0,1,.47,0c-3.19,28-3.69,56.46-10.23,84.05C71.76,114,71.31,113.84,71.37,113.55ZM75.43,137c-.07.3-.52.17-.45-.12C83.19,102,84.12,65.43,86.92,29.78h0a.24.24,0,0,1,.47,0C84.58,65.51,83.64,102.05,75.43,137ZM87.49,28.67a21,21,0,0,1-5.82.16c-.29,0-.29-.47,0-.47a20.53,20.53,0,0,0,5.7-.14C87.66,28.18,87.79,28.62,87.49,28.67Zm.19-.74a10,10,0,0,0-5.14.23c-.43.14-.61-.55-.18-.68a10.73,10.73,0,0,1,5.51-.22C88.3,27.35,88.12,28,87.68,27.93ZM112.5,94.5q.69,11.4,1.8,22.79h0c0,.18-.28.18-.28,0l0-.38a.14.14,0,0,1-.27,0,76.75,76.75,0,0,1-3.25-12.77c0-.23-.08-.46-.11-.7,0,0,0-.08,0-.12-.08-.55-.15-1.11-.2-1.67,0-.13,0-.25,0-.38a53.34,53.34,0,0,1-.23-6.26c.08-3.32-.72-6.35-.93-9.63-.26-4.17.12-8.25-2.37-11.91h0c-.11-.14.14-.29.24-.14a14.33,14.33,0,0,1,2.28,7.77c.19,3.7.85,7.3,1.13,11,.24,3.06-.36,6.11-.14,9.19.07.69.14,1.38.23,2,0,0,0,.08,0,.12,0,.24.08.47.11.7a85,85,0,0,0,3.5,12.63Q112.72,103.9,112,91c-.38-7-.52-13.31,2.29-19.82-.09,0-.17-.1-.1-.2,2.18-3.18,5-5.77,7.57-8.57.41-.44.79-.89,1.15-1.34-1.57-.71-3.57-.39-5.25-.39l-4.89.09a.14.14,0,0,1-.14-.14.14.14,0,0,1,.14-.14l6.4-.11a8.58,8.58,0,0,1,3.92.47,27.62,27.62,0,0,0,2.69-4.08.12.12,0,0,1-.08,0l-8.83-.06a.14.14,0,1,1,0-.28l8.83.06a.14.14,0,0,1,.14.14A44.23,44.23,0,0,0,129,49.07c.06-.16.33-.09.27.08s-.07.22-.11.34c2.36-2.23,1.41-5.52.49-8.26v0c-.06-.17.21-.24.27-.07,1,2.88,1.9,6.39-.71,8.71a.14.14,0,0,1-.17,0c-1.24,3.79-2.62,7.41-5.15,10.58C121,64,117.5,66.9,114.82,70.63c0,0,0,0,0,.06C111.26,78.42,112,86.26,112.5,94.5Zm-8.07-25.92c-.14.1-.29-.14-.14-.24a6.35,6.35,0,0,1,3.54-.8,38.44,38.44,0,0,1,6.07.24.14.14,0,0,1,0,.28,40.5,40.5,0,0,0-4.67-.28c-1.57,0-3.47-.14-4.83.79ZM129.58,41a32,32,0,0,0-9.34-1.71.14.14,0,0,1,0-.28,31.67,31.67,0,0,1,9.45,1.72h0C129.82,40.74,129.75,41,129.58,41Zm-.8,8.25a14.8,14.8,0,0,0-5.23-.51l-5-.12a.14.14,0,0,1,0-.28l5.79.14a13.14,13.14,0,0,1,4.54.5h0C129,49,128.94,49.28,128.78,49.21Zm-1.54-15.62-9.33-2.09c-.18,0-.11-.27.07-.27l9.34,2.09C127.5,33.36,127.42,33.59,127.24,33.59Zm-9.45,9.17a125,125,0,0,0-13.55-.37.14.14,0,1,1,0-.28,125,125,0,0,1,13.55.37A.14.14,0,0,1,117.79,42.76Zm-13.47,7.6a40,40,0,0,0,9.34.19c.18,0,.18.28,0,.28a29.26,29.26,0,0,1-6.61.24c-2.48-.27-4.85-1.11-7.15.43v0c-.14.1-.29-.14-.14-.24A6.35,6.35,0,0,1,104.32,50.36Zm.07,5.54c.18,0,.11.27-.07.27a24.44,24.44,0,0,0-7.14-.33c-.18,0-.18-.29,0-.29A24.9,24.9,0,0,1,104.39,55.9Zm25.74-15.53c-.06.17-.33.09-.27-.07a5.41,5.41,0,0,0-1.74-6h0c-.14-.11.06-.31.2-.2A5.68,5.68,0,0,1,130.13,40.37ZM111.49,5.81a43.1,43.1,0,0,1,.31,16c0,.18-.27.1-.27-.08a42.52,42.52,0,0,0-.31-15.82C111.18,5.71,111.49,5.63,111.49,5.81ZM100.63,27.56c6.29-8.32,30.06-7.57,27.5,6.32,0,.18-.27.1-.27-.07,2.54-13.8-21.12-13.87-27-6.11h0C100.76,27.84,100.52,27.7,100.63,27.56Zm-4.32,27.6C94,50.58,95.13,46,95.71,41a30.73,30.73,0,0,1,4.67-13.26l0,.07a.14.14,0,1,1,.24.14,31.56,31.56,0,0,0-2.27,4.3.12.12,0,0,1,.08-.06,19.66,19.66,0,0,1,11.32.08.13.13,0,0,1,.09.17.14.14,0,0,1-.17.1,19.3,19.3,0,0,0-11.19-.08h0a.13.13,0,0,1-.14-.19A30.76,30.76,0,0,0,96,41c-.58,4.76-1.73,9.54.56,14a.11.11,0,0,1,0,.11h0c0-.17.27-.25.27-.07,1.39,6.92,6.79,11.72,9.93,17.8.08.14-.16.3-.25.14-3.15-6.1-8.56-10.94-10-17.86A.13.13,0,0,1,96.31,55.16ZM122.14,126c-.09,4.16-.37,8.37-.71,12.66q-1.07,13.34-1.33,26.72a33.46,33.46,0,0,1,.53,6.25.15.15,0,0,1-.12.12.16.16,0,0,1-.2-.12,31.32,31.32,0,0,0-.25-4.34q-.14,9.13.08,18.3h0v.05h0a.14.14,0,0,1-.11.12h0a.16.16,0,0,1-.1,0s0,0-.06-.07,0,0,0,0h0c-3.86-10.3-7.23-20.79-10.8-31.2-3.73-10.85-9.15-21.71-9.62-33.31-.7.35-1.48.57-2.17.94-.12,13.2,5.48,25.06,10.54,36.94a153.52,153.52,0,0,1,10.13,33.62c0,.2-.32.29-.32.08-.26-1.49-.56-3-.87-4.45l0,0a.2.2,0,0,1-.12-.13.16.16,0,0,1,.1-.18,178.64,178.64,0,0,0-11.13-33.32c-4.5-10.48-8.76-21.11-8.62-32.68h0s0,0,0,0a.16.16,0,0,1,0-.11c.79-.45,1.71-.66,2.49-1.11l.06,0a.15.15,0,0,1,.2.14c.41,12.06,6.22,23.53,10.07,34.81,3.31,9.64,6.43,19.37,10,28.93q-.21-9.69,0-19.39c-.75-4.59-2.09-9.12-2.56-13.74-.9-8.72.31-17.45,1.56-26.08h0a.12.12,0,0,1,.17-.11,4.65,4.65,0,0,1,2.83.22c.18-9.75-.65-19.27-4.25-28.95,0,0,0,0,0,0v0h0c0-.18.25-.25.32-.06,3.61,9.74,4.49,19.31,4.3,29.16h0A.16.16,0,0,1,122.14,126Zm5,33.63c-.17,8.27.22,16.55.36,24.82a.18.18,0,0,1-.13.12.16.16,0,0,1-.2-.12c-.12-7.68-.46-15.44-.37-23s1-15.23.58-22.84c-.2-3.55-.74-6.94-.34-10.5.43-3.73,1.19-7.34.93-11.07-.54-7.8-3.81-15.1-6.59-22.23L118,96.38c-.17.1-.35-.19-.17-.28l3.55-1.65,0,0a.18.18,0,0,1,.23.19c2.66,6.7,5.67,13.55,6.5,20.73s-1.16,14.25-.55,21.48C128.23,144.44,127.32,152,127.16,159.66Zm.54,7.6q8.76-30.56,14.68-61.78c-.1,0-.22,0-.22-.09v0l-3.35-2.73c-.16-.13.07-.36.23-.23l3,2.46-.66-3.61c0-.21.32-.29.32-.09l.73,4,0,0h0a.19.19,0,0,1,.25.18q-5.94,31.34-14.71,62a.15.15,0,0,1-.16.09A.17.17,0,0,1,127.7,167.26Zm.67,16.05h0c0,.4-.08.79-.11,1.19a.16.16,0,0,1-.32,0c.89-13.73,6.37-26.47,9.74-39.67,3.48-13.7,5.52-27.7,7.52-41.68a9.45,9.45,0,0,1-2.16,2.93l0,0c-.16.14-.39-.09-.24-.23a1.42,1.42,0,0,0,.12-.13.18.18,0,0,1-.17-.19l.79-3.79c.05-.21.32-.12.32.08l-.78,3.75a9.1,9.1,0,0,0,2.36-3.94v-.08s0,0,0-.06l.07-.21a.17.17,0,0,1,.32.09c0,.11-.08.22-.12.34-2,13.88-3.92,27.67-7.3,41.42-3.21,13.07-8.63,25.7-10,39.16q13.89-30.71,25.56-62.28c.07-.19.39-.11.32.09Q142.48,152.21,128.37,183.31Zm27-62.91h-.59c-.2,0-.21-.33,0-.33h.59A.17.17,0,0,1,155.38,120.4Zm20.08,91.84c-3.16-6.09-8.56-10.93-10-17.85-.05.08-.18.13-.24,0-2.35-4.59-1.18-9.22-.6-14.18A30.73,30.73,0,0,1,169.33,167l0,.07c.1-.15.34,0,.25.14a29.84,29.84,0,0,0-2.27,4.29s0-.05.07-.06a19.74,19.74,0,0,1,11.32.08.15.15,0,0,1,.1.17.14.14,0,0,1-.17.1,19.42,19.42,0,0,0-11.2-.08h0a.14.14,0,0,1-.15-.09s0-.05,0-.08a30.69,30.69,0,0,0-2.33,8.75c-.58,4.76-1.72,9.54.56,14a.08.08,0,0,1,0,.08c0-.15.26-.21.26,0,1.4,6.92,6.79,11.72,9.93,17.8C175.79,212.24,175.54,212.4,175.46,212.24Zm-5.64-45.31c-.11.14-.36,0-.24-.14,6.28-8.32,30.06-7.56,27.5,6.32,0,.18-.27.11-.27-.07C199.35,159.25,175.68,159.17,169.82,166.93Zm17,3.81c-.18,0-.1-.27.08-.27l9.33,2.09c.18,0,.11.27-.07.27ZM186.75,182a125.07,125.07,0,0,0-13.55-.38.14.14,0,0,1-.14-.14.14.14,0,0,1,.14-.14,125.07,125.07,0,0,1,13.55.38A.14.14,0,0,1,186.75,182Zm-13.4,13.14c.18,0,.1.27-.08.27a24.44,24.44,0,0,0-7.14-.33c-.18,0-.18-.28,0-.28A25,25,0,0,1,173.35,195.14Zm9.5,11.87c.17,0,.17.28,0,.28a42.87,42.87,0,0,0-4.67-.28c-1.57,0-3.48-.14-4.83.8h0c-.14.1-.29-.14-.14-.25a6.4,6.4,0,0,1,3.54-.8A39.77,39.77,0,0,1,182.85,207Zm-.25-17a29.83,29.83,0,0,1-6.61.25c-2.47-.27-4.85-1.11-7.14.43v0c-.14.11-.29-.14-.14-.24a6.27,6.27,0,0,1,4.54-.93,40,40,0,0,0,9.34.18C182.78,189.75,182.78,190,182.6,190Zm12.08,6-8.84-.05a.16.16,0,0,1-.14-.14.14.14,0,0,1,.14-.14l8.84.05a.15.15,0,0,1,.14.14A.14.14,0,0,1,194.68,196Zm3-7.57a14.56,14.56,0,0,0-5.23-.52l-5-.12a.14.14,0,0,1-.14-.14.14.14,0,0,1,.14-.14l5.79.14a13.33,13.33,0,0,1,4.53.51h0C198,188.24,197.89,188.51,197.72,188.45Zm.79-8.25a32,32,0,0,0-9.34-1.71.14.14,0,0,1,0-.28,32.24,32.24,0,0,1,9.47,1.72h-.06C198.75,180,198.67,180.26,198.51,180.2Zm.57-.59c-.05.17-.32.1-.27-.07a5.43,5.43,0,0,0-1.73-6h0c-.14-.11,0-.3.19-.19A5.66,5.66,0,0,1,199.08,179.61Zm2.33-132a.14.14,0,0,1,.28,0c-2.23,17.95-5.85,35.48-9.27,53.23-3.65,18.84-4.14,37.65-4.08,56.78a.14.14,0,0,1-.14.14h0l.18,3a.14.14,0,0,1-.28,0l-.2-3.3c0-.12.1-.15.19-.12-.05-17.85.23-35.55,3.44-53.13C195,85.33,199,66.7,201.41,47.65ZM166,50.72c4.16,12.22,6.4,25.25,9.34,37.82l9,38.66c4.09-12.21,3.22-25.24,5.84-37.75,3-14.18,5.46-28.21,7.23-42.62v0a.14.14,0,0,1,.25-.07l3.61.86c.18.05.1.27-.08.27L197.68,47c-1.7,13.8-3.82,27.33-6.84,40.86-3,13.21-1.91,27.06-6.38,39.94-.06.17-.33.1-.27-.07v0s0,0,0,0l-9.1-39.06C172.16,76,169.92,63,165.74,50.79,165.68,50.62,166,50.55,166,50.72Zm-2.71,0a3.81,3.81,0,0,0,2.22-.71c.14-.11.29.14.14.24a4.06,4.06,0,0,1-2.36.75.14.14,0,0,1-.14-.14A.14.14,0,0,1,163.3,50.76Zm-.48.12h0a.14.14,0,0,1,.09-.17.16.16,0,0,1,.18.1,532.88,532.88,0,0,1,17.42,94.32.12.12,0,0,1,0,.09,43,43,0,0,1,.27,15.79c0,.18-.27.1-.27-.07a42.51,42.51,0,0,0-.31-15.82.13.13,0,0,1,.05-.12A532.3,532.3,0,0,0,162.82,50.88ZM151.49,183.12l1.2-.48a.13.13,0,0,1,.09,0,.19.19,0,0,1,0-.1l.17-.63a.16.16,0,0,1,.15-.09.15.15,0,0,1,.16.17l-.16.63a.18.18,0,0,1-.16.09s0,0-.06,0a.18.18,0,0,1-.07.27l-1.21.47C151.38,183.51,151.29,183.19,151.49,183.12Zm-6.35-1.81a.19.19,0,0,1,.15-.09.16.16,0,0,1,.16.18l-.17.62a.15.15,0,0,1-.16.09.17.17,0,0,1-.16-.17Zm-1.51,1.15,1-.26a.17.17,0,0,1,.16.09.18.18,0,0,1-.07.23l-1,.26a.17.17,0,0,1-.16-.09A.18.18,0,0,1,143.63,182.46Z"/><path class="cls-1" d="M152.43,26c-2.14,12.06-2.18,24.28-1.2,36.42.93,11.59,2.18,23.33,6,34.37.8-6.52-.74-13.43-1.33-19.91S154.72,64,154.42,57.54C154,47.4,153,33.44,158.55,24.36c4.21-6.9,13.7-8.26,20.72-11.57A124.14,124.14,0,0,0,134.81.89,30,30,0,0,0,141.45,11C146.69,16.23,153.93,17.43,152.43,26Z"/><path class="cls-1" d="M213.39,43a19.25,19.25,0,0,1,0,3.64c2.66-.88,5.51,0,8.21-.65-2.2-2.67-4.52-5.24-6.93-7.71l-2.32.3C212.62,40,213.2,41.43,213.39,43Z"/><path class="cls-1" d="M156.28,203l0-.51c-2.45-8.59-4.95-17.17-7.33-25.76-.95.12-1.91.14-2.86.27-.12,1.36-.18,2.73-.18,4.1a.14.14,0,0,1,.1.1,177,177,0,0,1,6.53,29.39.16.16,0,0,1-.12.18q1.61,5.47,3.08,11a.15.15,0,0,1-.09.16.16.16,0,0,1-.22-.07q-5.52-20.53-12.82-40.5c-1.1.33-2.11.93-3.22,1.26,4.4,11,7.27,22.86,10.66,34.28,2.84,9.54,6.13,19.09,8.36,28.83q4.41-1.2,8.67-2.7c-3-13.39-6.61-26.64-10.37-39.84A.16.16,0,0,1,156.28,203Z"/><path class="cls-1" d="M233.47,145.76c-.13,7.25,4.49,14.19,10.18,19A124.86,124.86,0,0,0,250,126.65C241,128.81,233.63,135.91,233.47,145.76Z"/><path class="cls-1" d="M118,154.71c.5,3,1.26,6,1.85,9.07q.27-11.65,1.15-23.28c.38-5,.71-9.8.81-14.59a4.28,4.28,0,0,0-2.69-.26C117.69,135.26,116.37,145,118,154.71Z"/><path class="cls-2" d="M219.19,199.46a36.61,36.61,0,0,0,5.34,0c.45,0,.45-.74,0-.7a36.61,36.61,0,0,1-5.34,0A.35.35,0,0,0,219.19,199.46Z"/><path class="cls-2" d="M192.66,213c.88,5.1,2,10.13,3.28,15.13l.4-.28c-1.25-4.94-2.36-9.92-3.23-15C193.06,212.55,192.6,212.68,192.66,213Z"/><path class="cls-2" d="M197.41,213.63c-.87-1.86-2.38-3.16-4.12-1.51-.22.21.1.53.32.33l3.63,2.3.69,2.65c.38,1.47.77,2.93,1.16,4.39.31,1.14.61,2.27.92,3.4l.41-.32-.39-1.43C199.2,220.33,198.75,216.57,197.41,213.63Z"/><path class="cls-2" d="M206.16,208.61h0c.47,3.47.95,6.94,1.42,10.4l.39-.35c-.45-3.35-.91-6.7-1.36-10C206.63,208.32,206.13,208.31,206.16,208.61Z"/><path class="cls-2" d="M211,207.76a.23.23,0,0,0,0-.46H207a.24.24,0,0,0,0,.47h3.67A.2.2,0,0,1,211,207.76Z"/><path class="cls-2" d="M211,207.76a.2.2,0,0,0-.27,0,.21.21,0,0,0-.07.27h0a18.47,18.47,0,0,1,1.45,6.83l.45-.44a19.58,19.58,0,0,0-1.51-6.61S211,207.78,211,207.76Z"/><path class="cls-2" d="M218.91,200.38h-.08a.22.22,0,0,1-.21-.2.21.21,0,0,0-.18.2h0c.09,2.63.06,5.26,0,7.89l.48-.54C219,205.27,219,202.83,218.91,200.38Z"/><path class="cls-2" d="M218.83,200.37h.08a40.3,40.3,0,0,0,5.27,0c.3,0,.3-.48,0-.46a39.8,39.8,0,0,1-5.35,0c-.16,0-.22.13-.21.26A.22.22,0,0,0,218.83,200.37Z"/><path class="cls-2" d="M224.45,200.32c0,.19,0,.39.05.58l.42-.54v0C224.91,200,224.42,200,224.45,200.32Z"/><path class="cls-2" d="M60.58,26.65a36.61,36.61,0,0,0,5.34,0c.45,0,.45-.73,0-.7a36.61,36.61,0,0,1-5.34,0A.35.35,0,0,0,60.58,26.65Z"/><path class="cls-2" d="M87.87,27.26a10.73,10.73,0,0,0-5.51.22c-.43.13-.25.82.18.68a10,10,0,0,1,5.14-.23C88.12,28,88.3,27.35,87.87,27.26Z"/><path class="cls-2" d="M56,135.72l.45-.08c-2.84-16.11-5.35-32.3-9.64-48.11S37.3,56.17,34.51,40a.19.19,0,0,0-.16-.15c-.1.11-.2.21-.29.32,2.8,16.15,8.06,31.65,12.33,47.44S53.17,119.63,56,135.72Z"/><path class="cls-2" d="M56.51,136.09l-.37.06A.22.22,0,0,0,56.51,136.09Z"/><path class="cls-2" d="M35,39.64,38.62,42l.7,2.64c.38,1.47.77,2.94,1.16,4.4l2.13,7.91q2.28,8.34,4.67,16.65,4.77,16.62,9.94,33.12c.09.29.54.17.45-.12Q50.74,84.4,44.53,62.05q-1.59-5.7-3.11-11.42c-.83-3.11-1.28-6.87-2.62-9.8-.75-1.61-2-2.79-3.41-2-.25.25-.5.51-.74.77A.22.22,0,0,0,35,39.64Z"/><path class="cls-2" d="M58.29,107.42Q52.79,71.66,48,35.8c0-.28-.51-.29-.47,0h0q4.82,35.92,10.27,71.74C57.84,107.84,58.34,107.71,58.29,107.42Z"/><path class="cls-2" d="M52.39,35a.24.24,0,0,0,.19-.22.23.23,0,0,0-.24-.23H48.43a.23.23,0,1,0,0,.46h3.7A.2.2,0,0,1,52.39,35Z"/><path class="cls-2" d="M55.56,56.24A105.43,105.43,0,0,1,54,42.64,19.13,19.13,0,0,0,52.45,35s0,0-.06,0a.2.2,0,0,0-.26,0,.22.22,0,0,0-.08.27h0c1.94,4.19,1.31,8.74,1.8,13.2.35,3.24,1,6.44,1.56,9.66l4,22.35c.06-.6.1-1.2.15-1.8Q57.56,67.41,55.56,56.24Z"/><path class="cls-2" d="M59.87,80.44h0v0Z"/><path class="cls-2" d="M60,27.36a.21.21,0,0,0-.18.21c.3,8.76-.7,17.52-.35,26.32.32,8.15.72,16.48.07,24.75,0,.6-.09,1.2-.15,1.8,0,.07,0,.13,0,.2a.2.2,0,0,0,.06.13.2.2,0,0,1,.34,0,.31.31,0,0,0,.07-.14c0-.06,0-.12,0-.18v0c.9-8.85.42-17.68.07-26.54s.66-17.56.36-26.32h-.08A.23.23,0,0,1,60,27.36Z"/><path class="cls-2" d="M65.57,27.1a39.8,39.8,0,0,1-5.35,0,.21.21,0,0,0-.21.26.23.23,0,0,0,.21.21h.08a38.62,38.62,0,0,0,5.27,0C65.86,27.57,65.86,27.08,65.57,27.1Z"/><path class="cls-2" d="M66.85,36.76h0a.2.2,0,0,0,.22-.22q-.3-4.52-.77-9c0-.3-.49-.3-.46,0q.47,4.5.76,9A.23.23,0,0,0,66.85,36.76Z"/><path class="cls-2" d="M66.77,37.2l1.65.35c.29.07.42-.39.12-.45l-1.65-.35h0C66.59,36.75,66.49,37.14,66.77,37.2Z"/><path class="cls-2" d="M69.74,37.79c0-.3-.5-.3-.47,0,2.8,24.68-.17,49.5,2.26,74.23a.21.21,0,0,0,.14.19c.09-.37.17-.75.25-1.13C69.67,86.7,72.51,62.15,69.74,37.79Z"/><path class="cls-2" d="M59.44,80.77a.19.19,0,0,0-.07.19,125.87,125.87,0,0,1,1.4,14.88.23.23,0,0,0,.46,0,125.81,125.81,0,0,0-1.42-15s0,0,0-.06A.2.2,0,0,0,59.44,80.77Z"/><path class="cls-2" d="M58.51,109.19s0,.09-.06.11a.16.16,0,0,0,0,.1l3.48,19.78c.05.3.5.17.44-.12l-3.47-19.78C58.84,109.08,58.63,109.08,58.51,109.19Z"/><path class="cls-2" d="M58.51,109.19s0,0,0-.06v-.62c0-.3-.48-.3-.46,0v.62a.23.23,0,0,0,.38.17S58.5,109.23,58.51,109.19Z"/><path class="cls-2" d="M66.52,37.12a.24.24,0,0,0-.24.23q.25,44.61,3.35,89.13c0,.3.48.3.46,0Q67,82,66.75,37.35A.23.23,0,0,0,66.52,37.12Z"/><path class="cls-2" d="M81.58,29.62v0c-3.09,27.19-3.72,54.71-9.66,81.48-.08.38-.16.76-.25,1.13s-.19.89-.3,1.34c-.06.29.39.42.45.12,6.54-27.59,7-56,10.23-84A.24.24,0,0,0,81.58,29.62Z"/><path class="cls-2" d="M87.37,28.22a20.53,20.53,0,0,1-5.7.14c-.29,0-.29.43,0,.47a21,21,0,0,0,5.82-.16C87.79,28.62,87.66,28.18,87.37,28.22Z"/><path class="cls-2" d="M86.91,29.78h0C84.12,65.43,83.19,102,75,136.91c-.07.29.38.42.45.12,8.21-35,9.15-71.52,11.95-107.25A.24.24,0,0,0,86.91,29.78Z"/><path class="cls-2" d="M55.19,211.2c.59-7.37,1.35-16.7,8.24-21.09,8.67-5.54,20.38-5.74,25.43-15.87,3.79-7.63,4-18.84.84-26.76-3.52-8.9-11.71-9.88-20.15-10.9-3.11-.37-6.23-1.45-9.39-1.4a20.92,20.92,0,0,0-3.68.46l-.45.08c-1.35.28-2.69.59-4,.78-4.59.61-8.34,1.19-11.94,4.39-12.78,11.39-8.51,33.37,4.24,42.9,4.19,3.14,9,4.94,8,11.4-.41,2.71-.93,5.39-1.19,8.12a139.23,139.23,0,0,0-.61,21.8v.07l.43.31A134,134,0,0,1,52.6,195.9c1.51-8.55-5.74-9.75-11-14.94a30.26,30.26,0,0,1-8-28.43c1.33-5.08,4.26-10.06,8.75-13,3.06-2,6.11-2.21,9.6-2.7,1.38-.19,2.75-.47,4.13-.71l.37-.06a21.77,21.77,0,0,1,5.22-.39,134.69,134.69,0,0,1,14.57,2c6.54,1.19,11.41,4.67,13.49,11.13,3.44,10.61,2.2,26.79-8.41,32.89-7.09,4.09-18,5-22.62,12.54-5.55,9.09-4.6,23.05-4.13,33.19,0,.22,0,.43,0,.65l.43.3A137.57,137.57,0,0,1,55.19,211.2Z"/><path class="cls-2" d="M144.14,13.87c4.19,3.14,9,4.94,8,11.4-.41,2.71-.94,5.39-1.2,8.12a139.23,139.23,0,0,0-.6,21.8c.65,14.12,2,29,6.72,42.39,0,.26-.07.51-.12.76s.32.34.36.11h.08c0-.12,0-.23.05-.34a.16.16,0,0,0,.13-.22l-.06-.19c.85-5.54-.27-11.09-.8-16.63-.68-6.93-1.32-13.87-1.72-20.82a136.48,136.48,0,0,1,0-19c.59-7.37,1.35-16.7,8.23-21.09,5.05-3.22,11.12-4.64,16.32-7.26l-.3-.14c-7,3.31-16.51,4.67-20.72,11.57-5.55,9.08-4.6,23-4.13,33.18.3,6.46.88,12.9,1.47,19.32s2.13,13.39,1.33,19.91c-3.81-11-5.06-22.78-6-34.37-1-12.14-.94-24.36,1.2-36.42,1.5-8.55-5.74-9.75-11-14.94A30,30,0,0,1,134.81.89l-.34,0A30,30,0,0,0,144.14,13.87Z"/><path class="cls-2" d="M121.29,94.62a.13.13,0,0,1,.07-.17l-3.55,1.65c-.18.09,0,.38.17.28l3.42-1.59-.08-.18Z"/><path class="cls-2" d="M121.6,94.53l0,.09a.18.18,0,0,0-.23-.19A.16.16,0,0,1,121.6,94.53Z"/><path class="cls-2" d="M127.59,136.83c-.61-7.23,1.38-14.27.55-21.48s-3.84-14-6.5-20.73l0-.09a.16.16,0,0,0-.19-.1l0,0a.13.13,0,0,0-.07.17h0l.08.18c2.78,7.13,6,14.43,6.59,22.23.26,3.73-.5,7.34-.93,11.07-.4,3.56.14,6.95.34,10.5.45,7.61-.5,15.23-.58,22.84s.25,15.37.37,23a.16.16,0,0,0,.2.12.18.18,0,0,0,.13-.12c-.14-8.27-.53-16.55-.36-24.82C127.32,152,128.23,144.44,127.59,136.83Z"/><path class="cls-2" d="M139,102.39c-.16-.13-.39.1-.23.23l3.35,2.73-.09-.5Z"/><path class="cls-2" d="M142.48,105.2h0l0,0v0S142.47,105.2,142.48,105.2Z"/><path class="cls-2" d="M142.41,105.3h0a.16.16,0,0,1,.05-.08v0l-.73-4c0-.2-.36-.12-.32.09l.66,3.61.09.5v0c0,.13.12.14.22.09Z"/><path class="cls-2" d="M143.83,101.87c0-.2-.27-.29-.32-.08l-.79,3.79a.18.18,0,0,0,.17.19l.16-.15Z"/><path class="cls-2" d="M143.05,105.62l-.16.15a1.42,1.42,0,0,1-.12.13c-.15.14.08.37.24.23l0,0a9.45,9.45,0,0,0,2.16-2.93l.21-1.47A9.1,9.1,0,0,1,143.05,105.62Z"/><path class="cls-2" d="M145.73,101.69v.07c0-.12.09-.23.12-.34a.17.17,0,0,0-.32-.09l-.07.21C145.53,101.43,145.73,101.51,145.73,101.69Z"/><path class="cls-2" d="M128.08,183.17c.12-.28.24-.55.37-.83,1.34-13.46,6.76-26.09,10-39.16,3.38-13.75,5.33-27.54,7.3-41.42v-.07c0-.18-.2-.26-.28-.15s0,0,0,.06v.08l-.21,1.47c-2,14-4,28-7.52,41.68-3.37,13.2-8.85,25.94-9.74,39.67a.16.16,0,0,0,.32,0c0-.4.07-.79.11-1.19v0C128.27,183.53,128,183.36,128.08,183.17Z"/><path class="cls-2" d="M128,167.34q8.78-30.63,14.71-62a.19.19,0,0,0-.25-.18s0,0,0,0a.16.16,0,0,0-.05.08h0l0,.18q-5.92,31.21-14.68,61.78a.17.17,0,0,0,.16.17A.15.15,0,0,0,128,167.34Z"/><path class="cls-2" d="M121.77,125.91c-.1,4.79-.43,9.63-.81,14.59q-.88,11.63-1.15,23.28c.1.54.2,1.08.29,1.63q.27-13.38,1.33-26.72c.34-4.29.62-8.5.71-12.66a.13.13,0,0,1-.12,0Z"/><path class="cls-2" d="M119.81,185.68h0Z"/><path class="cls-2" d="M119.79,184.67l.35,1q-.23-9.15-.08-18.3c-.08-.68-.17-1.36-.28-2Q119.59,175,119.79,184.67Z"/><path class="cls-2" d="M117.53,96.63s0,0,0,0h0Z"/><path class="cls-2" d="M120.14,185.68v-.05a.13.13,0,0,1,0,.06Z"/><path class="cls-2" d="M117.85,96.55c-.07-.19-.35-.12-.32.06,3.6,9.68,4.43,19.2,4.25,29,.12,0,.25.09.37.15C122.34,115.86,121.46,106.29,117.85,96.55Z"/><path class="cls-2" d="M120,185.81h0Z"/><path class="cls-2" d="M119.9,185.79a.22.22,0,0,1-.06-.07S119.87,185.78,119.9,185.79Z"/><path class="cls-2" d="M122.18,125.72h0c-.12-.06-.25-.1-.37-.15a4.65,4.65,0,0,0-2.83-.22.22.22,0,0,1,.14.2v.11a4.28,4.28,0,0,1,2.69.26l.25.1a.13.13,0,0,0,.12,0,.16.16,0,0,0,0-.3Z"/><path class="cls-2" d="M118,154.71c-1.59-9.67-.27-19.45,1.12-29.06v-.11a.22.22,0,0,0-.14-.2.12.12,0,0,0-.17.11h0c-1.25,8.63-2.46,17.36-1.56,26.08.47,4.62,1.81,9.15,2.56,13.74.11.68.2,1.36.28,2a31.32,31.32,0,0,1,.25,4.34.16.16,0,0,0,.2.12.15.15,0,0,0,.12-.12,33.46,33.46,0,0,0-.53-6.25c-.09-.55-.19-1.09-.29-1.63C119.22,160.75,118.46,157.74,118,154.71Z"/><path class="cls-2" d="M99.38,120.93h0a.13.13,0,0,1,.13-.14l-.06,0c-.78.45-1.7.66-2.49,1.11a.16.16,0,0,0,0,.11.17.17,0,0,1,.11-.11.17.17,0,0,1,.2.13v.1c.69-.37,1.47-.59,2.17-.94,0-.08,0-.16,0-.24Z"/><path class="cls-2" d="M109.78,155.74c-3.85-11.28-9.66-22.75-10.07-34.81a.15.15,0,0,0-.2-.14.13.13,0,0,0-.13.14c0,.08,0,.16,0,.24.47,11.6,5.89,22.46,9.62,33.31,3.57,10.41,6.94,20.9,10.8,31.2h0s0,0,0,0a.22.22,0,0,0,.06.07.16.16,0,0,0,.1,0h0a.14.14,0,0,0,.11-.12.13.13,0,0,0,0-.06h0l-.35-1C116.21,175.11,113.09,165.38,109.78,155.74Z"/><polygon class="cls-2" points="99.38 120.93 99.38 120.93 99.38 120.92 99.38 120.93"/><path class="cls-2" d="M97,121.88a.17.17,0,0,0-.11.11s0,0,0,0h0c-.14,11.57,4.12,22.2,8.62,32.68A178.64,178.64,0,0,1,116.64,188l0,0a.16.16,0,0,1,0,.3c.31,1.48.61,3,.87,4.45,0,.21.36.12.32-.08a153.52,153.52,0,0,0-10.13-33.62c-5.06-11.88-10.66-23.74-10.54-36.94V122A.17.17,0,0,0,97,121.88Z"/><path class="cls-2" d="M116.79,188.12a.16.16,0,0,0-.13-.12l0,0a.16.16,0,0,0-.1.18.2.2,0,0,0,.12.13l0,0A.16.16,0,0,0,116.79,188.12Z"/><path class="cls-2" d="M128.08,194.43h0c10.77-23.68,21.8-47.26,32-71.18-.13,0-.29-.08-.2-.23l.06-.1c-.05,0-.08,0-.11.08-10.27,23.94-21.3,47.56-32.08,71.27,0,0,0,0,0,.07l.2.17A.12.12,0,0,0,128.08,194.43Z"/><path class="cls-2" d="M160.13,123.25a.12.12,0,0,0,.08-.06h0a28.52,28.52,0,0,0,3.56-8.79.18.18,0,0,0-.1-.16c.12.1,0,.34-.13.28l-.13,0a28.35,28.35,0,0,1-3.43,8.44l-.06.1C159.84,123.17,160,123.29,160.13,123.25Z"/><path class="cls-2" d="M154,120.06q-11.67,31.58-25.56,62.28c-.13.28-.25.55-.37.83s.19.36.28.17v0h0q14.12-31.11,26-63.16C154.4,120,154.08,119.87,154,120.06Z"/><path class="cls-2" d="M155.38,120.07h-.59c-.21,0-.2.32,0,.33h.59A.17.17,0,0,0,155.38,120.07Z"/><path class="cls-2" d="M156.07,120.59c0-.21-.33-.22-.32,0v0c.15,3.93-1.6,7.47-3,11l-3.95,10.18c-.07.18.19.26.29.11,2.14-5.79,4.17-11.66,6.53-17.38A13.61,13.61,0,0,0,156.07,120.59Z"/><path class="cls-2" d="M160.54,114.09a109.38,109.38,0,0,0-4.91,10.46c-2.36,5.72-4.39,11.59-6.53,17.38,0,.09-.06.18-.1.27s.25.28.32.08v0c3.49-9.44,6.68-19.09,11.48-27.94l-.15,0A.15.15,0,0,1,160.54,114.09Z"/><path class="cls-2" d="M163.68,114.24s0,0,0,0c-.94-.34-2,.08-2.92-.24-.11,0-.17,0-.18.13a.15.15,0,0,0,.1.18l.15,0c.85.24,1.79-.06,2.63.17l.13,0C163.73,114.58,163.8,114.34,163.68,114.24Z"/><path class="cls-2" d="M113.1,235.87a.14.14,0,0,1,.14,0s0,0,0,0c-7.72-4.45-15.44-13.29-15.28-22.64.18-11,9.39-18.61,19.8-19.68.2,0,.2-.35,0-.33h0c-9.83,1-18.68,7.61-20,17.85s6.76,20.14,15.22,25V236A.15.15,0,0,1,113.1,235.87Z"/><path class="cls-2" d="M120.51,236.64s0,0,0,.06c8.26-3.3,15.56-9.43,17.75-18.38,2.46-10-2.75-17.75-10.26-23.81l-.2-.17,0,0c-.16-.13-.39.11-.23.24h0c7.52,6,12.88,13.59,10.42,23.68-2.18,8.91-9.45,14.94-17.67,18.2a.15.15,0,0,0-.1.19s0,0,0-.07C120.26,236.35,120.58,236.44,120.51,236.64Z"/><path class="cls-2" d="M113.24,235.9a.14.14,0,0,0-.14,0,.15.15,0,0,0-.12.12v.1q.18,6.71.61,13.39l.33,0q-.44-6.75-.62-13.52A.15.15,0,0,0,113.24,235.9Z"/><path class="cls-2" d="M120.51,236.64c.07-.2-.25-.29-.32-.08,0,0,0,.05,0,.07a49.82,49.82,0,0,0-2,13.2l.31,0a49.82,49.82,0,0,1,2-13.15S120.51,236.66,120.51,236.64Z"/><path class="cls-2" d="M248.85,108.07c-.13-.89-.26-1.78-.4-2.66-1.5-4.68-3.22-9.3-5.18-13.82C239.31,82.27,235,73,233.41,63l-.47-.79c1.26,8.68,4.6,16.89,8.09,25A215.07,215.07,0,0,1,248.85,108.07Z"/><path class="cls-2" d="M233.28,143.59c-1,8.16,3.91,16.15,10.26,21.53,0-.11.07-.23.11-.34-5.69-4.83-10.31-11.77-10.18-19,.16-9.85,7.54-16.95,16.55-19.11v-.36C241.56,128.28,234.43,134.49,233.28,143.59Z"/><path class="cls-2" d="M24.16,56.21a.16.16,0,0,1,.19.15v0s0,0,0-.08c-.22-1.14-.46-2.28-.7-3.42l-.26.37.6,2.89Z"/><path class="cls-2" d="M14,83.87c.44,1.66-.05,3.32.45,5a0,0,0,0,1,0,0h0a.16.16,0,0,1,.05-.17.15.15,0,0,1,.18,0c-.54-1.94,0-3.79-.73-5.7-1.11-2.87-2.73-5.45-2.66-8.55-.1.24-.21.47-.31.7a11.25,11.25,0,0,0,1,4.29A40.16,40.16,0,0,1,14,83.87Z"/><path class="cls-2" d="M14.56,88.68a.16.16,0,0,0-.05.17h0c1.33,2.21.62,4.66,1,7.06.52,3.28,1.35,6,.93,9.44,0,0,0,0,0,0,0-.2.28-.19.31,0h0c.07-.44.13-.89.18-1.33l-.12,0v0l.12,0a19.56,19.56,0,0,0,0-3.67c-.19-1.55-.77-2.93-1.06-4.41l-.27,0h0v0l.29-.06a9,9,0,0,1-.14-.93c-.2-2.22.25-4.32-.94-6.33,0,0,0,0,0,0A.15.15,0,0,0,14.56,88.68Z"/><path class="cls-2" d="M16.41,105.38h0c.13,3.12.86,6.13.71,9.26a25.43,25.43,0,0,0,1.12,8.58l0,0a.2.2,0,0,1,0-.07h0c0-.18.22-.13.29,0s0,0,0,0a30,30,0,0,1-1-9.53,14.79,14.79,0,0,0-.07-1.89h0v0l0,0c-.17-2.12-.64-4.2-.73-6.33l0,0C16.69,105.19,16.4,105.18,16.41,105.38Z"/><path class="cls-2" d="M31.19,73.82a.1.1,0,0,1,0,.09A.1.1,0,0,0,31.19,73.82Z"/><path class="cls-2" d="M24.16,56.21l.06,0c.19.07.11.39-.09.31l-.1,0a2.48,2.48,0,0,0,.77,1.61c1.13,1.49,2.73,2.33,3.79,3.94l.25.06-.25-.06c.1.15.2.3.29.46A10.3,10.3,0,0,1,30,66.68h.2v0l0,0H30c.19,2.4,0,4.86.92,7.15l0-.06h0a.16.16,0,0,1,.29,0s0,0,0,0c-1.44-3.38-.21-7.12-1.61-10.52a11.22,11.22,0,0,0-1.5-2.57c-.92-1.16-3.58-2.77-3.73-4.28v0A.16.16,0,0,0,24.16,56.21Z"/><path class="cls-2" d="M30.9,73.76h0l0,.06c-1,1.85-1.83,3.7-1.56,5.84A17.28,17.28,0,0,1,29.59,85a15,15,0,0,0-.25,3.84s0,0,0,0a.19.19,0,0,1,.09-.15.18.18,0,0,1,.23.07c-.23-2.39.77-4.69.47-7.06a25.93,25.93,0,0,1-.58-2.89,10.41,10.41,0,0,1,1.62-4.89s0,0,0,0a.1.1,0,0,0,0-.09s0,0,0,0A.16.16,0,0,0,30.9,73.76Z"/><path class="cls-2" d="M29.44,88.7a.19.19,0,0,0-.09.15h0c.87,3-.32,6.09-.11,9.19,0,.69.05,1.37.05,2a3.22,3.22,0,0,1,.28.24h-.06c-.07-.08-.14-.13-.21-.2a45.75,45.75,0,0,1-.53,7.48h0c-.09.6-.17,1.2-.29,1.79h0a.15.15,0,0,1,.3,0v0s0,0,0,0c.58-3.3,1.36-6.67,1.06-10s.78-7.28-.18-10.68h0A.18.18,0,0,0,29.44,88.7Z"/><path class="cls-2" d="M28.48,109.41s0,0,0,0h0a17.64,17.64,0,0,0,.33,3.55c.45,2.76-.34,4.86-.48,7.53a8.63,8.63,0,0,0,.27,2.26,31,31,0,0,1,.19,6.17l0,0c0-.18.31-.25.31-.05h0c.08-3.63-.4-7.36.07-10.89.4-3-.5-5.58-.39-8.55v0A.15.15,0,0,0,28.48,109.41Z"/><path class="cls-2" d="M19.21,136.68a38.74,38.74,0,0,1,.6,6l.55.08c0-.74-.08-1.47-.16-2.2-.46-4.06-1.54-7.95-1.83-11.94l-.33,0A70.14,70.14,0,0,0,19.21,136.68Z"/><path class="cls-2" d="M20.14,156.61a.13.13,0,0,0,.07.12l0-.34a.15.15,0,0,1,.2-.14c-.48-4.49.12-9-.08-13.45-.18,0-.37,0-.55-.08C20,147.35,19.57,152,20.14,156.61Z"/><path class="cls-2" d="M18.26,123.17h0a.2.2,0,0,0,0,.07,23.92,23.92,0,0,0-.23,5.45l.33-.05a22.19,22.19,0,0,1,.21-5.38.24.24,0,0,0,0-.09C18.48,123,18.29,123,18.26,123.17Z"/><path class="cls-2" d="M20.24,156.39l0,.34c-.7,7.51.78,14.93.19,22.45a.16.16,0,0,0,.32,0c.51-6.33-.45-12.52-.37-18.79h0c0-1.33.08-2.66.21-4a.13.13,0,0,0-.12-.14A.15.15,0,0,0,20.24,156.39Z"/><path class="cls-2" d="M20.76,179.63c0-.2-.35-.2-.33,0h0a78.07,78.07,0,0,1,.42,13.83l.34.51A79.2,79.2,0,0,0,20.76,179.63Z"/><path class="cls-2" d="M25.77,192.12c0-.12,0-.24.07-.36a.15.15,0,0,0-.1.12c-.33,2.35-.72,4.68-1.19,7l.26.36c.47-2.29.86-4.6,1.19-6.92A.18.18,0,0,1,25.77,192.12Z"/><path class="cls-2" d="M27.31,173.12c0,1.21-.06,2.43-.09,3.65l0,0h0l0,0a80.7,80.7,0,0,1-1.38,15c0,.12-.05.24-.07.36a.18.18,0,0,0,.23.19.14.14,0,0,0,.08-.11c1.41-6.24,1.38-12.75,1.55-19.11,0,0,0,0,0,0v0C27.62,173.27,27.35,173.27,27.31,173.12Z"/><path class="cls-2" d="M27.71,160.09c0-.33-.06-.66-.08-1a.12.12,0,0,0,0,.1c.41,2.49-.37,4.58-.69,7a19.15,19.15,0,0,0,.16,4.59h.05v0h-.05c.09.76.18,1.51.22,2.26l0,0c0,.15.31.15.3,0v0c-.18-3.26-.45-5.87.19-9.13a13.58,13.58,0,0,0,.23-3.82A.16.16,0,0,1,27.71,160.09Z"/><polygon class="cls-2" points="28.04 160.09 28.04 160.09 28.04 160.09 28.04 160.09"/><path class="cls-2" d="M28.39,137.15s0,0,0,0c.15,7.38-1.32,14.62-.75,22,0,.33,0,.66.08,1a.16.16,0,0,0,.32,0s0,0,0,0c-.79-7.66.83-15.28.67-23h0A.16.16,0,0,1,28.39,137.15Z"/><path class="cls-2" d="M28.79,129s0,0,0,0c.59,2.79-1.24,5.32-.4,8.1,0,0,0,0,0,0a.16.16,0,0,0,.31-.05s0,0,0,0c-.86-2.8,1-5.34.39-8.13h0C29.1,128.74,28.79,128.81,28.79,129Z"/><path class="cls-3" d="M15.82,65.41,22,65.12v0"/><path class="cls-3" d="M19.87,67.72v0"/><path class="cls-2" d="M30.15,66.62v0H30c-3.37.18-6.74.53-10.08,1,3.34-.51,6.71-.86,10.08-1h.24Z"/><path class="cls-2" d="M12,73h0l.1,0Z"/><path class="cls-2" d="M21.33,72a13.83,13.83,0,0,0-2.8.25,18.13,18.13,0,0,1-3.33.79h.39C17.55,72.88,19.32,72,21.33,72Z"/><path class="cls-2" d="M12.12,72.93l.13,0Z"/><path class="cls-2" d="M15,73.07a15.41,15.41,0,0,0-2.71-.16A17.75,17.75,0,0,1,15,73.07Z"/><path class="cls-2" d="M15.2,73.07h0Z"/><path class="cls-2" d="M15.1,73.07h0Z"/><path class="cls-3" d="M30,74.89h0"/><path class="cls-2" d="M30,74.89l0,0a2.69,2.69,0,0,0-2.27-.55c-1.91.26-3.73.93-5.68,1.18v0A25.55,25.55,0,0,0,25.35,75C26.83,74.59,28.62,73.73,30,74.89Z"/><path class="cls-3" d="M24.55,71.63v0"/><path class="cls-2" d="M30.11,71.27a9,9,0,0,1-3.14.27,5.15,5.15,0,0,0,.53.07A8,8,0,0,0,30.11,71.27Z"/><path class="cls-2" d="M26.07,71.41c.3.06.6.1.9.13a3.16,3.16,0,0,0-2.4.07l0,0A1.94,1.94,0,0,1,26.07,71.41Z"/><line class="cls-3" x1="24.92" y1="61.19" x2="28.59" y2="62.06"/><line class="cls-3" x1="28.59" y1="62.06" x2="28.84" y2="62.12"/><path class="cls-3" d="M22.49,80v0"/><path class="cls-3" d="M14.12,81.25v0"/><path class="cls-2" d="M17.26,80.6a9.68,9.68,0,0,0,1.49.07A23.82,23.82,0,0,0,22.49,80,20,20,0,0,1,17.26,80.6Z"/><path class="cls-2" d="M15.19,80.67s0,0-.08,0Z"/><path class="cls-2" d="M15.11,80.7a3.47,3.47,0,0,0-.45.17A1.89,1.89,0,0,1,15.11,80.7Z"/><path class="cls-2" d="M15.19,80.67a3.9,3.9,0,0,1,1-.11A2.66,2.66,0,0,0,15.19,80.67Z"/><path class="cls-2" d="M14.66,80.87h0Z"/><path class="cls-2" d="M14.19,81.22a2.1,2.1,0,0,1,.46-.34,2.56,2.56,0,0,0-.53.35Z"/><path class="cls-2" d="M16.16,80.56a3.42,3.42,0,0,1,.45,0c.22,0,.43,0,.65,0C16.89,80.58,16.52,80.55,16.16,80.56Z"/><path class="cls-3" d="M20.27,85.74v0"/><path class="cls-2" d="M25.88,85.74a3.66,3.66,0,0,0,.81,0c-1.16-.06-2.24-.49-3.42-.67a3.58,3.58,0,0,0-1.22,0C23.31,85,24.61,85.53,25.88,85.74Z"/><path class="cls-2" d="M29.48,85.48c-.12,0-.25,0-.37,0l.33,0Z"/><path class="cls-2" d="M21.67,85.09a.83.83,0,0,1,.22,0A1.66,1.66,0,0,0,21.67,85.09Z"/><path class="cls-2" d="M21.89,85.06l.16,0Z"/><path class="cls-2" d="M20.27,85.74a3.58,3.58,0,0,1,1.4-.65A3.12,3.12,0,0,0,20.27,85.74Z"/><path class="cls-2" d="M27.83,85.68a3.69,3.69,0,0,1,1.28-.2,16.91,16.91,0,0,0-2.42.27A4.43,4.43,0,0,0,27.83,85.68Z"/><path class="cls-3" d="M15.58,96v0"/><path class="cls-2" d="M15.6,96l.27,0a48.68,48.68,0,0,1,7.89-1,48.66,48.66,0,0,0-7.89,1l-.29.06Z"/><path class="cls-3" d="M29.2,94h0"/><path class="cls-2" d="M29.2,94l0,0a4.06,4.06,0,0,0-2.9-1.41c-2-.33-4-.51-6-.68v0c1.35.12,2.68.25,4,.42C25.93,92.57,28.13,92.58,29.2,94Z"/><path class="cls-3" d="M25.88,103.18v0"/><path class="cls-3" d="M16.79,104.08v0"/><path class="cls-2" d="M16.91,104c2.91-1,6.06.14,9-.85-2.91,1-6.06-.12-9,.85l-.12,0Z"/><path class="cls-3" d="M22.34,99.7h0"/><path class="cls-2" d="M23,99.64a3.57,3.57,0,0,0-.65.06A4.62,4.62,0,0,1,23,99.64Z"/><path class="cls-2" d="M29.57,100.34a3.22,3.22,0,0,0-.28-.24,2.86,2.86,0,0,0-2-.69,14.28,14.28,0,0,1-3.12.29A5.55,5.55,0,0,0,23,99.64a18.5,18.5,0,0,0,2.79.15c1.23-.18,2.5-.6,3.52.34.07.07.14.12.21.2Z"/><path class="cls-3" d="M17.42,111.73v0"/><path class="cls-2" d="M22.93,111.63c-.69.05-1.37.13-2.05.24a9.51,9.51,0,0,1-1.88-.28,8.93,8.93,0,0,0,1.62.29A15.11,15.11,0,0,0,22.93,111.63Z"/><path class="cls-2" d="M22.93,111.63c.62,0,1.25-.06,1.88,0A7.38,7.38,0,0,0,22.93,111.63Z"/><path class="cls-2" d="M17.45,111.72h0a2.31,2.31,0,0,1,1.53-.13,2.17,2.17,0,0,0-1.53.12l0,0Z"/><path class="cls-3" d="M22.32,108.39h0"/><path class="cls-2" d="M28.77,107.61h0a3.31,3.31,0,0,0-1.86.28c-1.61.63-2.8,1.26-4.54.5a4.09,4.09,0,0,0,2.31.36c1.45-.24,2.58-1.35,4.11-1.14h0Z"/><path class="cls-2" d="M23.88,121.49a24.45,24.45,0,0,0-5.34-.1v0l0,0a24.82,24.82,0,0,1,5.31.15Z"/><path class="cls-2" d="M27.37,117.31a2.69,2.69,0,0,0-1.56.27A2.86,2.86,0,0,1,27.37,117.31Z"/><path class="cls-2" d="M25.81,117.58c-.94.39-1.87,1-2.86.71C24,118.57,24.88,118,25.81,117.58Z"/><path class="cls-2" d="M28,117.56h0a2,2,0,0,0-.65-.25,1.84,1.84,0,0,1,.63.25Z"/><path class="cls-3" d="M23.32,124.4h0"/><path class="cls-3" d="M28.63,124.5h0"/><path class="cls-2" d="M28.63,124.5h0c-1.37-.95-3,.49-4.35.34C25.68,125,27.27,123.55,28.63,124.5Z"/><path class="cls-2" d="M24.27,124.83a1.79,1.79,0,0,1-.93-.43A1.68,1.68,0,0,0,24.27,124.83Z"/><path class="cls-3" d="M23.7,105.46v0l4.51-.22v0"/><path class="cls-2" d="M24.13,56.54c.2.08.28-.24.09-.31l-.06,0L24,56.16a11.52,11.52,0,0,0-2.2-.58l-.21.31a11.41,11.41,0,0,1,2.43.62Z"/><path class="cls-2" d="M25.49,127.88c3.16-.27,0,0,0,0q-3.18.27-6.34.7v.05Q22.33,128.14,25.49,127.88Z"/><path class="cls-2" d="M18,128.7l.33,0a5.86,5.86,0,0,0,.78-.13l-.78.11-.33.05C17.58,128.76,17.72,128.75,18,128.7Z"/><path class="cls-2" d="M23.66,132.67a9.33,9.33,0,0,1,2.89-1.2A9.09,9.09,0,0,0,23.66,132.67Z"/><path class="cls-2" d="M28.39,131.62h0a3.79,3.79,0,0,0-1.88-.15A3.75,3.75,0,0,1,28.39,131.62Z"/><path class="cls-3" d="M19.5,135.43h0"/><path class="cls-2" d="M25.44,134.82v0a7.5,7.5,0,0,0-2.5.09c-.94.22-2.46,1.3-3.42.57l0,0c.6.46,1.19.25,1.87,0A8.16,8.16,0,0,1,25.44,134.82Z"/><path class="cls-3" d="M27.74,136.14v0"/><path class="cls-2" d="M27.73,136.1a22.51,22.51,0,0,1-5.23,1.3v0a22.11,22.11,0,0,0,5.24-1.31Z"/><path class="cls-3" d="M25.87,142.78h0"/><path class="cls-2" d="M24.33,143c.52,0,1-.1,1.54-.18C25.36,142.87,24.85,142.93,24.33,143Z"/><path class="cls-2" d="M19.74,142.71h.07c.18,0,.37.05.55.08a18.22,18.22,0,0,0,4,.17,18.22,18.22,0,0,1-4-.17l-.55-.08Z"/><line class="cls-3" x1="26.52" y1="151.86" x2="21.5" y2="153.18"/><path class="cls-3" d="M25.19,149.41v0"/><path class="cls-3" d="M20.68,149.81h0"/><path class="cls-2" d="M25.19,149.41a7.23,7.23,0,0,1-3.46,0c-.44,0-.84,0-1.05.39l0,0c.39-.77,1.87-.15,2.52-.13A5.53,5.53,0,0,0,25.19,149.41Z"/><polygon class="cls-2" points="27.69 146.32 23.18 146.63 23.18 146.68 27.69 146.37 27.69 146.32"/><path class="cls-3" d="M24.72,160.13v0"/><path class="cls-2" d="M24.72,160.13a8.46,8.46,0,0,1-2.22.42A8.46,8.46,0,0,0,24.72,160.13Z"/><path class="cls-2" d="M20.23,160.38h.12a8.63,8.63,0,0,0,2.15.16,8.63,8.63,0,0,1-2.15-.16h-.12Z"/><path class="cls-3" d="M22.92,157.6v0l4.49-.67h0"/><path class="cls-3" d="M21,164.92v0"/><path class="cls-3" d="M25.12,165.05v0"/><path class="cls-2" d="M25.12,165.05c-1.15,1.2-2.8-.68-4.14-.13h0C22.31,164.41,24,166.25,25.12,165.05Z"/><polygon class="cls-2" points="27.32 162.95 24.05 163.18 24.05 163.22 27.32 163 27.32 162.95"/><path class="cls-3" d="M25.35,173.51h0"/><path class="cls-3" d="M21.48,173.46v0"/><path class="cls-2" d="M21.53,173.46a4,4,0,0,1,2.88-.32,4.09,4.09,0,0,0-2.93.32Z"/><path class="cls-2" d="M24.5,173.17a2.78,2.78,0,0,1,.38.12A2.78,2.78,0,0,0,24.5,173.17Z"/><path class="cls-2" d="M24.41,173.14l.09,0Z"/><path class="cls-2" d="M24.88,173.29a3.21,3.21,0,0,1,.46.22A3.21,3.21,0,0,0,24.88,173.29Z"/><polygon class="cls-2" points="27.12 170.77 27.07 170.78 23.03 171.13 23.03 171.17 27.07 170.82 27.12 170.82 27.12 170.77"/><path class="cls-2" d="M21,168.18v0a26,26,0,0,1,4.32-.06v0A27.1,27.1,0,0,0,21,168.18Z"/><path class="cls-3" d="M27.27,176.79h0"/><path class="cls-3" d="M23,176.73h0"/><path class="cls-2" d="M27.22,176.77c-1.29-1-3,.95-4.26,0,1.29,1,3-1,4.26,0l0,0Z"/><path class="cls-2" d="M21,179.53a38.34,38.34,0,0,0,4.53.54v0a36.4,36.4,0,0,1-4.52-.53Z"/><path class="cls-2" d="M212.87,47.86a.17.17,0,0,1,.28.12V48s0,0,0-.06c.07-.44.13-.89.18-1.34l-.12,0v0l.12,0a19.25,19.25,0,0,0,0-3.64c-.19-1.55-.77-2.94-1.06-4.42l-.27,0,.26-.06v0l-.28,0v0l.27,0a8.66,8.66,0,0,1-.12-.87c-.06-.65-.06-1.28-.07-1.9l-.34-.33a22,22,0,0,0,.14,3.14C212.44,41.78,213.26,44.5,212.87,47.86Z"/><path class="cls-2" d="M212.87,47.86a.17.17,0,0,0-.05.12h0c.13,3.12.86,6.13.71,9.26a25.46,25.46,0,0,0,1.12,8.58s0,0,0,0a.28.28,0,0,1,0-.09h0c0-.17.2-.14.28,0h0a30,30,0,0,1-1-9.52,17.15,17.15,0,0,0-.06-1.9h0v0h0c-.18-2.11-.64-4.17-.74-6.28V48A.17.17,0,0,0,212.87,47.86Z"/><path class="cls-2" d="M224.93,52a.16.16,0,0,1,.31,0v.05h0l.21-1.18-.28-.39c-.08.5-.15,1-.25,1.49Z"/><path class="cls-2" d="M224.93,52l0,0h0a17.67,17.67,0,0,0,.33,3.56c.45,2.76-.35,4.86-.49,7.53A9.09,9.09,0,0,0,225,65.4a31.8,31.8,0,0,1,.19,6.17s0,0,0,0c0-.19.31-.26.31-.07h0c.08-3.63-.4-7.35.07-10.89.4-3-.5-5.57-.39-8.54v-.05A.16.16,0,0,0,224.93,52Z"/><path class="cls-2" d="M216.57,99.21a.14.14,0,0,0,.1.13c0-.12,0-.24,0-.35a.17.17,0,0,1,.17-.16c-.48-4.48.12-9-.07-13.43l-.56-.08C216.38,90,216,94.55,216.57,99.21Z"/><path class="cls-2" d="M215.64,79.27a39,39,0,0,1,.6,6c.18,0,.37,0,.56.08,0-.73-.09-1.46-.17-2.19-.46-4.06-1.54-8-1.83-11.94l-.33,0A72.11,72.11,0,0,0,215.64,79.27Z"/><path class="cls-2" d="M214.69,65.77h0a.28.28,0,0,0,0,.09,23.71,23.71,0,0,0-.23,5.43l.33-.05a22.19,22.19,0,0,1,.21-5.38.21.21,0,0,0,0-.12C214.89,65.63,214.72,65.6,214.69,65.77Z"/><path class="cls-2" d="M216.7,99c0,.11,0,.23,0,.35-.7,7.51.78,14.92.19,22.44a.16.16,0,0,0,.32,0c.51-6.33-.45-12.53-.37-18.79l-.12,0h0l.1,0c0-1.33.08-2.66.21-4a.16.16,0,0,0-.15-.16A.17.17,0,0,0,216.7,99Z"/><path class="cls-2" d="M211.75,161a.18.18,0,0,1,.15-.1.19.19,0,0,1,.14.1,78.39,78.39,0,0,0,5.18-38.74c0-.21-.36-.21-.33,0h0a78.41,78.41,0,0,1-5.55,39.7.11.11,0,0,0,.06.16c.12-.38.24-.75.35-1.13Z"/><path class="cls-2" d="M209.69,174.47c-2.24-3.25,1.46-10.14,2.37-13.42,0,0,0-.05,0-.08a.19.19,0,0,0-.14-.1.18.18,0,0,0-.15.1h0c-.11.38-.23.75-.35,1.13-.82,2.72-1.82,5.39-2.45,8.15a5.1,5.1,0,0,0,.62,4.58v0C209.59,174.68,209.64,174.57,209.69,174.47Z"/><path class="cls-2" d="M209.81,175a.12.12,0,0,1-.07.07.17.17,0,0,0,.16-.17.36.36,0,0,1,0,.09Z"/><path class="cls-2" d="M218,153.18c0,.08-.05.17-.07.26,0-.09,0-.18.08-.27Z"/><path class="cls-2" d="M218,154.21a.16.16,0,0,1-.31-.05c-1.19,4.1-2.21,8.4-4.45,12-1.62,2.63-2.19,5.5-3.58,8.28-.05.1-.1.21-.16.32v0a.16.16,0,0,0,.21.19.12.12,0,0,0,.07-.07h.05a.36.36,0,0,0,0-.09,34.66,34.66,0,0,0,1.83-4.47,43,43,0,0,1,2.8-5.6c1.76-3.42,2.6-7.47,3.68-11.15l-.18.59Z"/><path class="cls-2" d="M222.22,134.72c0-.14.06-.27.08-.41a.16.16,0,0,0-.1.13A117.63,117.63,0,0,1,218,153.17c0,.09,0,.18-.08.27s-.14.46-.22.69v0a.16.16,0,0,0,.31.05h0l.18-.59a116.71,116.71,0,0,0,4.25-18.73A.18.18,0,0,1,222.22,134.72Z"/><path class="cls-2" d="M223.77,115.7c0,1.21-.07,2.43-.1,3.66l.05,0h0l-.05,0a79.35,79.35,0,0,1-1.37,15c0,.14-.05.27-.08.41a.18.18,0,0,0,.24.18.12.12,0,0,0,.08-.1c1.41-6.24,1.37-12.76,1.55-19.12a0,0,0,0,1,0,0h0A.16.16,0,0,1,223.77,115.7Z"/><path class="cls-2" d="M224.17,102.69c0-.33-.06-.65-.08-1,0,0,0,0,0,.08.42,2.49-.36,4.57-.68,7a19.11,19.11,0,0,0,.15,4.59h.05v0h0c.09.76.17,1.51.22,2.25a0,0,0,0,0,0,0,.16.16,0,0,0,.31,0h0c-.18-3.27-.45-5.88.19-9.14a13.36,13.36,0,0,0,.22-3.84C224.5,102.89,224.17,102.89,224.17,102.69Z"/><path class="cls-2" d="M224.85,79.74s0,0,0,0c.15,7.4-1.33,14.65-.75,22,0,.32,0,.64.08,1s.33.2.32,0h0c-.78-7.66.83-15.28.68-23h0A.16.16,0,0,1,224.85,79.74Z"/><path class="cls-2" d="M225.25,71.59s0,0,0,0c.59,2.79-1.24,5.32-.4,8.09,0,0,0,0,0,0a.16.16,0,0,0,.31,0s0,0,0,0c-.86-2.8,1-5.34.39-8.13h0C225.56,71.33,225.24,71.4,225.25,71.59Z"/><path class="cls-3" d="M212,38.57v0"/><path class="cls-2" d="M212.32,38.54l-.26.06.27,0,2.32-.3,0,0-1.8.24Z"/><path class="cls-2" d="M212,38.55l.28,0,.49-.06c.57-.12,1.15-.22,1.72-.32l0,0c-.73.12-1.45.25-2.18.41Z"/><path class="cls-3" d="M213.25,46.68v0"/><path class="cls-2" d="M213.37,46.62l-.12,0,.12,0c2.66-.88,5.51-.06,8.21-.66h0C218.88,46.57,216,45.74,213.37,46.62Z"/><path class="cls-3" d="M213.88,54.33v0"/><path class="cls-2" d="M219.39,54.21c.62,0,1.25-.06,1.88-.05A7.36,7.36,0,0,0,219.39,54.21Z"/><path class="cls-2" d="M219.39,54.21c-.69,0-1.37.13-2,.24a9.41,9.41,0,0,1-1.88-.28,8.93,8.93,0,0,0,1.62.29A15.24,15.24,0,0,0,219.39,54.21Z"/><path class="cls-2" d="M213.89,54.31h0a2.25,2.25,0,0,1,1.55-.13,2.11,2.11,0,0,0-1.57.14h0Z"/><path class="cls-3" d="M218.8,51h0"/><path class="cls-2" d="M223.34,50.48c-1.61.64-2.81,1.26-4.54.51a4.08,4.08,0,0,0,2.31.35c1.35-.21,2.42-1.18,3.8-1.14h0A3.34,3.34,0,0,0,223.34,50.48Z"/><path class="cls-2" d="M220.37,64a24.55,24.55,0,0,0-5.35-.1V64a24.55,24.55,0,0,1,5.35.1Z"/><path class="cls-2" d="M222.27,60.17c-.94.39-1.88,1-2.87.71C220.41,61.16,221.34,60.56,222.27,60.17Z"/><path class="cls-2" d="M223.83,59.9a2.69,2.69,0,0,0-1.56.27A2.76,2.76,0,0,1,223.83,59.9Z"/><path class="cls-2" d="M224.47,60.15h0a2,2,0,0,0-.65-.25,1.84,1.84,0,0,1,.63.25Z"/><path class="cls-3" d="M225.09,67.1h0"/><path class="cls-3" d="M219.78,67h0"/><path class="cls-2" d="M225.09,67.1h0c-1.37-1-3,.49-4.35.33C222.13,67.6,223.72,66.15,225.09,67.1Z"/><path class="cls-2" d="M220.73,67.42a1.62,1.62,0,0,1-.93-.43A1.53,1.53,0,0,0,220.73,67.42Z"/><path class="cls-2" d="M220.14,48.08l3-.15,0,0-3,.15Z"/><path class="cls-2" d="M221.94,70.48c3.17-.27,0,0,0,0-2.11.18-4.23.41-6.34.7l0,.05C217.73,70.89,219.83,70.66,221.94,70.48Z"/><path class="cls-2" d="M214.47,71.31l.33,0a6.13,6.13,0,0,0,.8-.13l-.8.11-.33.05C214.05,71.35,214.18,71.34,214.47,71.31Z"/><path class="cls-2" d="M220.12,75.27a9.33,9.33,0,0,1,2.89-1.2A9.09,9.09,0,0,0,220.12,75.27Z"/><path class="cls-2" d="M224.85,74.22h0a3.68,3.68,0,0,0-1.88-.15A3.64,3.64,0,0,1,224.85,74.22Z"/><path class="cls-3" d="M216,78.07h0"/><path class="cls-2" d="M216,78.07h0a1.32,1.32,0,0,0,1.14.22A1.41,1.41,0,0,1,216,78.07Z"/><path class="cls-2" d="M221.9,77.42a7,7,0,0,0-2.5.09,3.42,3.42,0,0,0-.54.18A8,8,0,0,1,221.9,77.42Z"/><path class="cls-2" d="M217.82,78.06a6,6,0,0,1-.72.23,8.91,8.91,0,0,0,1.76-.6A8.06,8.06,0,0,0,217.82,78.06Z"/><path class="cls-3" d="M224.19,78.74v0"/><path class="cls-2" d="M224.19,78.7A22.51,22.51,0,0,1,219,80v0a21.91,21.91,0,0,0,5.23-1.31Z"/><path class="cls-3" d="M222.33,85.37v0"/><path class="cls-2" d="M216.2,85.31h0l.56.08a19,19,0,0,0,4,.17,18.38,18.38,0,0,1-4-.18c-.19,0-.38,0-.56-.08Z"/><path class="cls-2" d="M220.79,85.57c.52,0,1-.1,1.54-.18C221.82,85.47,221.31,85.53,220.79,85.57Z"/><line class="cls-3" x1="222.98" y1="94.46" x2="217.96" y2="95.77"/><path class="cls-3" d="M217.15,92.39v0"/><path class="cls-3" d="M221.66,92v0"/><path class="cls-2" d="M219.69,92.29a5.47,5.47,0,0,0,2-.28,7.19,7.19,0,0,1-3.45,0,1,1,0,0,0-1.06.38l0,0C217.56,91.65,219.05,92.26,219.69,92.29Z"/><path class="cls-3" d="M219.64,89.25v0l4.51-.31v0"/><path class="cls-3" d="M221.18,102.71v0"/><path class="cls-2" d="M221.18,102.73a8.45,8.45,0,0,1-2.23.42A8.45,8.45,0,0,0,221.18,102.73Z"/><path class="cls-2" d="M216.69,103l.12,0a8.59,8.59,0,0,0,2.14.16,8.59,8.59,0,0,1-2.14-.16l-.1,0Z"/><path class="cls-3" d="M223.86,99.49v0l-4.49.67v0"/><path class="cls-3" d="M217.43,107.53h0"/><path class="cls-3" d="M221.58,107.65v0"/><path class="cls-2" d="M221.58,107.65c-1.15,1.21-2.8-.67-4.15-.13h0C218.77,107,220.43,108.86,221.58,107.65Z"/><path class="cls-2" d="M223.78,105.58v0l-3.27.23v0l3.27-.22Z"/><path class="cls-3" d="M217.94,116.06v0"/><path class="cls-3" d="M221.81,116.1h0"/><path class="cls-2" d="M218,116.06a4,4,0,0,1,3.36-.17,4.08,4.08,0,0,0-3.4.17Z"/><path class="cls-2" d="M221.34,115.89a3.68,3.68,0,0,1,.45.21A3.68,3.68,0,0,0,221.34,115.89Z"/><polygon class="cls-2" points="223.58 113.37 223.53 113.37 219.49 113.72 219.49 113.77 223.54 113.42 223.58 113.42 223.58 113.37"/><path class="cls-2" d="M217.47,110.75v0a27.1,27.1,0,0,1,4.32-.07v0A27.1,27.1,0,0,0,217.47,110.75Z"/><path class="cls-3" d="M223.74,119.39h0"/><path class="cls-3" d="M219.43,119.33h0"/><path class="cls-2" d="M223.67,119.36c-1.28-1-2.95,1-4.24,0,1.29,1,3-1,4.24,0l.05,0Z"/><path class="cls-2" d="M217.46,122.13a38.34,38.34,0,0,0,4.53.54v0a38.4,38.4,0,0,1-4.52-.53Z"/><path class="cls-2" d="M139.06,182.39l.06.15c1.11-.33,2.12-.93,3.22-1.26l-.06-.17c-.05-.12.05-.19.15-.19h0c-1.21.34-2.3,1-3.5,1.37h0A.17.17,0,0,1,139.06,182.39Z"/><path class="cls-2" d="M142.28,181.11l.06.17q7.31,20,12.82,40.5a.16.16,0,0,0,.22.07.15.15,0,0,0,.09-.16q-1.47-5.5-3.08-11c-.09,0-.19,0-.19-.09,0-.36-.11-.71-.16-1.07q-4.28-14.4-9.44-28.54a.18.18,0,0,0-.17-.1C142.33,180.92,142.23,181,142.28,181.11Z"/><path class="cls-2" d="M143.72,182.78l1-.26a.18.18,0,0,0,.07-.23.17.17,0,0,0-.16-.09l-1,.26a.18.18,0,0,0-.07.23A.17.17,0,0,0,143.72,182.78Z"/><path class="cls-2" d="M145.12,182.11a.15.15,0,0,0,.16-.09l.17-.62a.16.16,0,0,0-.16-.18.19.19,0,0,0-.15.09l-.18.63A.17.17,0,0,0,145.12,182.11Z"/><path class="cls-2" d="M145.48,180.78h-.2c-.21,0-.22.34,0,.33h.2a.15.15,0,0,0,.07,0v-.27S145.52,180.78,145.48,180.78Z"/><path class="cls-2" d="M152.39,210.72a.16.16,0,0,0,.12-.18A177,177,0,0,0,146,181.15a.14.14,0,0,0-.1-.1s0,0,0,.07a.15.15,0,0,1-.12.12.14.14,0,0,1-.09,0h0A177.2,177.2,0,0,1,152,209.56c.05.36.11.71.16,1.07C152.2,210.74,152.3,210.76,152.39,210.72Z"/><path class="cls-2" d="M145.87,181.12s0-.05,0-.07c0-1.37.06-2.74.18-4.1H146a.17.17,0,0,1-.19-.2l0,0c-.12,1.34-.18,2.67-.19,4v.31a.15.15,0,0,0,.11.11.14.14,0,0,0,.09,0A.15.15,0,0,0,145.87,181.12Z"/><path class="cls-2" d="M149.1,176.37a.12.12,0,0,1,.05,0Z"/><path class="cls-2" d="M146,177h.1c.95-.13,1.91-.15,2.86-.27l0-.14a.18.18,0,0,1,.09-.16.2.2,0,0,1,.13,0,.16.16,0,0,0-.1,0c-1,.14-2.09.14-3.13.29-.07,0-.1.06-.1.12A.17.17,0,0,0,146,177Z"/><path class="cls-2" d="M156.6,203a.15.15,0,0,1-.16.16c3.76,13.2,7.4,26.45,10.37,39.84l.32-.12c-3-13.63-6.72-27.13-10.57-40.59C156.58,202.48,156.59,202.71,156.6,203Z"/><path class="cls-2" d="M148.88,176.54l0,.14c2.38,8.59,4.88,17.17,7.33,25.76,0-.54-.06-1.09-.1-1.64-2.32-8.12-4.68-16.23-7-24.34a.1.1,0,0,0,0,0,.12.12,0,0,0-.05,0h0a.2.2,0,0,0-.13,0A.18.18,0,0,0,148.88,176.54Z"/><path class="cls-2" d="M151.57,183.43l1.21-.47a.18.18,0,0,0,.07-.27l-.07,0a.13.13,0,0,0-.09,0l-1.2.48C151.29,183.19,151.38,183.51,151.57,183.43Z"/><path class="cls-2" d="M152.85,182.69s0,0,.06,0a.18.18,0,0,0,.16-.09l.16-.63a.15.15,0,0,0-.16-.17.16.16,0,0,0-.15.09l-.17.63a.19.19,0,0,0,0,.1Z"/><path class="cls-2" d="M154.49,182.32h0a.13.13,0,0,0-.07-.15A.17.17,0,0,1,154.49,182.32Z"/><path class="cls-2" d="M154.18,182.24a.14.14,0,0,1,.06-.1.83.83,0,0,1-.62-.31c-.13-.16-.37.07-.24.23h0a1.07,1.07,0,0,0,.77.4c0-.07,0-.15,0-.22Z"/><path class="cls-2" d="M156.28,203a.16.16,0,0,0,.16.16.15.15,0,0,0,.16-.16c0-.24,0-.47,0-.71-.18-3.49-.46-6.93-.89-10.38-.37-3-1.71-6.59-1.18-9.53h0a.17.17,0,0,0-.07-.14.16.16,0,0,0-.18,0,.14.14,0,0,0-.06.1h0c0,.07,0,.15,0,.22-.38,2.53.64,5.33,1,7.85.47,3.49.8,7,1,10.49,0,.55.07,1.1.1,1.64Z"/><path class="cls-2" d="M139.12,182.54l-.06-.15a.17.17,0,0,0-.18-.11c-.09,0-.18.08-.14.19,4.44,11.12,7.31,23,10.72,34.43,2.84,9.54,6.13,19.1,8.36,28.84l.32-.09c-2.23-9.74-5.52-19.29-8.36-28.83C146.39,205.4,143.52,193.58,139.12,182.54Z"/><path class="cls-2" d="M119.11,18.09a.12.12,0,0,1,.09.11v.32l0,0a.14.14,0,0,0,.14-.14c0-5.94,0-11.85.18-17.73h-.31C119.12,6.47,119.1,12.27,119.11,18.09Z"/><path class="cls-2" d="M111.53,21.7c0,.18.24.26.27.08a43.1,43.1,0,0,0-.31-16c0-.18-.31-.1-.27.07A42.52,42.52,0,0,1,111.53,21.7Z"/><path class="cls-2" d="M119.11,18.09a.12.12,0,0,0-.19.11l.19,3.31c0,.18.29.18.28,0l-.18-3V18.2A.12.12,0,0,0,119.11,18.09Z"/><path class="cls-2" d="M100.87,27.7h0c5.87-7.76,29.53-7.69,27,6.11,0,.17.23.25.27.07,2.56-13.89-21.21-14.64-27.5-6.32C100.52,27.7,100.76,27.84,100.87,27.7Z"/><path class="cls-2" d="M96.55,55.13h0a.11.11,0,0,0,0-.11c-2.29-4.46-1.14-9.24-.56-14a30.76,30.76,0,0,1,2.33-8.76s0,0,0,0a31.56,31.56,0,0,1,2.27-4.3.14.14,0,1,0-.24-.14l0-.07A30.73,30.73,0,0,0,95.71,41c-.58,5-1.76,9.59.6,14.17a.13.13,0,0,0,.24,0Z"/><path class="cls-2" d="M96.55,55.14c1.4,6.92,6.81,11.76,10,17.86.09.16.33,0,.25-.14-3.14-6.08-8.54-10.88-9.93-17.8,0-.18-.31-.1-.27.07h0Z"/><path class="cls-2" d="M110.48,104.14a76.75,76.75,0,0,0,3.25,12.77.14.14,0,0,0,.27,0s0-.09,0-.14A85,85,0,0,1,110.48,104.14Z"/><path class="cls-2" d="M110.26,92.08c-.28-3.68-.94-7.28-1.13-11a14.33,14.33,0,0,0-2.28-7.77c-.1-.15-.35,0-.24.14h0c2.49,3.66,2.11,7.74,2.37,11.91.21,3.28,1,6.31.93,9.63a53.34,53.34,0,0,0,.23,6.26C109.9,98.19,110.5,95.14,110.26,92.08Z"/><path class="cls-2" d="M110.15,101.65c0,.56.12,1.12.2,1.67-.09-.67-.16-1.36-.23-2C110.13,101.4,110.13,101.52,110.15,101.65Z"/><path class="cls-2" d="M110.48,104.14c0-.23-.08-.46-.11-.7C110.4,103.68,110.44,103.91,110.48,104.14Z"/><path class="cls-2" d="M110.37,103.44s0-.08,0-.12S110.36,103.4,110.37,103.44Z"/><path class="cls-2" d="M114.82,70.63c-.12.16-.25.32-.36.48h0a.14.14,0,0,1-.14.06C111.5,77.67,111.64,84,112,91q.69,12.92,2,25.79s0,.09,0,.14l0,.38c0,.18.3.18.28,0h0q-1.11-11.39-1.8-22.79c-.49-8.24-1.24-16.08,2.32-23.81C114.83,70.67,114.82,70.65,114.82,70.63Z"/><path class="cls-2" d="M114.45,71.1h0c.11-.16.24-.32.36-.48C117.5,66.9,121,64,123.88,60.42c2.53-3.17,3.91-6.79,5.15-10.58a.13.13,0,0,1,0-.21,1,1,0,0,0,.15-.14c0-.12.08-.23.11-.34s-.21-.24-.27-.08a44.23,44.23,0,0,1-3.13,7.58h0a.11.11,0,0,1-.06.1,27.62,27.62,0,0,1-2.69,4.08h0c.16.08,0,.32-.14.24l-.08,0c-.36.45-.74.9-1.15,1.34-2.59,2.8-5.39,5.39-7.57,8.57-.07.1,0,.18.1.2A.14.14,0,0,0,114.45,71.1Z"/><path class="cls-2" d="M128.13,34.3h0a5.41,5.41,0,0,1,1.74,6c-.06.16.21.24.27.07a5.68,5.68,0,0,0-1.8-6.27C128.19,34,128,34.19,128.13,34.3Z"/><path class="cls-2" d="M129,49.84a.14.14,0,0,0,.17,0c2.61-2.32,1.7-5.83.71-8.71-.06-.17-.33-.1-.27.07v0c.92,2.74,1.87,6-.49,8.26a1,1,0,0,1-.15.14A.13.13,0,0,0,129,49.84Z"/><path class="cls-2" d="M104.24,42.11a.14.14,0,1,0,0,.28,125,125,0,0,1,13.55.37.14.14,0,0,0,0-.28A125,125,0,0,0,104.24,42.11Z"/><path class="cls-2" d="M99.77,51.3c-.15.1,0,.34.14.24v0c2.3-1.54,4.67-.7,7.15-.43a29.26,29.26,0,0,0,6.61-.24c.18,0,.18-.3,0-.28a40,40,0,0,1-9.34-.19A6.35,6.35,0,0,0,99.77,51.3Z"/><path class="cls-2" d="M97.18,55.55c-.18,0-.18.3,0,.29a24.44,24.44,0,0,1,7.14.33c.18,0,.25-.23.07-.27A24.9,24.9,0,0,0,97.18,55.55Z"/><path class="cls-2" d="M109.23,67.78a40.5,40.5,0,0,1,4.67.28.14.14,0,0,0,0-.28,38.44,38.44,0,0,0-6.07-.24,6.35,6.35,0,0,0-3.54.8c-.15.1,0,.34.14.24h0C105.76,67.64,107.66,67.78,109.23,67.78Z"/><path class="cls-2" d="M127.32,33.32,118,31.23c-.18,0-.25.23-.07.27l9.33,2.09C127.42,33.59,127.5,33.36,127.32,33.32Z"/><path class="cls-2" d="M120.24,39a.14.14,0,0,0,0,.28A32,32,0,0,1,129.58,41c.17.06.24-.22.07-.27h0A31.67,31.67,0,0,0,120.24,39Z"/><path class="cls-2" d="M98.48,32.45h0Z"/><path class="cls-2" d="M98.32,32.26a.13.13,0,0,0,.14.19,19.3,19.3,0,0,1,11.19.08.14.14,0,0,0,.17-.1.13.13,0,0,0-.09-.17,19.66,19.66,0,0,0-11.32-.08.12.12,0,0,0-.08.06S98.33,32.26,98.32,32.26Z"/><path class="cls-2" d="M124.32,48.44l-5.79-.14a.14.14,0,0,0,0,.28l5,.12a14.8,14.8,0,0,1,5.23.51c.16.07.24-.2.07-.27h0A13.14,13.14,0,0,0,124.32,48.44Z"/><path class="cls-2" d="M125.86,56.65h0a.14.14,0,0,0-.14-.14l-8.83-.06a.14.14,0,1,0,0,.28l8.83.06a.12.12,0,0,0,.08,0A.11.11,0,0,0,125.86,56.65Z"/><path class="cls-2" d="M123.15,60.83h0a8.58,8.58,0,0,0-3.92-.47l-6.4.11a.14.14,0,0,0-.14.14.14.14,0,0,0,.14.14l4.89-.09c1.68,0,3.68-.32,5.25.39l.08,0C123.16,61.15,123.31,60.91,123.15,60.83Z"/><path class="cls-2" d="M197.68,47l3.53.84c.18,0,.26-.22.08-.27l-3.61-.86a.09.09,0,0,1,0,.07Z"/><path class="cls-2" d="M188.06,157.32a.12.12,0,0,1,.09.12l0,.32h0a.14.14,0,0,0,.14-.14c-.06-19.13.43-37.94,4.08-56.78,3.42-17.75,7-35.28,9.27-53.23a.14.14,0,0,0-.28,0v0C199,66.7,195,85.33,191.5,104.19,188.29,121.77,188,139.47,188.06,157.32Z"/><path class="cls-2" d="M184.2,127.7v0c-.06.17.21.24.27.07,4.47-12.88,3.43-26.73,6.38-39.94,3-13.53,5.14-27.06,6.84-40.86l0-.22a.09.09,0,0,0,0-.07.14.14,0,0,0-.25.07v0c-1.77,14.41-4.25,28.44-7.23,42.62-2.62,12.51-1.75,25.54-5.84,37.75l.09.39C184.48,127.75,184.25,127.81,184.2,127.7Z"/><path class="cls-2" d="M184.18,127.67s0,0,0,0,.28,0,.25-.11l-.09-.39-9-38.66C172.41,76,170.17,62.94,166,50.72c-.06-.17-.33-.1-.27.07C169.92,63,172.16,76,175.08,88.61Z"/><path class="cls-2" d="M163.3,51a4.06,4.06,0,0,0,2.36-.75c.15-.1,0-.35-.14-.24a3.81,3.81,0,0,1-2.22.71.14.14,0,0,0-.14.14A.14.14,0,0,0,163.3,51Z"/><path class="cls-2" d="M180.45,145l0,.18a.12.12,0,0,0,0-.09,532.88,532.88,0,0,0-17.42-94.32.16.16,0,0,0-.18-.1.14.14,0,0,0-.09.17A532.3,532.3,0,0,1,180.22,145C180.29,144.92,180.45,144.92,180.45,145Z"/><polygon class="cls-2" points="162.81 50.89 162.81 50.88 162.81 50.88 162.81 50.89"/><path class="cls-2" d="M180.22,145a.13.13,0,0,0-.05.12,42.51,42.51,0,0,1,.31,15.82c0,.17.25.25.27.07a43,43,0,0,0-.27-15.79l0-.18C180.45,144.92,180.29,144.92,180.22,145Z"/><path class="cls-2" d="M188.06,157.32c-.09,0-.2,0-.19.12l.2,3.3a.14.14,0,0,0,.28,0l-.18-3,0-.32A.12.12,0,0,0,188.06,157.32Z"/><path class="cls-2" d="M197.08,173.11c2.56-13.88-21.22-14.64-27.5-6.32-.12.14.13.28.24.14,5.86-7.76,29.53-7.68,27,6.11C196.81,173.22,197,173.29,197.08,173.11Z"/><path class="cls-2" d="M165.5,194.38s0,0,0,0a.08.08,0,0,0,0-.08c-2.28-4.47-1.14-9.25-.56-14a30.69,30.69,0,0,1,2.33-8.75s0,0,0,0a29.84,29.84,0,0,1,2.27-4.29c.09-.15-.15-.29-.25-.14l0-.07a30.73,30.73,0,0,0-4.67,13.26c-.58,5-1.75,9.59.6,14.18.06.11.19.06.24,0h0Z"/><path class="cls-2" d="M165.77,194.3c0-.16-.25-.1-.26,0s0,0,0,0h0c1.4,6.92,6.8,11.76,10,17.85.08.16.33,0,.24-.14C172.56,206,167.17,201.22,165.77,194.3Z"/><path class="cls-2" d="M179.21,231.31c-.28-3.68-.93-7.27-1.13-11a14.19,14.19,0,0,0-2.28-7.77c-.1-.15-.34,0-.24.14h0c2.5,3.66,2.11,7.74,2.37,11.92.21,3.27,1,6.31.94,9.62,0,1.27,0,2.5.05,3.71l.15-.07A55.44,55.44,0,0,0,179.21,231.31Z"/><path class="cls-2" d="M183.53,209.79h0l0,0Z"/><path class="cls-2" d="M183.73,210l-.28.38h0a.14.14,0,0,1-.19.05c-2.8,6.49-2.65,12.79-2.27,19.79.11,2.17.24,4.35.38,6.52l.29-.14c-.06-1-.14-1.91-.2-2.87C181,225.52,180.22,217.71,183.73,210Z"/><path class="cls-2" d="M183.44,210.38h0l.28-.38c2.69-3.78,6.27-6.69,9.14-10.31,2.54-3.18,3.92-6.82,5.17-10.63a.14.14,0,0,1-.09-.23l.25-.24a1.09,1.09,0,0,1,.05-.17c.06-.17-.21-.24-.27-.08a35.49,35.49,0,0,1-5.85,11.73.14.14,0,0,1-.17.21h0c-.38.46-.77.92-1.19,1.38a86.9,86.9,0,0,0-7.23,8.1l0,0c-.11.15-.22.29-.32.44a.13.13,0,0,0,.05.19A.14.14,0,0,0,183.44,210.38Z"/><path class="cls-2" d="M197.28,173.35c-.14-.11-.33.08-.19.19h0a5.43,5.43,0,0,1,1.73,6c-.05.17.22.24.27.07A5.66,5.66,0,0,0,197.28,173.35Z"/><path class="cls-2" d="M198,189.07a.11.11,0,0,0,.11,0c2.62-2.32,1.7-5.83.71-8.72-.06-.16-.33-.09-.27.08v0c.9,2.7,1.84,5.93-.4,8.16l-.25.24A.14.14,0,0,0,198,189.07Z"/><path class="cls-2" d="M186.75,181.72a125.07,125.07,0,0,0-13.55-.38.14.14,0,0,0-.14.14.14.14,0,0,0,.14.14,125.07,125.07,0,0,1,13.55.38A.14.14,0,0,0,186.75,181.72Z"/><path class="cls-2" d="M182.6,189.76a40,40,0,0,1-9.34-.18,6.27,6.27,0,0,0-4.54.93c-.15.1,0,.35.14.24v0c2.29-1.54,4.67-.7,7.14-.43a29.83,29.83,0,0,0,6.61-.25C182.78,190,182.78,189.75,182.6,189.76Z"/><path class="cls-2" d="M166.13,195.08a24.44,24.44,0,0,1,7.14.33c.18,0,.26-.23.08-.27a25,25,0,0,0-7.22-.34C166,194.8,166,195.1,166.13,195.08Z"/><path class="cls-2" d="M176.78,206.77a6.4,6.4,0,0,0-3.54.8c-.15.11,0,.35.14.25h0c1.35-.94,3.26-.8,4.83-.8a42.87,42.87,0,0,1,4.67.28c.17,0,.17-.26,0-.28A39.77,39.77,0,0,0,176.78,206.77Z"/><path class="cls-2" d="M196.27,172.56l-9.33-2.09c-.18,0-.26.24-.08.27l9.34,2.09C196.38,172.83,196.45,172.6,196.27,172.56Z"/><path class="cls-2" d="M198.58,179.93h.06a32.24,32.24,0,0,0-9.47-1.72.14.14,0,0,0,0,.28,32,32,0,0,1,9.34,1.71C198.67,180.26,198.75,180,198.58,179.93Z"/><path class="cls-2" d="M167.44,171.69h0Z"/><path class="cls-2" d="M167.27,171.51s0,.05,0,.08a.14.14,0,0,0,.15.09,19.42,19.42,0,0,1,11.2.08.14.14,0,0,0,.17-.1.15.15,0,0,0-.1-.17,19.74,19.74,0,0,0-11.32-.08s-.05,0-.07.06S167.28,171.49,167.27,171.51Z"/><path class="cls-2" d="M197.8,188.18h0a13.33,13.33,0,0,0-4.53-.51l-5.79-.14a.14.14,0,0,0-.14.14.14.14,0,0,0,.14.14l5,.12a14.56,14.56,0,0,1,5.23.52C197.89,188.51,198,188.24,197.8,188.18Z"/><path class="cls-2" d="M194.68,195.74l-8.84-.05a.14.14,0,0,0-.14.14.16.16,0,0,0,.14.14l8.84.05a.14.14,0,0,0,.14-.14A.15.15,0,0,0,194.68,195.74Z"/><path class="cls-2" d="M192.13,200.08s0,0,0,0h0a8.34,8.34,0,0,0-4-.48l-6.4.1a.15.15,0,0,0-.14.14.14.14,0,0,0,.14.14l4.9-.08c1.7,0,3.73-.34,5.32.41h0A.14.14,0,0,0,192.13,200.08Z"/><circle class="cls-4" cx="125.03" cy="125.03" r="124.53"/></g></g></svg>