<svg id="Layer_1" data-name="Layer 1" xmlns="http://www.w3.org/2000/svg" xmlns:xlink="http://www.w3.org/1999/xlink" viewBox="0 0 326.55 626.75">
  <defs>
    <style>
      .cls-1,
      .cls-4 {
        fill: none;
      }
      .cls-2 {
        clip-path: url("#clip-path");
      }
      .cls-3 {
        fill: #6d6e71;
      }
      .cls-4 {
        stroke-miterlimit: 10;
        stroke: url("#linear-gradient");
      }
    </style>
    <clipPath id="clip-path" transform="translate(-134.35 15.33)">
      <circle class="cls-1" cx="280.59" cy="278.01" r="133.59"/>
    </clipPath>
    <linearGradient id="linear-gradient" x1="12.14" y1="293.34" x2="280.33" y2="293.34" gradientUnits="userSpaceOnUse">
      <stop offset="0" stop-color="#637d37"/>
      <stop offset="1" stop-color="#dece25"/>
    </linearGradient>
  </defs>
  <title>vegetales</title>
  <g class="cls-2">
    <path class="cls-3" d="M375.15,352.44a38.93,38.93,0,0,0,5.72,0c.48,0,.48-.79,0-.75a38.93,38.93,0,0,1-5.72,0c-.48,0-.48.72,0,.75Z" transform="translate(-134.35 15.33)"/>
    <path class="cls-3" d="M398.67,354a10.66,10.66,0,0,1,5.5-.24c.47.1.67-.62.2-.72a11.46,11.46,0,0,0-5.9.24c-.46.14-.26.87.2.72Z" transform="translate(-134.35 15.33)"/>
    <path class="cls-3" d="M346.74,366.91c3,17.31,8.64,33.93,13.22,50.85s7.3,34.5,10.38,51.86c.06.32.54.18.48-.13-3.07-17.36-5.76-34.82-10.38-51.86s-10.23-33.54-13.22-50.85c-.05-.32-.54-.18-.48.13Z" transform="translate(-134.35 15.33)"/>
    <path
    class="cls-3"
    d="M347.74,366.34l3.9,2.48.74,2.83q.62,2.36,1.25,4.71,1.13,4.24,2.28,8.47,2.44,8.93,5,17.83,5.1,17.8,10.64,35.47c.1.31.58.18.48-.13q-7.42-23.72-14.07-47.66-1.69-6.1-3.33-12.22c-.89-3.33-1.37-7.36-2.8-10.5-.93-2-2.55-3.39-4.42-1.62-.23.22.12.57.35.35Z"
    transform="translate(-134.35 15.33)"/>
    <path class="cls-3" d="M361.22,362.24q5.15,38.46,11,76.82c0,.32.53.18.48-.13q-5.89-38.29-11-76.69c0-.31-.54-.32-.5,0Z" transform="translate(-134.35 15.33)"/>
    <path class="cls-3" d="M362.14,361.34l4.19,0a.25.25,0,0,0,0-.5l-4.19,0a.25.25,0,0,0,0,.5Z" transform="translate(-134.35 15.33)"/>
    <path
    class="cls-3"
    d="M366,361.62c2.07,4.49,1.4,9.36,1.92,14.14.38,3.47,1.07,6.9,1.68,10.34l4.28,24.07c.06.32.54.18.48-.13q-2.3-13-4.61-25.92a110.31,110.31,0,0,1-1.66-14.56,20.76,20.76,0,0,0-1.67-8.18c-.13-.29-.57,0-.43.25Z"
    transform="translate(-134.35 15.33)"/>
    <path class="cls-3" d="M374.35,353.42c.32,9.38-.75,18.76-.38,28.19s.86,19.09-.1,28.64c0,.32.47.32.5,0,1-9.55.47-19.08.1-28.64s.7-18.81.38-28.19c0-.32-.51-.32-.5,0Z" transform="translate(-134.35 15.33)"/>
    <path class="cls-3" d="M374.77,353.42a42,42,0,0,0,5.72,0c.32,0,.32-.52,0-.5a42,42,0,0,1-5.72,0c-.32,0-.32.48,0,.5Z" transform="translate(-134.35 15.33)"/>
    <path class="cls-3" d="M380.78,353.36q.5,4.82.82,9.66c0,.32.52.32.5,0q-.32-4.84-.82-9.66c0-.32-.53-.32-.5,0Z" transform="translate(-134.35 15.33)"/>
    <path class="cls-3" d="M381.78,363.73l1.77.38c.31.07.45-.42.13-.48l-1.77-.38c-.31-.07-.45.42-.13.48Z" transform="translate(-134.35 15.33)"/>
    <path class="cls-3" d="M384.46,364.37c3,26.42-.18,53,2.42,79.49,0,.32.53.32.5,0-2.59-26.44.59-53.07-2.42-79.49,0-.32-.54-.32-.5,0Z" transform="translate(-134.35 15.33)"/>
    <path class="cls-3" d="M373.83,410.59a134.14,134.14,0,0,1,1.5,15.93c0,.32.51.32.5,0a135.28,135.28,0,0,0-1.52-16.06c0-.32-.53-.18-.48.13Z" transform="translate(-134.35 15.33)"/>
    <path class="cls-3" d="M372.86,441l3.72,21.18c.06.32.54.18.48-.13l-3.72-21.18c-.06-.32-.54-.18-.48.13Z" transform="translate(-134.35 15.33)"/>
    <path class="cls-3" d="M373,440.75l0-.66c0-.32-.52-.32-.5,0l0,.66c0,.32.52.32.5,0Z" transform="translate(-134.35 15.33)"/>
    <path class="cls-3" d="M381.26,363.9q.26,47.77,3.58,95.44c0,.32.52.32.5,0q-3.32-47.65-3.58-95.44a.25.25,0,0,0-.5,0Z" transform="translate(-134.35 15.33)"/>
    <path class="cls-3" d="M397.64,355.6c-3.41,30-4,60.39-10.93,89.89-.07.31.41.45.48.13,7-29.54,7.54-60,10.95-90,0-.32-.46-.32-.5,0Z" transform="translate(-134.35 15.33)"/>
    <path class="cls-3" d="M397.74,354.76a22.5,22.5,0,0,0,6.23-.17c.32-.05.18-.53-.13-.48a22,22,0,0,1-6.1.15c-.32,0-.32.46,0,.5Z" transform="translate(-134.35 15.33)"/>
    <path class="cls-3" d="M403.36,355.78c-3,38.17-4,77.32-12.79,114.72-.07.31.41.45.48.13,8.77-37.46,9.78-76.63,12.81-114.85,0-.32-.47-.32-.5,0Z" transform="translate(-134.35 15.33)"/>
    <path
    class="cls-3"
    d="M371.95,611.27c1.16-6.19-.13-12.41-.73-18.61-.72-7.42-1.41-14.85-1.84-22.29a147.2,147.2,0,0,1,0-20.32c.63-7.89,1.45-17.88,8.82-22.58,9.29-5.93,21.83-6.15,27.24-17,4.05-8.17,4.25-20.17.89-28.65-3.76-9.53-12.53-10.58-21.57-11.67-3.33-.4-6.68-1.56-10.06-1.5-2.92.05-5.85,1-8.73,1.41-4.91.65-8.93,1.28-12.78,4.7-13.69,12.2-9.11,35.74,4.54,45.94,4.49,3.36,9.65,5.29,8.61,12.21-.44,2.9-1,5.77-1.28,8.69a149.92,149.92,0,0,0-.65,23.35c.71,15.27,2.11,31.37,7.35,45.83.09.24.47.14.39-.11-4.41-12.16-5.8-25.17-6.83-38-1.05-13-1-26.09,1.29-39,1.61-9.16-6.15-10.44-11.76-16-7.78-7.73-11.33-19.78-8.53-30.44,1.43-5.44,4.57-10.78,9.37-13.89,3.28-2.12,6.55-2.37,10.28-2.89,3.48-.48,6.89-1.49,10.41-1.25A147.7,147.7,0,0,1,392,471.36c7,1.27,12.21,5,14.44,11.92,3.68,11.36,2.36,28.68-9,35.22-7.6,4.38-19.3,5.36-24.23,13.43-5.94,9.73-4.92,24.68-4.42,35.54.32,6.91.94,13.81,1.57,20.69.69,7.49,2.57,15.54,1.17,23,0,.25.34.36.39.11Z"
    transform="translate(-134.35 15.33)"/>
    <path class="cls-3" d="M205.3,167.39a38.93,38.93,0,0,0,5.72,0c.48,0,.48-.79,0-.75a38.93,38.93,0,0,1-5.72,0c-.48,0-.48.72,0,.75Z" transform="translate(-134.35 15.33)"/>
    <path class="cls-3" d="M228.82,169a10.66,10.66,0,0,1,5.5-.24c.47.1.67-.62.2-.72a11.46,11.46,0,0,0-5.9.24c-.46.14-.26.87.2.72Z" transform="translate(-134.35 15.33)"/>
    <path class="cls-3" d="M176.89,181.86c3,17.31,8.64,33.93,13.22,50.85s7.3,34.5,10.38,51.86c.06.32.54.18.48-.13-3.07-17.36-5.76-34.82-10.38-51.86S180.37,199,177.38,181.73c-.05-.32-.54-.18-.48.13Z" transform="translate(-134.35 15.33)"/>
    <path
    class="cls-3"
    d="M177.89,181.29l3.9,2.48.74,2.83q.62,2.36,1.25,4.71,1.13,4.24,2.28,8.47,2.44,8.93,5,17.83,5.1,17.8,10.64,35.47c.1.31.58.18.48-.13q-7.42-23.72-14.07-47.66-1.69-6.1-3.33-12.22c-.89-3.33-1.37-7.36-2.8-10.5-.93-2-2.55-3.39-4.42-1.62-.23.22.12.57.35.35Z"
    transform="translate(-134.35 15.33)"/>
    <path class="cls-3" d="M191.37,177.19q5.15,38.46,11,76.82c0,.32.53.18.48-.13q-5.89-38.29-11-76.69c0-.31-.54-.32-.5,0Z" transform="translate(-134.35 15.33)"/>
    <path class="cls-3" d="M192.29,176.29l4.19,0a.25.25,0,0,0,0-.5l-4.19,0a.25.25,0,0,0,0,.5Z" transform="translate(-134.35 15.33)"/>
    <path
    class="cls-3"
    d="M196.18,176.57c2.07,4.49,1.4,9.36,1.92,14.14.38,3.47,1.07,6.9,1.68,10.34l4.28,24.07c.06.32.54.18.48-.13q-2.3-13-4.61-25.92a110.31,110.31,0,0,1-1.66-14.56,20.76,20.76,0,0,0-1.67-8.18c-.13-.29-.57,0-.43.25Z"
    transform="translate(-134.35 15.33)"/>
    <path class="cls-3" d="M204.5,168.37c.32,9.38-.75,18.76-.38,28.19s.86,19.09-.1,28.64c0,.32.47.32.5,0,1-9.55.47-19.08.1-28.64s.7-18.81.38-28.19c0-.32-.51-.32-.5,0Z" transform="translate(-134.35 15.33)"/>
    <path class="cls-3" d="M204.92,168.37a42,42,0,0,0,5.72,0c.32,0,.32-.52,0-.5a42,42,0,0,1-5.72,0c-.32,0-.32.48,0,.5Z" transform="translate(-134.35 15.33)"/>
    <path class="cls-3" d="M210.94,168.31q.5,4.82.82,9.66c0,.32.52.32.5,0q-.32-4.84-.82-9.66c0-.32-.53-.32-.5,0Z" transform="translate(-134.35 15.33)"/>
    <path class="cls-3" d="M211.93,178.68l1.77.38c.31.07.45-.42.13-.48l-1.77-.38c-.31-.07-.45.42-.13.48Z" transform="translate(-134.35 15.33)"/>
    <path class="cls-3" d="M214.61,179.32c3,26.42-.18,53,2.42,79.49,0,.32.53.32.5,0-2.59-26.44.59-53.07-2.42-79.49,0-.32-.54-.32-.5,0Z" transform="translate(-134.35 15.33)"/>
    <path class="cls-3" d="M204,225.55a134.14,134.14,0,0,1,1.5,15.93c0,.32.51.32.5,0a135.28,135.28,0,0,0-1.52-16.06c0-.32-.53-.18-.48.13Z" transform="translate(-134.35 15.33)"/>
    <path class="cls-3" d="M203,256l3.72,21.18c.06.32.54.18.48-.13l-3.72-21.18c-.06-.32-.54-.18-.48.13Z" transform="translate(-134.35 15.33)"/>
    <path class="cls-3" d="M203.11,255.71l0-.66c0-.32-.52-.32-.5,0l0,.66c0,.32.52.32.5,0Z" transform="translate(-134.35 15.33)"/>
    <path class="cls-3" d="M211.41,178.85q.26,47.77,3.58,95.44c0,.32.52.32.5,0q-3.32-47.65-3.58-95.44a.25.25,0,0,0-.5,0Z" transform="translate(-134.35 15.33)"/>
    <path class="cls-3" d="M227.79,170.55c-3.41,30-4,60.39-10.93,89.89-.07.31.41.45.48.13,7-29.54,7.54-60,10.95-90,0-.32-.46-.32-.5,0Z" transform="translate(-134.35 15.33)"/>
    <path class="cls-3" d="M227.89,169.72a22.5,22.5,0,0,0,6.23-.17c.32-.05.18-.53-.13-.48a22,22,0,0,1-6.1.15c-.32,0-.32.46,0,.5Z" transform="translate(-134.35 15.33)"/>
    <path class="cls-3" d="M233.51,170.74c-3,38.17-4,77.32-12.79,114.72-.07.31.41.45.48.13C230,248.13,231,209,234,170.74c0-.32-.47-.32-.5,0Z" transform="translate(-134.35 15.33)"/>
    <path
    class="cls-3"
    d="M202.1,426.23c1.16-6.19-.13-12.41-.73-18.61-.72-7.42-1.41-14.85-1.84-22.29a147.2,147.2,0,0,1,0-20.32c.63-7.89,1.45-17.88,8.82-22.58,9.29-5.93,21.83-6.15,27.24-17,4.05-8.17,4.25-20.17.89-28.65-3.76-9.53-12.53-10.58-21.57-11.67-3.33-.4-6.68-1.56-10.06-1.5-2.92.05-5.85,1-8.73,1.41-4.91.65-8.93,1.28-12.78,4.7-13.69,12.2-9.11,35.74,4.54,45.94,4.49,3.36,9.65,5.29,8.61,12.21-.44,2.9-1,5.77-1.28,8.69a149.92,149.92,0,0,0-.65,23.35c.71,15.27,2.11,31.37,7.35,45.83.09.24.47.14.39-.11-4.41-12.16-5.8-25.17-6.83-38-1.05-13-1-26.09,1.29-39,1.61-9.16-6.15-10.44-11.76-16-7.78-7.73-11.33-19.78-8.53-30.44,1.43-5.44,4.57-10.78,9.37-13.89,3.28-2.12,6.55-2.37,10.28-2.89,3.48-.48,6.89-1.49,10.41-1.25a147.7,147.7,0,0,1,15.61,2.18c7,1.27,12.21,5,14.44,11.92,3.68,11.36,2.36,28.68-9,35.22-7.6,4.38-19.3,5.36-24.23,13.43-5.94,9.73-4.92,24.68-4.42,35.54.32,6.91.94,13.81,1.57,20.69.69,7.49,2.57,15.54,1.17,23,0,.25.34.36.39.11Z"
    transform="translate(-134.35 15.33)"/>
    <path class="cls-3" d="M312.18-14.56a38.93,38.93,0,0,0,5.72,0c.48,0,.48-.79,0-.75a38.93,38.93,0,0,1-5.72,0c-.48,0-.48.72,0,.75Z" transform="translate(-134.35 15.33)"/>
    <path class="cls-3" d="M335.69-13a10.66,10.66,0,0,1,5.5-.24c.47.1.67-.62.2-.72a11.46,11.46,0,0,0-5.9.24c-.46.14-.26.87.2.72Z" transform="translate(-134.35 15.33)"/>
    <path class="cls-3" d="M283.77-.09c3,17.31,8.64,33.93,13.22,50.85s7.3,34.5,10.38,51.86c.06.32.54.18.48-.13-3.07-17.36-5.76-34.82-10.38-51.86S287.25,17.08,284.25-.23c-.05-.32-.54-.18-.48.13Z" transform="translate(-134.35 15.33)"/>
    <path
    class="cls-3"
    d="M284.76-.66l3.9,2.48.74,2.83Q290,7,290.65,9.36q1.13,4.24,2.28,8.47,2.44,8.93,5,17.83,5.1,17.8,10.64,35.47c.1.31.58.18.48-.13Q301.62,47.27,295,23.33q-1.69-6.1-3.33-12.22c-.89-3.33-1.37-7.36-2.8-10.5-.93-2-2.55-3.39-4.42-1.62-.23.22.12.57.35.35Z"
    transform="translate(-134.35 15.33)"/>
    <path class="cls-3" d="M298.25-4.76q5.15,38.46,11,76.82c0,.32.53.18.48-.13q-5.89-38.29-11-76.69c0-.31-.54-.32-.5,0Z" transform="translate(-134.35 15.33)"/>
    <path class="cls-3" d="M299.16-5.66l4.19,0a.25.25,0,0,0,0-.5l-4.19,0a.25.25,0,0,0,0,.5Z" transform="translate(-134.35 15.33)"/>
    <path
    class="cls-3"
    d="M303.05-5.38C305.12-.89,304.46,4,305,8.76c.38,3.47,1.07,6.9,1.68,10.34l4.28,24.07c.06.32.54.18.48-.13q-2.3-13-4.61-25.92a110.31,110.31,0,0,1-1.66-14.56,20.76,20.76,0,0,0-1.67-8.18c-.13-.29-.57,0-.43.25Z"
    transform="translate(-134.35 15.33)"/>
    <path class="cls-3" d="M311.37-13.58c.32,9.38-.75,18.76-.38,28.19s.86,19.09-.1,28.64c0,.32.47.32.5,0,1-9.55.47-19.08.1-28.64s.7-18.81.38-28.19c0-.32-.51-.32-.5,0Z" transform="translate(-134.35 15.33)"/>
    <path class="cls-3" d="M311.79-13.58a42,42,0,0,0,5.72,0c.32,0,.32-.52,0-.5a42,42,0,0,1-5.72,0c-.32,0-.32.48,0,.5Z" transform="translate(-134.35 15.33)"/>
    <path class="cls-3" d="M317.81-13.64q.5,4.82.82,9.66c0,.32.52.32.5,0q-.32-4.84-.82-9.66c0-.32-.53-.32-.5,0Z" transform="translate(-134.35 15.33)"/>
    <path class="cls-3" d="M318.8-3.27l1.77.38c.31.07.45-.42.13-.48l-1.77-.38c-.31-.07-.45.42-.13.48Z" transform="translate(-134.35 15.33)"/>
    <path class="cls-3" d="M321.49-2.63c3,26.42-.18,53,2.42,79.49,0,.32.53.32.5,0C321.81,50.42,325,23.79,322-2.63c0-.32-.54-.32-.5,0Z" transform="translate(-134.35 15.33)"/>
    <path class="cls-3" d="M310.85,43.59a134.14,134.14,0,0,1,1.5,15.93c0,.32.51.32.5,0a135.28,135.28,0,0,0-1.52-16.06c0-.32-.53-.18-.48.13Z" transform="translate(-134.35 15.33)"/>
    <path class="cls-3" d="M309.88,74l3.72,21.18c.06.32.54.18.48-.13L310.36,73.9c-.06-.32-.54-.18-.48.13Z" transform="translate(-134.35 15.33)"/>
    <path class="cls-3" d="M310,73.75l0-.66c0-.32-.52-.32-.5,0l0,.66c0,.32.52.32.5,0Z" transform="translate(-134.35 15.33)"/>
    <path class="cls-3" d="M318.28-3.1q.26,47.77,3.58,95.44c0,.32.52.32.5,0Q319,44.68,318.78-3.1a.25.25,0,0,0-.5,0Z" transform="translate(-134.35 15.33)"/>
    <path class="cls-3" d="M334.66-11.4c-3.41,30-4,60.39-10.93,89.89-.07.31.41.45.48.13,7-29.54,7.54-60,10.95-90,0-.32-.46-.32-.5,0Z" transform="translate(-134.35 15.33)"/>
    <path class="cls-3" d="M334.76-12.24A22.5,22.5,0,0,0,341-12.4c.32-.05.18-.53-.13-.48a22,22,0,0,1-6.1.15c-.32,0-.32.46,0,.5Z" transform="translate(-134.35 15.33)"/>
    <path class="cls-3" d="M340.39-11.22c-3,38.17-4,77.32-12.79,114.72-.07.31.41.45.48.13,8.77-37.46,9.78-76.63,12.81-114.85,0-.32-.47-.32-.5,0Z" transform="translate(-134.35 15.33)"/>
    <path
    class="cls-3"
    d="M309,244.27c1.16-6.19-.13-12.41-.73-18.61-.72-7.42-1.41-14.85-1.84-22.29a147.2,147.2,0,0,1,0-20.32c.63-7.89,1.45-17.88,8.82-22.58,9.29-5.93,21.83-6.15,27.24-17,4.05-8.17,4.25-20.17.89-28.65-3.76-9.53-12.53-10.58-21.57-11.67-3.33-.4-6.68-1.56-10.06-1.5-2.92.05-5.85,1-8.73,1.41-4.91.65-8.93,1.28-12.78,4.7-13.69,12.2-9.11,35.74,4.54,45.94,4.49,3.36,9.65,5.29,8.61,12.21-.44,2.9-1,5.77-1.28,8.69a149.92,149.92,0,0,0-.65,23.35c.71,15.27,2.11,31.37,7.35,45.83.09.24.47.14.39-.11-4.41-12.16-5.8-25.17-6.83-38-1.05-13-1-26.09,1.29-39,1.61-9.16-6.15-10.44-11.76-16-7.78-7.73-11.33-19.78-8.53-30.44,1.43-5.44,4.57-10.78,9.37-13.89,3.28-2.12,6.55-2.37,10.28-2.89,3.48-.48,6.89-1.49,10.41-1.25A147.7,147.7,0,0,1,329,104.36c7,1.27,12.21,5,14.44,11.92,3.68,11.36,2.36,28.68-9,35.22-7.6,4.38-19.3,5.36-24.23,13.43-5.94,9.73-4.92,24.68-4.42,35.54.32,6.91.94,13.81,1.57,20.69.69,7.49,2.57,15.54,1.17,23,0,.25.34.36.39.11Z"
    transform="translate(-134.35 15.33)"/>
    <path class="cls-3" d="M266.77,242.06l3.84-1.79c.2-.09,0-.4-.18-.3l-3.84,1.79c-.2.09,0,.4.18.3Z" transform="translate(-134.35 15.33)"/>
    <path
    class="cls-3"
    d="M270.35,240.16c3,7.7,6.55,15.58,7.14,24,.28,4-.54,7.86-1,11.85-.43,3.82.15,7.45.37,11.25.48,8.15-.54,16.31-.63,24.46s.27,16.46.4,24.68a.18.18,0,0,0,.35,0c-.14-8.86-.56-17.72-.38-26.58.17-8.16,1.14-16.3.46-24.45-.65-7.74,1.48-15.28.59-23s-4.14-15.09-7-22.29c-.08-.21-.42-.12-.34.09Z"
    transform="translate(-134.35 15.33)"/>
    <path class="cls-3" d="M293,251.49l-3.69-3c-.17-.14-.42.11-.25.25l3.69,3c.17.14.42-.11.25-.25Z" transform="translate(-134.35 15.33)"/>
    <path class="cls-3" d="M293,251.62l-.81-4.45c0-.22-.38-.13-.34.09l.81,4.45c0,.22.38.13.34-.09Z" transform="translate(-134.35 15.33)"/>
    <path class="cls-3" d="M293.6,252l.85-4.06c0-.22-.29-.31-.34-.09l-.85,4.06c0,.22.29.31.34.09Z" transform="translate(-134.35 15.33)"/>
    <path class="cls-3" d="M293.6,252.45a9.93,9.93,0,0,0,3-5,.18.18,0,0,0-.34-.09,9.6,9.6,0,0,1-2.94,4.89c-.17.15.08.4.25.25Z" transform="translate(-134.35 15.33)"/>
    <path class="cls-3" d="M296.15,247.65c-2.21,15.52-4.42,31.08-8.29,46.29-3.6,14.14-9.47,27.78-10.43,42.48,0,.22.34.22.35,0,1-15.29,7.26-29.5,10.88-44.25s5.71-29.54,7.83-44.43c0-.22-.31-.32-.34-.09Z" transform="translate(-134.35 15.33)"/>
    <path class="cls-3" d="M292.93,251.61q-6.35,33.53-15.75,66.35a.18.18,0,0,0,.34.09q9.4-32.8,15.75-66.35c0-.22-.3-.31-.34-.09Z" transform="translate(-134.35 15.33)"/>
    <path class="cls-3" d="M266.29,242.3c5.78,15.58,4.91,30.74,3.67,47a483.68,483.68,0,0,0-1.23,48.39.18.18,0,0,0,.35,0,484.34,484.34,0,0,1,1.38-50.32c1.26-15.63,1.71-30.19-3.83-45.13-.08-.21-.42-.12-.34.09Z" transform="translate(-134.35 15.33)"/>
    <path class="cls-3" d="M271.27,273.48a5,5,0,0,0-3.52-.4.18.18,0,0,0,.09.34,4.59,4.59,0,0,1,3.25.37c.2.11.38-.19.18-.3Z" transform="translate(-134.35 15.33)"/>
    <path class="cls-3" d="M267.62,273.2c-1.33,9.24-2.63,18.59-1.67,27.93.74,7.22,3.45,14.24,3.31,21.54a.18.18,0,0,0,.35,0c.12-6.17-1.87-12.11-2.86-18.15-1.71-10.39-.28-20.91,1.21-31.24,0-.22-.31-.32-.34-.09Z" transform="translate(-134.35 15.33)"/>
    <path class="cls-3" d="M244.44,269.66c.84-.48,1.83-.7,2.67-1.18a.18.18,0,0,0-.18-.3c-.84.48-1.83.7-2.67,1.18a.18.18,0,0,0,.18.3Z" transform="translate(-134.35 15.33)"/>
    <path class="cls-3" d="M246.85,268.34c.43,12.52,6.29,24.24,10.31,35.93,3.83,11.16,7.44,22.4,11.58,33.44.08.21.42.12.34-.09-4-10.57-7.43-21.33-11.09-32-4.13-12.07-10.35-24.36-10.79-37.27,0-.22-.36-.23-.35,0Z" transform="translate(-134.35 15.33)"/>
    <path class="cls-3" d="M244.18,269.51c-.15,12.4,4.42,23.78,9.24,35,5.7,13.26,10.41,26.49,12.91,40.75,0,.22.38.13.34-.09a163.71,163.71,0,0,0-10.85-36c-5.43-12.76-11.45-25.49-11.28-39.67a.18.18,0,0,0-.35,0Z" transform="translate(-134.35 15.33)"/>
    <path class="cls-3" d="M265.36,340.52a.18.18,0,0,0,0-.35.18.18,0,0,0,0,.35Z" transform="translate(-134.35 15.33)"/>
    <path class="cls-3" d="M277.58,347.06c11.55-25.39,23.38-50.67,34.36-76.32.09-.2-.21-.38-.3-.18-11,25.64-22.81,50.93-34.36,76.32-.09.2.21.38.3.18Z" transform="translate(-134.35 15.33)"/>
    <path class="cls-3" d="M312,270.77a30.56,30.56,0,0,0,3.81-9.41c0-.22-.29-.31-.34-.09a30.26,30.26,0,0,1-3.78,9.32c-.12.19.18.37.3.18Z" transform="translate(-134.35 15.33)"/>
    <path class="cls-3" d="M277.89,335.15q15.12-33.31,27.8-67.64c.08-.21-.26-.3-.34-.09Q292.69,301.69,277.58,335c-.09.2.21.38.3.18Z" transform="translate(-134.35 15.33)"/>
    <path class="cls-3" d="M306.19,267.78l.63,0c.23,0,.22-.34,0-.35l-.63,0c-.23,0-.22.34,0,.35Z" transform="translate(-134.35 15.33)"/>
    <path class="cls-3" d="M307.21,268c.17,4.21-1.71,8-3.2,11.82l-4.23,10.9c-.08.21.26.3.34.09L305,278.21c1.32-3.4,2.71-6.53,2.56-10.23,0-.22-.36-.23-.35,0Z" transform="translate(-134.35 15.33)"/>
    <path class="cls-3" d="M300.32,291.18c3.75-10.14,7.17-20.5,12.33-30,.11-.2-.19-.38-.3-.18-5.17,9.57-8.6,19.95-12.36,30.12-.08.21.26.3.34.09Z" transform="translate(-134.35 15.33)"/>
    <path class="cls-3" d="M312.45,261.22c1,.36,2.14-.09,3.12.26.21.08.3-.26.09-.34-1-.36-2.14.09-3.12-.26-.21-.08-.3.26-.09.34Z" transform="translate(-134.35 15.33)"/>
    <path class="cls-3" d="M266.51,345.74c-10.52,1.08-20,8.15-21.39,19.11s7.29,21.64,16.38,26.87a.18.18,0,0,0,.18-.3c-8.27-4.76-16.53-14.23-16.36-24.24.19-11.8,10.05-19.93,21.2-21.08.22,0,.22-.37,0-.35Z" transform="translate(-134.35 15.33)"/>
    <path class="cls-3" d="M277,347.19c8.05,6.4,13.79,14.56,11.15,25.36-2.33,9.54-10.12,16-18.92,19.49-.21.08-.12.42.09.34,8.91-3.52,16.8-10.1,19.16-19.74,2.66-10.87-3.06-19.19-11.24-25.71-.17-.14-.42.11-.25.25Z" transform="translate(-134.35 15.33)"/>
    <path class="cls-3" d="M261.41,391.56a371.87,371.87,0,0,0,9.27,73.37c0,.22.39.13.34-.09a371.39,371.39,0,0,1-9.26-73.28.18.18,0,0,0-.35,0Z" transform="translate(-134.35 15.33)"/>
    <path class="cls-3" d="M271,464.93c4.49-24.3-8.84-48.65-1.52-72.67.07-.22-.27-.31-.34-.09-7.31,24,6,48.39,1.52,72.67,0,.22.3.31.34.09Z" transform="translate(-134.35 15.33)"/>
    <path class="cls-3" d="M411.89,169.82l3.84-1.79c.2-.09,0-.4-.18-.3l-3.84,1.79c-.2.09,0,.4.18.3Z" transform="translate(-134.35 15.33)"/>
    <path
    class="cls-3"
    d="M415.47,167.92c3,7.7,6.55,15.58,7.14,24,.28,4-.54,7.86-1,11.85-.43,3.82.15,7.45.37,11.25.48,8.15-.54,16.31-.63,24.46s.27,16.46.4,24.68a.18.18,0,0,0,.35,0c-.14-8.86-.56-17.72-.38-26.58.17-8.16,1.14-16.3.46-24.45-.65-7.74,1.48-15.28.59-23s-4.14-15.09-7-22.29c-.08-.21-.42-.12-.34.09Z"
    transform="translate(-134.35 15.33)"/>
    <path class="cls-3" d="M438.13,179.25l-3.69-3c-.17-.14-.42.11-.25.25l3.69,3c.17.14.42-.11.25-.25Z" transform="translate(-134.35 15.33)"/>
    <path class="cls-3" d="M438.11,179.38l-.81-4.45c0-.22-.38-.13-.34.09l.81,4.45c0,.22.38.13.34-.09Z" transform="translate(-134.35 15.33)"/>
    <path class="cls-3" d="M438.72,179.79l.85-4.06c0-.22-.29-.31-.34-.09l-.85,4.06c0,.22.29.31.34.09Z" transform="translate(-134.35 15.33)"/>
    <path class="cls-3" d="M438.72,180.21a9.93,9.93,0,0,0,3-5,.18.18,0,0,0-.34-.09,9.6,9.6,0,0,1-2.94,4.89c-.17.15.08.4.25.25Z" transform="translate(-134.35 15.33)"/>
    <path class="cls-3" d="M441.27,175.41c-2.21,15.52-4.42,31.08-8.29,46.29-3.6,14.14-9.47,27.78-10.43,42.48,0,.22.34.22.35,0,1-15.29,7.26-29.5,10.88-44.25s5.71-29.54,7.83-44.43c0-.22-.31-.32-.34-.09Z" transform="translate(-134.35 15.33)"/>
    <path class="cls-3" d="M438,179.37q-6.35,33.53-15.75,66.35a.18.18,0,0,0,.34.09q9.4-32.8,15.75-66.35c0-.22-.3-.31-.34-.09Z" transform="translate(-134.35 15.33)"/>
    <path class="cls-3" d="M411.4,170.06c5.78,15.58,4.91,30.74,3.67,47a483.68,483.68,0,0,0-1.23,48.39.18.18,0,0,0,.35,0,484.34,484.34,0,0,1,1.38-50.32c1.26-15.63,1.71-30.19-3.83-45.13-.08-.21-.42-.12-.34.09Z" transform="translate(-134.35 15.33)"/>
    <path class="cls-3" d="M416.38,201.24a5,5,0,0,0-3.52-.4.18.18,0,0,0,.09.34,4.59,4.59,0,0,1,3.25.37c.2.11.38-.19.18-.3Z" transform="translate(-134.35 15.33)"/>
    <path class="cls-3" d="M412.74,201c-1.33,9.24-2.63,18.59-1.67,27.93.74,7.22,3.45,14.24,3.31,21.54a.18.18,0,0,0,.35,0c.12-6.17-1.87-12.11-2.86-18.15-1.71-10.39-.28-20.91,1.21-31.24,0-.22-.31-.32-.34-.09Z" transform="translate(-134.35 15.33)"/>
    <path class="cls-3" d="M389.56,197.42c.84-.48,1.83-.7,2.67-1.18a.18.18,0,0,0-.18-.3c-.84.48-1.83.7-2.67,1.18a.18.18,0,0,0,.18.3Z" transform="translate(-134.35 15.33)"/>
    <path class="cls-3" d="M392,196.1c.43,12.52,6.29,24.24,10.31,35.93,3.83,11.16,7.44,22.4,11.58,33.44.08.21.42.12.34-.09-4-10.57-7.43-21.33-11.09-32C399,221.29,392.75,209,392.31,196.1c0-.22-.36-.23-.35,0Z" transform="translate(-134.35 15.33)"/>
    <path class="cls-3" d="M389.3,197.27c-.15,12.4,4.42,23.78,9.24,35,5.7,13.26,10.41,26.49,12.91,40.75,0,.22.38.13.34-.09a163.71,163.71,0,0,0-10.85-36c-5.43-12.76-11.45-25.49-11.28-39.67a.18.18,0,0,0-.35,0Z" transform="translate(-134.35 15.33)"/>
    <path class="cls-3" d="M410.48,268.28a.18.18,0,0,0,0-.35.18.18,0,0,0,0,.35Z" transform="translate(-134.35 15.33)"/>
    <path class="cls-3" d="M422.7,274.82c11.55-25.39,23.38-50.67,34.36-76.32.09-.2-.21-.38-.3-.18-11,25.64-22.81,50.93-34.36,76.32-.09.2.21.38.3.18Z" transform="translate(-134.35 15.33)"/>
    <path class="cls-3" d="M457.09,198.53a30.56,30.56,0,0,0,3.81-9.41c0-.22-.29-.31-.34-.09a30.26,30.26,0,0,1-3.78,9.32c-.12.19.18.37.3.18Z" transform="translate(-134.35 15.33)"/>
    <path class="cls-3" d="M423,262.91q15.12-33.31,27.8-67.64c.08-.21-.26-.3-.34-.09q-12.65,34.27-27.76,67.56c-.09.2.21.38.3.18Z" transform="translate(-134.35 15.33)"/>
    <path class="cls-3" d="M451.3,195.54l.63,0c.23,0,.22-.34,0-.35l-.63,0c-.23,0-.22.34,0,.35Z" transform="translate(-134.35 15.33)"/>
    <path class="cls-3" d="M452.32,195.74c.17,4.21-1.71,8-3.2,11.82l-4.23,10.9c-.08.21.26.3.34.09L450.12,206c1.32-3.4,2.71-6.53,2.56-10.23,0-.22-.36-.23-.35,0Z" transform="translate(-134.35 15.33)"/>
    <path class="cls-3" d="M445.44,218.94c3.75-10.14,7.17-20.5,12.33-30,.11-.2-.19-.38-.3-.18-5.17,9.57-8.6,19.95-12.36,30.12-.08.21.26.3.34.09Z" transform="translate(-134.35 15.33)"/>
    <path class="cls-3" d="M457.57,189c1,.36,2.14-.09,3.12.26.21.08.3-.26.09-.34-1-.36-2.14.09-3.12-.26-.21-.08-.3.26-.09.34Z" transform="translate(-134.35 15.33)"/>
    <path class="cls-3" d="M411.63,273.5c-10.52,1.08-20,8.15-21.39,19.11s7.29,21.64,16.38,26.87a.18.18,0,0,0,.18-.3c-8.27-4.76-16.53-14.23-16.36-24.24.19-11.8,10.05-19.93,21.2-21.08.22,0,.22-.37,0-.35Z" transform="translate(-134.35 15.33)"/>
    <path class="cls-3" d="M422.16,274.95c8.05,6.4,13.79,14.56,11.15,25.36-2.33,9.54-10.12,16-18.92,19.49-.21.08-.12.42.09.34,8.91-3.52,16.8-10.1,19.16-19.74,2.66-10.87-3.06-19.19-11.24-25.71-.17-.14-.42.11-.25.25Z" transform="translate(-134.35 15.33)"/>
    <path class="cls-3" d="M406.53,319.32a371.87,371.87,0,0,0,9.27,73.37c0,.22.39.13.34-.09a371.39,371.39,0,0,1-9.26-73.28.18.18,0,0,0-.35,0Z" transform="translate(-134.35 15.33)"/>
    <path class="cls-3" d="M416.14,392.69c4.49-24.3-8.84-48.65-1.52-72.67.07-.22-.27-.31-.34-.09-7.31,24,6,48.39,1.52,72.67,0,.22.3.31.34.09Z" transform="translate(-134.35 15.33)"/>
    <path class="cls-3" d="M134.58,126.1c1.3-.36,2.46-1.1,3.75-1.46a.18.18,0,0,0-.09-.34c-1.3.36-2.46,1.1-3.75,1.46a.18.18,0,0,0,.09.34Z" transform="translate(-134.35 15.33)"/>
    <path class="cls-3" d="M138.12,124.52Q146,146,151.91,168.08a.18.18,0,0,0,.34-.09q-5.94-22.08-13.79-43.55c-.08-.21-.42-.12-.34.09Z" transform="translate(-134.35 15.33)"/>
    <path class="cls-3" d="M139.66,126.31l1.09-.28a.18.18,0,0,0-.09-.34l-1.09.28a.18.18,0,0,0,.09.34Z" transform="translate(-134.35 15.33)"/>
    <path class="cls-3" d="M141.31,125.5l.19-.67a.18.18,0,0,0-.34-.09l-.19.67a.18.18,0,0,0,.34.09Z" transform="translate(-134.35 15.33)"/>
    <path class="cls-3" d="M141.29,124.52h.22c.22,0,.23-.36,0-.35h-.22c-.22,0-.23.36,0,.35Z" transform="translate(-134.35 15.33)"/>
    <path class="cls-3" d="M141.75,124.65a189.57,189.57,0,0,1,7,31.48c0,.22.37.13.34-.09a189.57,189.57,0,0,0-7-31.48c-.07-.21-.41-.12-.34.09Z" transform="translate(-134.35 15.33)"/>
    <path class="cls-3" d="M142,124.53q0-2.32.21-4.62c0-.22-.33-.22-.35,0q-.21,2.31-.21,4.62a.18.18,0,0,0,.35,0Z" transform="translate(-134.35 15.33)"/>
    <path class="cls-3" d="M142.06,120.08c1.11-.16,2.24-.16,3.35-.32.22,0,.13-.37-.09-.34-1.11.16-2.24.16-3.35.32-.22,0-.13.37.09.34Z" transform="translate(-134.35 15.33)"/>
    <path class="cls-3" d="M145.19,119.63c7.32,26.39,15.64,52.73,21,79.62,0,.22.38.13.34-.09-5.31-26.89-13.63-53.23-21-79.62a.18.18,0,0,0-.34.09Z" transform="translate(-134.35 15.33)"/>
    <path class="cls-3" d="M148.08,127l1.29-.51c.21-.08.12-.42-.09-.34l-1.29.51c-.21.08-.12.42.09.34Z" transform="translate(-134.35 15.33)"/>
    <path class="cls-3" d="M149.67,126.15l.18-.67a.18.18,0,0,0-.34-.09l-.18.67a.18.18,0,0,0,.34.09Z" transform="translate(-134.35 15.33)"/>
    <path class="cls-3" d="M150,125.54a1.18,1.18,0,0,0,1,.44c.22,0,.23-.36,0-.35a.87.87,0,0,1-.78-.34c-.14-.17-.39.08-.25.25Z" transform="translate(-134.35 15.33)"/>
    <path class="cls-3" d="M150.9,125.76c-.51,2.77.65,5.87,1,8.64.61,4.5,1,9,1.22,13.54,0,.22.36.23.35,0-.2-4-.51-7.93-1-11.88-.4-3.2-1.84-7.06-1.26-10.21,0-.22-.3-.31-.34-.09Z" transform="translate(-134.35 15.33)"/>
    <path class="cls-3" d="M134.37,126c4.75,11.91,7.83,24.59,11.48,36.87,3.59,12.06,7.87,24.14,10.14,36.54,0,.22.38.13.34-.09-2.27-12.4-6.55-24.48-10.14-36.54-3.65-12.28-6.73-25-11.48-36.87-.08-.21-.42-.12-.34.09Z" transform="translate(-134.35 15.33)"/>
    <path class="cls-3" d="M156.17,199.7a14.42,14.42,0,0,0-3.8,17.56c.09.2.4,0,.3-.18A14.09,14.09,0,0,1,156.42,200c.17-.15-.08-.39-.25-.25Z" transform="translate(-134.35 15.33)"/>
    <path
    class="cls-3"
    d="M152.35,217.13a12.11,12.11,0,0,0,1,6.74,43.55,43.55,0,0,1,2.07,4.79c.47,1.78-.05,3.56.48,5.33a.18.18,0,0,0,.34-.09c-.63-2.12,0-4.13-.81-6.21-1.34-3.47-3.38-6.54-2.73-10.46,0-.22-.3-.32-.34-.09Z"
    transform="translate(-134.35 15.33)"/>
    <path class="cls-3" d="M155.91,234c1.43,2.37.67,5,1.08,7.57.56,3.51,1.45,6.44,1,10.1,0,.22.32.22.35,0a20.56,20.56,0,0,0,.22-5.35c-.25-2-1.11-3.75-1.29-5.73-.21-2.38.27-4.63-1-6.78a.18.18,0,0,0-.3.18Z" transform="translate(-134.35 15.33)"/>
    <path class="cls-3" d="M158,251.7c.14,3.34.92,6.56.76,9.91a27.09,27.09,0,0,0,1.2,9.19.18.18,0,0,0,.34-.09,32.17,32.17,0,0,1-1.09-10.2c.08-3-.73-5.86-.86-8.81,0-.22-.36-.23-.35,0Z" transform="translate(-134.35 15.33)"/>
    <path
    class="cls-3"
    d="M166.14,199.21a2.68,2.68,0,0,0,.85,1.88c1.32,1.74,3.25,2.64,4.36,4.71,2.07,3.87.5,8.29,2.18,12.23.09.21.39,0,.3-.18-1.54-3.62-.23-7.63-1.73-11.27a11.73,11.73,0,0,0-1.6-2.75c-1-1.26-3.89-3-4-4.63,0-.22-.37-.23-.35,0Z"
    transform="translate(-134.35 15.33)"/>
    <path
    class="cls-3"
    d="M173.52,217.85c-1.05,2-2,4-1.7,6.31a18.76,18.76,0,0,1,.29,5.7,15.84,15.84,0,0,0-.26,4.11c0,.22.37.22.35,0-.27-2.58.83-5.06.5-7.62a28.87,28.87,0,0,1-.62-3.1,11.16,11.16,0,0,1,1.74-5.23c.11-.2-.2-.38-.3-.18Z"
    transform="translate(-134.35 15.33)"/>
    <path class="cls-3" d="M171.86,234c.93,3.27-.34,6.53-.12,9.85a48.6,48.6,0,0,1-.82,12.15c0,.22.3.31.34.09.62-3.54,1.46-7.15,1.13-10.74-.35-3.75.84-7.8-.19-11.44a.18.18,0,0,0-.34.09Z" transform="translate(-134.35 15.33)"/>
    <path
    class="cls-3"
    d="M170.91,256.06a18.44,18.44,0,0,0,.35,3.81c.48,2.95-.37,5.2-.52,8.06a9.81,9.81,0,0,0,.29,2.42,33.54,33.54,0,0,1,.21,6.61.18.18,0,0,0,.35,0c.09-3.9-.43-7.9.08-11.7.43-3.21-.55-6-.42-9.2,0-.23-.34-.22-.35,0Z"
    transform="translate(-134.35 15.33)"/>
    <path class="cls-3" d="M160,270.75c-.84,5,.12,9.59,1,14.46,1.34,7.17.12,14.19,1,21.35,0,.22.38.22.35,0-.69-5.72.36-11.44-.29-17.15-.71-6.28-2.82-12.17-1.74-18.57,0-.22-.3-.32-.34-.09Z" transform="translate(-134.35 15.33)"/>
    <path class="cls-3" d="M162.1,306.32c-.83,8.17.82,16.23.17,24.41,0,.22.33.22.35,0,.66-8.22-1-16.23-.17-24.41,0-.22-.33-.22-.35,0Z" transform="translate(-134.35 15.33)"/>
    <path class="cls-3" d="M162.26,331.22a83.83,83.83,0,0,1-5.94,42.51c-.09.21.25.3.34.09a83.93,83.93,0,0,0,6-42.61c0-.22-.38-.22-.35,0Z" transform="translate(-134.35 15.33)"/>
    <path class="cls-3" d="M156.76,372.69c-.93,3.33-2.23,6.57-3,9.94-.43,1.82-.48,3.58.78,5.06.15.17.39-.08.25-.25-2.83-3.34,1.34-11.05,2.35-14.66a.18.18,0,0,0-.34-.09Z" transform="translate(-134.35 15.33)"/>
    <path class="cls-3" d="M154.78,387.66a37,37,0,0,0,2-4.89,46.24,46.24,0,0,1,3-6c1.95-3.78,2.84-8.28,4.06-12.33a.18.18,0,0,0-.34-.09c-1.41,4.7-2.48,9.74-5.07,13.94-1.8,2.92-2.38,6.12-4,9.2-.1.2.2.38.3.18Z" transform="translate(-134.35 15.33)"/>
    <path class="cls-3" d="M163.53,365.51a125.75,125.75,0,0,0,4.81-21.18c0-.22-.32-.22-.35,0a125.21,125.21,0,0,1-4.8,21.08c-.07.22.27.31.34.09Z" transform="translate(-134.35 15.33)"/>
    <path class="cls-3" d="M168.36,344.67c1.51-6.68,1.47-13.66,1.66-20.47a.18.18,0,0,0-.35,0c-.19,6.77-.14,13.75-1.65,20.38,0,.22.29.31.34.09Z" transform="translate(-134.35 15.33)"/>
    <path class="cls-3" d="M170,324.19c-.2-3.5-.49-6.3.2-9.79a14.46,14.46,0,0,0,.12-5.16c0-.22-.37-.13-.34.09.44,2.67-.39,4.9-.73,7.48-.32,2.43.26,4.95.4,7.38,0,.22.36.23.35,0Z" transform="translate(-134.35 15.33)"/>
    <path class="cls-3" d="M170.45,310.28c-.84-8.2.89-16.36.72-24.61a.18.18,0,0,0-.35,0c.17,8.26-1.57,16.36-.72,24.61,0,.22.37.22.35,0Z" transform="translate(-134.35 15.33)"/>
    <path class="cls-3" d="M171.17,285.63c-.92-3,1.05-5.72.42-8.71,0-.22-.38-.13-.34.09.63,3-1.35,5.72-.42,8.71.07.21.4.12.34-.09Z" transform="translate(-134.35 15.33)"/>
    <path class="cls-3" d="M151.06,209.19l12.93-.61s0-.05,0,0l-12.93.61s0,.05,0,.05Z" transform="translate(-134.35 15.33)"/>
    <path class="cls-3" d="M172.76,210.24a107.6,107.6,0,0,0-11.05,1.13s0,.05,0,0a107.47,107.47,0,0,1,11-1.13s0-.05,0-.05Z" transform="translate(-134.35 15.33)"/>
    <path class="cls-3" d="M152.53,217.2c1.5-.7,3.05,0,4.59-.11,2.1-.2,4-1.1,6.15-1.11a0,0,0,0,0,0,0,15.27,15.27,0,0,0-3,.27,19.72,19.72,0,0,1-3.59.85c-1.41,0-2.83-.52-4.16.1,0,0,0,.06,0,0Z" transform="translate(-134.35 15.33)"/>
    <path class="cls-3" d="M172.62,219a2.88,2.88,0,0,0-2.43-.59c-2.05.28-4,1-6.08,1.27,0,0,0,.05,0,.05a26.44,26.44,0,0,0,3.46-.61c1.59-.4,3.51-1.32,5-.08,0,0,.06,0,0,0Z" transform="translate(-134.35 15.33)"/>
    <path class="cls-3" d="M166.74,215.53c.94-.62,2.12-.07,3.14,0a8.56,8.56,0,0,0,2.79-.36,0,0,0,0,0,0,0,9.52,9.52,0,0,1-4.32.15,2.11,2.11,0,0,0-1.63.23s0,.06,0,0Z" transform="translate(-134.35 15.33)"/>
    <path class="cls-3" d="M167.11,204.37l4.2,1a0,0,0,0,0,0,0l-4.2-1a0,0,0,0,0,0,0Z" transform="translate(-134.35 15.33)"/>
    <path class="cls-3" d="M155.62,225.82c1.24-1.21,3.36-.49,4.89-.59a25.35,25.35,0,0,0,4-.7s0-.06,0,0a22.2,22.2,0,0,1-6.29.63,3.16,3.16,0,0,0-2.67.67s0,.06,0,0Z" transform="translate(-134.35 15.33)"/>
    <path class="cls-3" d="M172,230.39a3.81,3.81,0,0,0-1.77.21c-1.73.34-3.21-.39-4.88-.64a3.87,3.87,0,0,0-3.21.7s0,.06,0,0c1.92-1.53,4-.33,6,0,1.31.2,2.56-.48,3.81-.23,0,0,0,0,0,0Z" transform="translate(-134.35 15.33)"/>
    <path class="cls-3" d="M157.13,241.65a52.81,52.81,0,0,1,8.74-1.15,0,0,0,0,0,0,0,52.91,52.91,0,0,0-8.76,1.15s0,.05,0,0Z" transform="translate(-134.35 15.33)"/>
    <path class="cls-3" d="M171.74,239.52a4.31,4.31,0,0,0-3.1-1.51c-2.13-.35-4.3-.55-6.45-.73,0,0,0,0,0,.05,1.44.12,2.87.26,4.3.44,1.71.21,4.06.22,5.21,1.78,0,0,.06,0,0,0Z" transform="translate(-134.35 15.33)"/>
    <path class="cls-3" d="M158.41,250.28c3.15-1.11,6.57.13,9.73-.94,0,0,0-.06,0,0-3.16,1.07-6.58-.16-9.73.94,0,0,0,.06,0,0Z" transform="translate(-134.35 15.33)"/>
    <path class="cls-3" d="M172.09,246.3a3.08,3.08,0,0,0-2.4-1,14.84,14.84,0,0,1-3.34.31,6.06,6.06,0,0,0-2,0s0,.05,0,0c1.25-.24,2.44.29,3.68.1,1.42-.21,2.88-.73,4,.58,0,0,.06,0,0,0Z" transform="translate(-134.35 15.33)"/>
    <path class="cls-3" d="M159.12,258.49c1-.6,2.53.22,3.67.16a22.22,22.22,0,0,1,4.21-.31s0,0,0,0c-1.55-.21-3,.33-4.49.32-1.11,0-2.42-.79-3.43-.16,0,0,0,.06,0,0Z" transform="translate(-134.35 15.33)"/>
    <path class="cls-3" d="M171.21,254.08a3.68,3.68,0,0,0-2,.3c-1.72.68-3,1.35-4.86.54,0,0-.05,0,0,0a4.36,4.36,0,0,0,2.48.38c1.56-.25,2.77-1.46,4.43-1.21,0,0,0,0,0,0Z" transform="translate(-134.35 15.33)"/>
    <path class="cls-3" d="M160.31,268.84A26.25,26.25,0,0,1,166,269s0,0,0-.05a26.25,26.25,0,0,0-5.72-.11s0,.05,0,.05Z" transform="translate(-134.35 15.33)"/>
    <path class="cls-3" d="M170.43,264.74c-1.83-1.12-3.54,1.3-5.43.78a0,0,0,0,0,0,0c1.92.53,3.59-1.91,5.41-.78,0,0,.05,0,0,0Z" transform="translate(-134.35 15.33)"/>
    <path class="cls-3" d="M171.08,272.16c-1.81-1.26-4,1.4-5.66-.1,0,0-.06,0,0,0,1.71,1.5,3.87-1.14,5.67.11,0,0,.05,0,0,0Z" transform="translate(-134.35 15.33)"/>
    <path class="cls-3" d="M170.64,251.52l-4.83.24s0,.05,0,0l4.83-.24s0-.05,0,0Z" transform="translate(-134.35 15.33)"/>
    <path class="cls-3" d="M156.38,200a11.73,11.73,0,0,1,9.89-.6c.21.08.3-.26.09-.34a12.07,12.07,0,0,0-10.16.64c-.2.11,0,.41.18.3Z" transform="translate(-134.35 15.33)"/>
    <path class="cls-3" d="M160.95,276.54q3.38-.46,6.77-.75s0-.05,0-.05q-3.4.28-6.79.75s0,.05,0,0Z" transform="translate(-134.35 15.33)"/>
    <path class="cls-3" d="M170.87,279.8c-1.8-.65-3.54.24-5.1,1.12a0,0,0,0,0,0,0c1.54-.88,3.27-1.76,5.06-1.12,0,0,0,0,0,0Z" transform="translate(-134.35 15.33)"/>
    <path class="cls-3" d="M161.3,283.91c.64.49,1.27.27,2,0a8.67,8.67,0,0,1,4.37-.69s0,0,0-.05a7.86,7.86,0,0,0-2.68.1c-1,.23-2.63,1.39-3.66.6,0,0-.05,0,0,0Z" transform="translate(-134.35 15.33)"/>
    <path class="cls-3" d="M170.12,284.59a24,24,0,0,1-5.6,1.4s0,.05,0,.05a24,24,0,0,0,5.61-1.4s0-.06,0,0Z" transform="translate(-134.35 15.33)"/>
    <path class="cls-3" d="M161.54,291.67a19.44,19.44,0,0,0,6.59.09s0-.05,0,0a19.31,19.31,0,0,1-6.56-.09s0,0,0,0Z" transform="translate(-134.35 15.33)"/>
    <path class="cls-3" d="M168.83,301.47l-5.38,1.41a0,0,0,0,0,0,0l5.38-1.41a0,0,0,0,0,0,0Z" transform="translate(-134.35 15.33)"/>
    <path class="cls-3" d="M162.6,299.28c.41-.82,2-.16,2.69-.13a6,6,0,0,0,2.11-.3s0-.06,0,0a7.89,7.89,0,0,1-3.7,0c-.47-.06-.9,0-1.13.41,0,0,0,.05,0,0Z" transform="translate(-134.35 15.33)"/>
    <path class="cls-3" d="M170.08,295.54l-4.83.33s0,.05,0,.05l4.83-.33s0-.05,0-.05Z" transform="translate(-134.35 15.33)"/>
    <path class="cls-3" d="M162.09,310.59a9.34,9.34,0,0,0,4.81-.26s0-.06,0,0a9.28,9.28,0,0,1-4.79.26s0,0,0,0Z" transform="translate(-134.35 15.33)"/>
    <path class="cls-3" d="M169.78,306.88l-4.81.72s0,.05,0,0l4.81-.72s0-.05,0,0Z" transform="translate(-134.35 15.33)"/>
    <path class="cls-3" d="M162.87,315.46c1.43-.57,3.22,1.43,4.46.13,0,0,0-.06,0,0-1.23,1.29-3-.72-4.44-.14,0,0,0,.06,0,0Z" transform="translate(-134.35 15.33)"/>
    <path class="cls-3" d="M169.69,313.35l-3.51.24s0,.05,0,.05l3.51-.24s0-.05,0-.05Z" transform="translate(-134.35 15.33)"/>
    <path class="cls-3" d="M163.48,324.6a4.33,4.33,0,0,1,4.08.05s.05,0,0,0a4.39,4.39,0,0,0-4.13-.05s0,.06,0,0Z" transform="translate(-134.35 15.33)"/>
    <path class="cls-3" d="M169.47,321.72l-4.38.38s0,.05,0,.05l4.38-.38s0-.05,0-.05Z" transform="translate(-134.35 15.33)"/>
    <path class="cls-3" d="M162.93,319a28.86,28.86,0,0,1,4.62-.07s0,0,0-.05a28.86,28.86,0,0,0-4.62.07s0,.05,0,0Z" transform="translate(-134.35 15.33)"/>
    <path class="cls-3" d="M169.61,328.17c-1.38-1.15-3.2,1-4.59-.07,0,0-.06,0,0,0,1.39,1.12,3.22-1.07,4.59.07,0,0,.06,0,0,0Z" transform="translate(-134.35 15.33)"/>
    <path class="cls-3" d="M162.92,331.1a41.79,41.79,0,0,0,4.85.58s0,0,0-.05a41.7,41.7,0,0,1-4.84-.57s0,0,0,0Z" transform="translate(-134.35 15.33)"/>
    <path class="cls-3" d="M345,64.63c1.3-.36,2.46-1.1,3.75-1.46a.18.18,0,0,0-.09-.34c-1.3.36-2.46,1.1-3.75,1.46a.18.18,0,0,0,.09.34Z" transform="translate(-134.35 15.33)"/>
    <path class="cls-3" d="M348.5,63.05q7.86,21.47,13.79,43.55a.18.18,0,0,0,.34-.09Q356.7,84.43,348.84,63c-.08-.21-.42-.12-.34.09Z" transform="translate(-134.35 15.33)"/>
    <path class="cls-3" d="M350,64.84l1.09-.28a.18.18,0,0,0-.09-.34l-1.09.28a.18.18,0,0,0,.09.34Z" transform="translate(-134.35 15.33)"/>
    <path class="cls-3" d="M351.69,64l.19-.67a.18.18,0,0,0-.34-.09l-.19.67a.18.18,0,0,0,.34.09Z" transform="translate(-134.35 15.33)"/>
    <path class="cls-3" d="M351.67,63h.22c.22,0,.23-.36,0-.35h-.22c-.22,0-.23.36,0,.35Z" transform="translate(-134.35 15.33)"/>
    <path class="cls-3" d="M352.13,63.18a189.57,189.57,0,0,1,7,31.48c0,.22.37.13.34-.09a189.57,189.57,0,0,0-7-31.48c-.07-.21-.41-.12-.34.09Z" transform="translate(-134.35 15.33)"/>
    <path class="cls-3" d="M352.35,63.06q0-2.32.21-4.62c0-.22-.33-.22-.35,0q-.21,2.31-.21,4.62a.18.18,0,0,0,.35,0Z" transform="translate(-134.35 15.33)"/>
    <path class="cls-3" d="M352.44,58.61c1.11-.16,2.24-.16,3.35-.32.22,0,.13-.37-.09-.34-1.11.16-2.24.16-3.35.32-.22,0-.13.37.09.34Z" transform="translate(-134.35 15.33)"/>
    <path class="cls-3" d="M355.57,58.16c7.32,26.39,15.64,52.73,21,79.62,0,.22.38.13.34-.09-5.31-26.89-13.63-53.23-21-79.62a.18.18,0,0,0-.34.09Z" transform="translate(-134.35 15.33)"/>
    <path class="cls-3" d="M358.46,65.54l1.29-.51c.21-.08.12-.42-.09-.34l-1.29.51c-.21.08-.12.42.09.34Z" transform="translate(-134.35 15.33)"/>
    <path class="cls-3" d="M360.05,64.68l.18-.67a.18.18,0,0,0-.34-.09l-.18.67a.18.18,0,0,0,.34.09Z" transform="translate(-134.35 15.33)"/>
    <path class="cls-3" d="M360.42,64.07a1.18,1.18,0,0,0,1,.44c.22,0,.23-.36,0-.35a.87.87,0,0,1-.78-.34c-.14-.17-.39.08-.25.25Z" transform="translate(-134.35 15.33)"/>
    <path class="cls-3" d="M361.27,64.29c-.51,2.77.65,5.87,1,8.64.61,4.5,1,9,1.22,13.54,0,.22.36.23.35,0-.2-4-.51-7.93-1-11.88-.4-3.2-1.84-7.06-1.26-10.21,0-.22-.3-.31-.34-.09Z" transform="translate(-134.35 15.33)"/>
    <path
    class="cls-3"
    d="M344.75,64.51c4.75,11.91,7.83,24.59,11.48,36.87,3.59,12.06,7.87,24.14,10.14,36.54,0,.22.38.13.34-.09-2.27-12.4-6.55-24.48-10.14-36.54-3.65-12.28-6.73-25-11.48-36.87-.08-.21-.42-.12-.34.09Z"
    transform="translate(-134.35 15.33)"/>
    <path class="cls-3" d="M366.55,138.23a14.42,14.42,0,0,0-3.8,17.56c.09.2.4,0,.3-.18a14.09,14.09,0,0,1,3.75-17.13c.17-.15-.08-.39-.25-.25Z" transform="translate(-134.35 15.33)"/>
    <path
    class="cls-3"
    d="M362.73,155.66a12.11,12.11,0,0,0,1,6.74,43.55,43.55,0,0,1,2.07,4.79c.47,1.78-.05,3.56.48,5.33a.18.18,0,0,0,.34-.09c-.63-2.12,0-4.13-.81-6.21-1.34-3.47-3.38-6.54-2.73-10.46,0-.22-.3-.32-.34-.09Z"
    transform="translate(-134.35 15.33)"/>
    <path class="cls-3" d="M366.29,172.55c1.43,2.37.67,5,1.08,7.57.56,3.51,1.45,6.44,1,10.1,0,.22.32.22.35,0a20.56,20.56,0,0,0,.22-5.35c-.25-2-1.11-3.75-1.29-5.73-.21-2.38.27-4.63-1-6.78a.18.18,0,0,0-.3.18Z" transform="translate(-134.35 15.33)"/>
    <path class="cls-3" d="M368.33,190.23c.14,3.34.92,6.56.76,9.91a27.09,27.09,0,0,0,1.2,9.19.18.18,0,0,0,.34-.09,32.17,32.17,0,0,1-1.09-10.2c.08-3-.73-5.86-.86-8.81,0-.22-.36-.23-.35,0Z" transform="translate(-134.35 15.33)"/>
    <path
    class="cls-3"
    d="M376.52,137.74a2.68,2.68,0,0,0,.85,1.88c1.32,1.74,3.25,2.64,4.36,4.71,2.07,3.87.5,8.29,2.18,12.23.09.21.39,0,.3-.18-1.54-3.62-.23-7.63-1.73-11.27a11.73,11.73,0,0,0-1.6-2.75c-1-1.26-3.89-3-4-4.63,0-.22-.37-.23-.35,0Z"
    transform="translate(-134.35 15.33)"/>
    <path
    class="cls-3"
    d="M383.9,156.38c-1.05,2-2,4-1.7,6.31a18.76,18.76,0,0,1,.29,5.7,15.84,15.84,0,0,0-.26,4.11c0,.22.37.22.35,0-.27-2.58.83-5.06.5-7.62a28.87,28.87,0,0,1-.62-3.1,11.16,11.16,0,0,1,1.74-5.23c.11-.2-.2-.38-.3-.18Z"
    transform="translate(-134.35 15.33)"/>
    <path class="cls-3" d="M382.23,172.55c.93,3.27-.34,6.53-.12,9.85a48.6,48.6,0,0,1-.82,12.15c0,.22.3.31.34.09.62-3.54,1.46-7.15,1.13-10.74-.35-3.75.84-7.8-.19-11.44a.18.18,0,0,0-.34.09Z" transform="translate(-134.35 15.33)"/>
    <path
    class="cls-3"
    d="M381.29,194.59a18.44,18.44,0,0,0,.35,3.81c.48,2.95-.37,5.2-.52,8.06a9.81,9.81,0,0,0,.29,2.42,33.54,33.54,0,0,1,.21,6.61.18.18,0,0,0,.35,0c.09-3.9-.43-7.9.08-11.7.43-3.21-.55-6-.42-9.2,0-.23-.34-.22-.35,0Z"
    transform="translate(-134.35 15.33)"/>
    <path class="cls-3" d="M370.35,209.28c-.84,5,.12,9.59,1,14.46,1.34,7.17.12,14.19,1,21.35,0,.22.38.22.35,0-.69-5.72.36-11.44-.29-17.15-.71-6.28-2.82-12.17-1.74-18.57,0-.22-.3-.32-.34-.09Z" transform="translate(-134.35 15.33)"/>
    <path class="cls-3" d="M372.48,244.85c-.83,8.17.82,16.23.17,24.41,0,.22.33.22.35,0,.66-8.22-1-16.23-.17-24.41,0-.22-.33-.22-.35,0Z" transform="translate(-134.35 15.33)"/>
    <path class="cls-3" d="M372.64,269.75a83.83,83.83,0,0,1-5.94,42.51c-.09.21.25.3.34.09a83.93,83.93,0,0,0,6-42.61c0-.22-.38-.22-.35,0Z" transform="translate(-134.35 15.33)"/>
    <path class="cls-3" d="M367.14,311.22c-.93,3.33-2.23,6.57-3,9.94-.43,1.82-.48,3.58.78,5.06.15.17.39-.08.25-.25-2.83-3.34,1.34-11.05,2.35-14.66a.18.18,0,0,0-.34-.09Z" transform="translate(-134.35 15.33)"/>
    <path class="cls-3" d="M365.16,326.19a37,37,0,0,0,2-4.89,46.24,46.24,0,0,1,3-6c1.95-3.78,2.84-8.28,4.06-12.33a.18.18,0,0,0-.34-.09c-1.41,4.7-2.48,9.74-5.07,13.94-1.8,2.92-2.38,6.12-4,9.2-.1.2.2.38.3.18Z" transform="translate(-134.35 15.33)"/>
    <path class="cls-3" d="M373.91,304a125.75,125.75,0,0,0,4.81-21.18c0-.22-.32-.22-.35,0a125.21,125.21,0,0,1-4.8,21.08c-.07.22.27.31.34.09Z" transform="translate(-134.35 15.33)"/>
    <path class="cls-3" d="M378.74,283.2c1.51-6.68,1.47-13.66,1.66-20.47a.18.18,0,0,0-.35,0c-.19,6.77-.14,13.75-1.65,20.38,0,.22.29.31.34.09Z" transform="translate(-134.35 15.33)"/>
    <path class="cls-3" d="M380.39,262.72c-.2-3.5-.49-6.3.2-9.79a14.46,14.46,0,0,0,.12-5.16c0-.22-.37-.13-.34.09.44,2.67-.39,4.9-.73,7.48-.32,2.43.26,4.95.4,7.38,0,.22.36.23.35,0Z" transform="translate(-134.35 15.33)"/>
    <path class="cls-3" d="M380.83,248.81c-.84-8.2.89-16.36.72-24.61a.18.18,0,0,0-.35,0c.17,8.26-1.57,16.36-.72,24.61,0,.22.37.22.35,0Z" transform="translate(-134.35 15.33)"/>
    <path class="cls-3" d="M381.55,224.15c-.92-3,1.05-5.72.42-8.71,0-.22-.38-.13-.34.09.63,3-1.35,5.72-.42,8.71.07.21.4.12.34-.09Z" transform="translate(-134.35 15.33)"/>
    <path class="cls-3" d="M361.44,147.72l12.93-.61s0-.05,0-.05l-12.93.61s0,.05,0,.05Z" transform="translate(-134.35 15.33)"/>
    <path class="cls-3" d="M383.14,148.77a107.6,107.6,0,0,0-11.05,1.13s0,.05,0,0a107.47,107.47,0,0,1,11-1.13s0-.05,0,0Z" transform="translate(-134.35 15.33)"/>
    <path class="cls-3" d="M362.91,155.72c1.5-.7,3.05,0,4.59-.11,2.1-.2,4-1.1,6.15-1.11a0,0,0,0,0,0,0,15.27,15.27,0,0,0-3,.27,19.72,19.72,0,0,1-3.59.85c-1.41,0-2.83-.52-4.16.1,0,0,0,.06,0,0Z" transform="translate(-134.35 15.33)"/>
    <path class="cls-3" d="M383,157.55a2.88,2.88,0,0,0-2.43-.59c-2.05.28-4,1-6.08,1.27,0,0,0,.05,0,.05a26.44,26.44,0,0,0,3.46-.61c1.59-.4,3.51-1.32,5-.08,0,0,.06,0,0,0Z" transform="translate(-134.35 15.33)"/>
    <path class="cls-3" d="M377.12,154.06c.94-.62,2.12-.07,3.14,0a8.56,8.56,0,0,0,2.79-.36,0,0,0,0,0,0,0,9.52,9.52,0,0,1-4.32.15,2.11,2.11,0,0,0-1.63.23s0,.06,0,0Z" transform="translate(-134.35 15.33)"/>
    <path class="cls-3" d="M377.49,142.9l4.2,1a0,0,0,0,0,0,0l-4.2-1a0,0,0,0,0,0,0Z" transform="translate(-134.35 15.33)"/>
    <path class="cls-3" d="M366,164.35c1.24-1.21,3.36-.49,4.89-.59a25.35,25.35,0,0,0,4-.7s0-.06,0,0a22.2,22.2,0,0,1-6.29.63,3.16,3.16,0,0,0-2.67.67s0,.06,0,0Z" transform="translate(-134.35 15.33)"/>
    <path class="cls-3" d="M382.41,168.91a3.81,3.81,0,0,0-1.77.21c-1.73.34-3.21-.39-4.88-.64a3.87,3.87,0,0,0-3.21.7s0,.06,0,0c1.92-1.53,4-.33,6,0,1.31.2,2.56-.48,3.81-.23,0,0,0,0,0,0Z" transform="translate(-134.35 15.33)"/>
    <path class="cls-3" d="M367.51,180.18a52.81,52.81,0,0,1,8.74-1.15,0,0,0,0,0,0-.05,52.91,52.91,0,0,0-8.76,1.15s0,.05,0,0Z" transform="translate(-134.35 15.33)"/>
    <path class="cls-3" d="M382.12,178a4.31,4.31,0,0,0-3.1-1.51c-2.13-.35-4.3-.55-6.45-.73,0,0,0,0,0,.05,1.44.12,2.87.26,4.3.44,1.71.21,4.06.22,5.21,1.78,0,0,.06,0,0,0Z" transform="translate(-134.35 15.33)"/>
    <path class="cls-3" d="M368.79,188.81c3.15-1.11,6.57.13,9.73-.94,0,0,0-.06,0,0-3.16,1.07-6.58-.16-9.73.94,0,0,0,.06,0,0Z" transform="translate(-134.35 15.33)"/>
    <path class="cls-3" d="M382.47,184.83a3.08,3.08,0,0,0-2.4-1,14.84,14.84,0,0,1-3.34.31,6.06,6.06,0,0,0-2,0s0,.05,0,0c1.25-.24,2.44.29,3.68.1,1.42-.21,2.88-.73,4,.58,0,0,.06,0,0,0Z" transform="translate(-134.35 15.33)"/>
    <path class="cls-3" d="M369.5,197c1-.6,2.53.22,3.67.16a22.22,22.22,0,0,1,4.21-.31s0,0,0,0c-1.55-.21-3,.33-4.49.32-1.11,0-2.42-.79-3.43-.16,0,0,0,.06,0,0Z" transform="translate(-134.35 15.33)"/>
    <path class="cls-3" d="M381.59,192.61a3.68,3.68,0,0,0-2,.3c-1.72.68-3,1.35-4.86.54,0,0-.05,0,0,0a4.36,4.36,0,0,0,2.48.38c1.56-.25,2.77-1.46,4.43-1.21,0,0,0,0,0,0Z" transform="translate(-134.35 15.33)"/>
    <path class="cls-3" d="M370.69,207.37a26.25,26.25,0,0,1,5.72.11s0,0,0-.05a26.25,26.25,0,0,0-5.72-.11s0,.05,0,.05Z" transform="translate(-134.35 15.33)"/>
    <path class="cls-3" d="M380.81,203.26c-1.83-1.12-3.54,1.3-5.43.78a0,0,0,0,0,0,0c1.92.53,3.59-1.91,5.41-.78,0,0,.05,0,0,0Z" transform="translate(-134.35 15.33)"/>
    <path class="cls-3" d="M381.46,210.69c-1.81-1.26-4,1.4-5.66-.1,0,0-.06,0,0,0,1.71,1.5,3.87-1.14,5.67.11,0,0,.05,0,0,0Z" transform="translate(-134.35 15.33)"/>
    <path class="cls-3" d="M381,190.05l-4.83.24s0,.05,0,.05l4.83-.24s0-.05,0-.05Z" transform="translate(-134.35 15.33)"/>
    <path class="cls-3" d="M366.76,138.51a11.73,11.73,0,0,1,9.89-.6c.21.08.3-.26.09-.34a12.07,12.07,0,0,0-10.16.64c-.2.11,0,.41.18.3Z" transform="translate(-134.35 15.33)"/>
    <path class="cls-3" d="M371.33,215.07q3.38-.46,6.77-.75s0-.05,0-.05q-3.4.28-6.79.75s0,.05,0,0Z" transform="translate(-134.35 15.33)"/>
    <path class="cls-3" d="M381.25,218.33c-1.8-.65-3.54.24-5.1,1.12a0,0,0,0,0,0,0c1.54-.88,3.27-1.76,5.06-1.12,0,0,0,0,0,0Z" transform="translate(-134.35 15.33)"/>
    <path class="cls-3" d="M371.68,222.44c.64.49,1.27.27,2,0a8.67,8.67,0,0,1,4.37-.69s0,0,0,0a7.86,7.86,0,0,0-2.68.1c-1,.23-2.63,1.39-3.66.6,0,0-.05,0,0,0Z" transform="translate(-134.35 15.33)"/>
    <path class="cls-3" d="M380.5,223.12a24,24,0,0,1-5.6,1.4s0,.05,0,.05a24,24,0,0,0,5.61-1.4s0-.06,0,0Z" transform="translate(-134.35 15.33)"/>
    <path class="cls-3" d="M371.92,230.2a19.44,19.44,0,0,0,6.59.09s0-.05,0,0a19.31,19.31,0,0,1-6.56-.09s0,0,0,0Z" transform="translate(-134.35 15.33)"/>
    <path class="cls-3" d="M379.21,240l-5.38,1.41a0,0,0,0,0,0,0l5.38-1.41a0,0,0,0,0,0,0Z" transform="translate(-134.35 15.33)"/>
    <path class="cls-3" d="M373,237.81c.41-.82,2-.16,2.69-.13a6,6,0,0,0,2.11-.3s0-.06,0,0a7.89,7.89,0,0,1-3.7,0c-.47-.06-.9,0-1.13.41,0,0,0,.05,0,0Z" transform="translate(-134.35 15.33)"/>
    <path class="cls-3" d="M380.46,234.07l-4.83.33s0,.05,0,0l4.83-.33s0-.05,0-.05Z" transform="translate(-134.35 15.33)"/>
    <path class="cls-3" d="M372.47,249.12a9.34,9.34,0,0,0,4.81-.26s0-.06,0,0a9.28,9.28,0,0,1-4.79.26s0,0,0,0Z" transform="translate(-134.35 15.33)"/>
    <path class="cls-3" d="M380.15,245.41l-4.81.72s0,.05,0,0l4.81-.72s0-.05,0,0Z" transform="translate(-134.35 15.33)"/>
    <path class="cls-3" d="M373.25,254c1.43-.57,3.22,1.43,4.46.13,0,0,0-.06,0,0-1.23,1.29-3-.72-4.44-.14,0,0,0,.06,0,0Z" transform="translate(-134.35 15.33)"/>
    <path class="cls-3" d="M380.07,251.88l-3.51.24s0,.05,0,.05l3.51-.24s0-.05,0,0Z" transform="translate(-134.35 15.33)"/>
    <path class="cls-3" d="M373.86,263.13a4.33,4.33,0,0,1,4.08.05s.05,0,0,0a4.39,4.39,0,0,0-4.13-.05s0,.06,0,0Z" transform="translate(-134.35 15.33)"/>
    <path class="cls-3" d="M379.85,260.25l-4.38.38s0,.05,0,.05l4.38-.38s0-.05,0-.05Z" transform="translate(-134.35 15.33)"/>
    <path class="cls-3" d="M373.31,257.5a28.86,28.86,0,0,1,4.62-.07s0,0,0-.05a28.86,28.86,0,0,0-4.62.07s0,.05,0,.05Z" transform="translate(-134.35 15.33)"/>
    <path class="cls-3" d="M380,266.7c-1.38-1.15-3.2,1-4.59-.07,0,0-.06,0,0,0,1.39,1.12,3.22-1.07,4.59.07,0,0,.06,0,0,0Z" transform="translate(-134.35 15.33)"/>
    <path class="cls-3" d="M373.3,269.63a41.79,41.79,0,0,0,4.85.58s0,0,0-.05a41.7,41.7,0,0,1-4.84-.57s0,0,0,0Z" transform="translate(-134.35 15.33)"/>
    <path class="cls-3" d="M289.25,334.38c1.3-.36,2.46-1.1,3.75-1.46a.18.18,0,0,0-.09-.34c-1.3.36-2.46,1.1-3.75,1.46a.18.18,0,0,0,.09.34Z" transform="translate(-134.35 15.33)"/>
    <path class="cls-3" d="M292.79,332.79q7.86,21.47,13.79,43.55a.18.18,0,0,0,.34-.09Q301,354.18,293.13,332.7c-.08-.21-.42-.12-.34.09Z" transform="translate(-134.35 15.33)"/>
    <path class="cls-3" d="M294.33,334.58l1.09-.28a.18.18,0,0,0-.09-.34l-1.09.28a.18.18,0,0,0,.09.34Z" transform="translate(-134.35 15.33)"/>
    <path class="cls-3" d="M296,333.77l.19-.67a.18.18,0,0,0-.34-.09l-.19.67a.18.18,0,0,0,.34.09Z" transform="translate(-134.35 15.33)"/>
    <path class="cls-3" d="M296,332.79h.22c.22,0,.23-.36,0-.35H296c-.22,0-.23.36,0,.35Z" transform="translate(-134.35 15.33)"/>
    <path class="cls-3" d="M296.41,332.92a189.57,189.57,0,0,1,7,31.48c0,.22.37.13.34-.09a189.57,189.57,0,0,0-7-31.48c-.07-.21-.41-.12-.34.09Z" transform="translate(-134.35 15.33)"/>
    <path class="cls-3" d="M296.64,332.8q0-2.32.21-4.62c0-.22-.33-.22-.35,0q-.21,2.31-.21,4.62a.18.18,0,0,0,.35,0Z" transform="translate(-134.35 15.33)"/>
    <path class="cls-3" d="M296.73,328.35c1.11-.16,2.24-.16,3.35-.32.22,0,.13-.37-.09-.34-1.11.16-2.24.16-3.35.32-.22,0-.13.37.09.34Z" transform="translate(-134.35 15.33)"/>
    <path class="cls-3" d="M299.86,327.9c7.32,26.39,15.64,52.73,21,79.62,0,.22.38.13.34-.09-5.31-26.89-13.63-53.23-21-79.62a.18.18,0,0,0-.34.09Z" transform="translate(-134.35 15.33)"/>
    <path class="cls-3" d="M302.74,335.28l1.29-.51c.21-.08.12-.42-.09-.34l-1.29.51c-.21.08-.12.42.09.34Z" transform="translate(-134.35 15.33)"/>
    <path class="cls-3" d="M304.34,334.42l.18-.67a.18.18,0,0,0-.34-.09l-.18.67a.18.18,0,0,0,.34.09Z" transform="translate(-134.35 15.33)"/>
    <path class="cls-3" d="M304.71,333.81a1.18,1.18,0,0,0,1,.44c.22,0,.23-.36,0-.35a.87.87,0,0,1-.78-.34c-.14-.17-.39.08-.25.25Z" transform="translate(-134.35 15.33)"/>
    <path class="cls-3" d="M305.56,334c-.51,2.77.65,5.87,1,8.64.61,4.5,1,9,1.22,13.54,0,.22.36.23.35,0-.2-4-.51-7.93-1-11.88-.4-3.2-1.84-7.06-1.26-10.21,0-.22-.3-.31-.34-.09Z" transform="translate(-134.35 15.33)"/>
    <path class="cls-3" d="M289,334.25c4.75,11.91,7.83,24.59,11.48,36.87,3.59,12.06,7.87,24.14,10.14,36.54,0,.22.38.13.34-.09-2.27-12.4-6.55-24.48-10.14-36.54-3.65-12.28-6.73-25-11.48-36.87-.08-.21-.42-.12-.34.09Z" transform="translate(-134.35 15.33)"/>
    <path class="cls-3" d="M310.83,408a14.42,14.42,0,0,0-3.8,17.56c.09.2.4,0,.3-.18a14.09,14.09,0,0,1,3.75-17.13c.17-.15-.08-.39-.25-.25Z" transform="translate(-134.35 15.33)"/>
    <path
    class="cls-3"
    d="M307,425.4a12.11,12.11,0,0,0,1,6.74,43.55,43.55,0,0,1,2.07,4.79c.47,1.78-.05,3.56.48,5.33a.18.18,0,0,0,.34-.09c-.63-2.12,0-4.13-.81-6.21-1.34-3.47-3.38-6.54-2.73-10.46,0-.22-.3-.32-.34-.09Z"
    transform="translate(-134.35 15.33)"/>
    <path class="cls-3" d="M310.57,442.29c1.43,2.37.67,5,1.08,7.57.56,3.51,1.45,6.44,1,10.1,0,.22.32.22.35,0a20.56,20.56,0,0,0,.22-5.35c-.25-2-1.11-3.75-1.29-5.73-.21-2.38.27-4.63-1-6.78a.18.18,0,0,0-.3.18Z" transform="translate(-134.35 15.33)"/>
    <path class="cls-3" d="M312.62,460c.14,3.34.92,6.56.76,9.91a27.09,27.09,0,0,0,1.2,9.19.18.18,0,0,0,.34-.09,32.17,32.17,0,0,1-1.09-10.2c.08-3-.73-5.86-.86-8.81,0-.22-.36-.23-.35,0Z" transform="translate(-134.35 15.33)"/>
    <path
    class="cls-3"
    d="M320.8,407.48a2.68,2.68,0,0,0,.85,1.88c1.32,1.74,3.25,2.64,4.36,4.71,2.07,3.87.5,8.29,2.18,12.23.09.21.39,0,.3-.18-1.54-3.62-.23-7.63-1.73-11.27a11.73,11.73,0,0,0-1.6-2.75c-1-1.26-3.89-3-4-4.63,0-.22-.37-.23-.35,0Z"
    transform="translate(-134.35 15.33)"/>
    <path
    class="cls-3"
    d="M328.18,426.12c-1.05,2-2,4-1.7,6.31a18.76,18.76,0,0,1,.29,5.7,15.84,15.84,0,0,0-.26,4.11c0,.22.37.22.35,0-.27-2.58.83-5.06.5-7.62a28.87,28.87,0,0,1-.62-3.1,11.16,11.16,0,0,1,1.74-5.23c.11-.2-.2-.38-.3-.18Z"
    transform="translate(-134.35 15.33)"/>
    <path class="cls-3" d="M326.52,442.29c.93,3.27-.34,6.53-.12,9.85a48.6,48.6,0,0,1-.82,12.15c0,.22.3.31.34.09.62-3.54,1.46-7.15,1.13-10.74-.35-3.75.84-7.8-.19-11.44a.18.18,0,0,0-.34.09Z" transform="translate(-134.35 15.33)"/>
    <path
    class="cls-3"
    d="M325.58,464.34a18.44,18.44,0,0,0,.35,3.81c.48,2.95-.37,5.2-.52,8.06a9.81,9.81,0,0,0,.29,2.42,33.54,33.54,0,0,1,.21,6.61.18.18,0,0,0,.35,0c.09-3.9-.43-7.9.08-11.7.43-3.21-.55-6-.42-9.2,0-.23-.34-.22-.35,0Z"
    transform="translate(-134.35 15.33)"/>
    <path class="cls-3" d="M314.64,479c-.84,5,.12,9.59,1,14.46,1.34,7.17.12,14.19,1,21.35,0,.22.38.22.35,0-.69-5.72.36-11.44-.29-17.15-.71-6.28-2.82-12.17-1.74-18.57,0-.22-.3-.32-.34-.09Z" transform="translate(-134.35 15.33)"/>
    <path class="cls-3" d="M316.76,514.59c-.83,8.17.82,16.23.17,24.41,0,.22.33.22.35,0,.66-8.22-1-16.23-.17-24.41,0-.22-.33-.22-.35,0Z" transform="translate(-134.35 15.33)"/>
    <path class="cls-3" d="M316.93,539.49A83.83,83.83,0,0,1,311,582c-.09.21.25.3.34.09a83.93,83.93,0,0,0,6-42.61c0-.22-.38-.22-.35,0Z" transform="translate(-134.35 15.33)"/>
    <path class="cls-3" d="M311.43,581c-.93,3.33-2.23,6.57-3,9.94-.43,1.82-.48,3.58.78,5.06.15.17.39-.08.25-.25-2.83-3.34,1.34-11.05,2.35-14.66a.18.18,0,0,0-.34-.09Z" transform="translate(-134.35 15.33)"/>
    <path class="cls-3" d="M309.45,595.93a37,37,0,0,0,2-4.89,46.24,46.24,0,0,1,3-6c1.95-3.78,2.84-8.28,4.06-12.33a.18.18,0,0,0-.34-.09c-1.41,4.7-2.48,9.74-5.07,13.94-1.8,2.92-2.38,6.12-4,9.2-.1.2.2.38.3.18Z" transform="translate(-134.35 15.33)"/>
    <path class="cls-3" d="M318.2,573.78A125.75,125.75,0,0,0,323,552.6c0-.22-.32-.22-.35,0a125.21,125.21,0,0,1-4.8,21.08c-.07.22.27.31.34.09Z" transform="translate(-134.35 15.33)"/>
    <path class="cls-3" d="M323,552.94c1.51-6.68,1.47-13.66,1.66-20.47a.18.18,0,0,0-.35,0c-.19,6.77-.14,13.75-1.65,20.38,0,.22.29.31.34.09Z" transform="translate(-134.35 15.33)"/>
    <path class="cls-3" d="M324.68,532.46c-.2-3.5-.49-6.3.2-9.79a14.46,14.46,0,0,0,.12-5.16c0-.22-.37-.13-.34.09.44,2.67-.39,4.9-.73,7.48-.32,2.43.26,4.95.4,7.38,0,.22.36.23.35,0Z" transform="translate(-134.35 15.33)"/>
    <path class="cls-3" d="M325.12,518.55c-.84-8.2.89-16.36.72-24.61a.18.18,0,0,0-.35,0c.17,8.26-1.57,16.36-.72,24.61,0,.22.37.22.35,0Z" transform="translate(-134.35 15.33)"/>
    <path class="cls-3" d="M325.83,493.9c-.92-3,1.05-5.72.42-8.71,0-.22-.38-.13-.34.09.63,3-1.35,5.72-.42,8.71.07.21.4.12.34-.09Z" transform="translate(-134.35 15.33)"/>
    <path class="cls-3" d="M305.72,417.46l12.93-.61s0-.05,0-.05l-12.93.61s0,.05,0,0Z" transform="translate(-134.35 15.33)"/>
    <path class="cls-3" d="M327.42,418.51a107.6,107.6,0,0,0-11.05,1.13s0,.05,0,0a107.47,107.47,0,0,1,11-1.13s0-.05,0-.05Z" transform="translate(-134.35 15.33)"/>
    <path class="cls-3" d="M307.2,425.47c1.5-.7,3.05,0,4.59-.11,2.1-.2,4-1.1,6.15-1.11a0,0,0,0,0,0-.05,15.27,15.27,0,0,0-3,.27,19.72,19.72,0,0,1-3.59.85c-1.41,0-2.83-.52-4.16.1,0,0,0,.06,0,0Z" transform="translate(-134.35 15.33)"/>
    <path class="cls-3" d="M327.29,427.29a2.88,2.88,0,0,0-2.43-.59c-2.05.28-4,1-6.08,1.27,0,0,0,.05,0,0a26.44,26.44,0,0,0,3.46-.61c1.59-.4,3.51-1.32,5-.08,0,0,.06,0,0,0Z" transform="translate(-134.35 15.33)"/>
    <path class="cls-3" d="M321.41,423.8c.94-.62,2.12-.07,3.14,0a8.56,8.56,0,0,0,2.79-.36,0,0,0,0,0,0,0,9.52,9.52,0,0,1-4.32.15,2.11,2.11,0,0,0-1.63.23s0,.06,0,0Z" transform="translate(-134.35 15.33)"/>
    <path class="cls-3" d="M321.78,412.64l4.2,1a0,0,0,0,0,0,0l-4.2-1a0,0,0,0,0,0,0Z" transform="translate(-134.35 15.33)"/>
    <path class="cls-3" d="M310.29,434.1c1.24-1.21,3.36-.49,4.89-.59a25.35,25.35,0,0,0,4-.7s0-.06,0,0a22.2,22.2,0,0,1-6.29.63,3.16,3.16,0,0,0-2.67.67s0,.06,0,0Z" transform="translate(-134.35 15.33)"/>
    <path class="cls-3" d="M326.7,438.66a3.81,3.81,0,0,0-1.77.21c-1.73.34-3.21-.39-4.88-.64a3.87,3.87,0,0,0-3.21.7s0,.06,0,0c1.92-1.53,4-.33,6,0,1.31.2,2.56-.48,3.81-.23,0,0,0,0,0,0Z" transform="translate(-134.35 15.33)"/>
    <path class="cls-3" d="M311.8,449.92a52.81,52.81,0,0,1,8.74-1.15,0,0,0,0,0,0-.05,52.91,52.91,0,0,0-8.76,1.15s0,.05,0,0Z" transform="translate(-134.35 15.33)"/>
    <path class="cls-3" d="M326.41,447.79a4.31,4.31,0,0,0-3.1-1.51c-2.13-.35-4.3-.55-6.45-.73,0,0,0,0,0,0,1.44.12,2.87.26,4.3.44,1.71.21,4.06.22,5.21,1.78,0,0,.06,0,0,0Z" transform="translate(-134.35 15.33)"/>
    <path class="cls-3" d="M313.08,458.55c3.15-1.11,6.57.13,9.73-.94,0,0,0-.06,0,0-3.16,1.07-6.58-.16-9.73.94,0,0,0,.06,0,0Z" transform="translate(-134.35 15.33)"/>
    <path class="cls-3" d="M326.76,454.57a3.08,3.08,0,0,0-2.4-1,14.84,14.84,0,0,1-3.34.31,6.06,6.06,0,0,0-2,0s0,.05,0,0c1.25-.24,2.44.29,3.68.1,1.42-.21,2.88-.73,4,.58,0,0,.06,0,0,0Z" transform="translate(-134.35 15.33)"/>
    <path class="cls-3" d="M313.79,466.76c1-.6,2.53.22,3.67.16a22.22,22.22,0,0,1,4.21-.31s0,0,0,0c-1.55-.21-3,.33-4.49.32-1.11,0-2.42-.79-3.43-.16,0,0,0,.06,0,0Z" transform="translate(-134.35 15.33)"/>
    <path class="cls-3" d="M325.88,462.35a3.68,3.68,0,0,0-2,.3c-1.72.68-3,1.35-4.86.54,0,0-.05,0,0,0a4.36,4.36,0,0,0,2.48.38c1.56-.25,2.77-1.46,4.43-1.21,0,0,0,0,0,0Z" transform="translate(-134.35 15.33)"/>
    <path class="cls-3" d="M315,477.11a26.25,26.25,0,0,1,5.72.11s0,0,0-.05a26.25,26.25,0,0,0-5.72-.11s0,.05,0,.05Z" transform="translate(-134.35 15.33)"/>
    <path class="cls-3" d="M325.1,473c-1.83-1.12-3.54,1.3-5.43.78a0,0,0,0,0,0,0c1.92.53,3.59-1.91,5.41-.78,0,0,.05,0,0,0Z" transform="translate(-134.35 15.33)"/>
    <path class="cls-3" d="M325.74,480.43c-1.81-1.26-4,1.4-5.66-.1,0,0-.06,0,0,0,1.71,1.5,3.87-1.14,5.67.11,0,0,.05,0,0,0Z" transform="translate(-134.35 15.33)"/>
    <path class="cls-3" d="M325.31,459.79l-4.83.24s0,.05,0,.05l4.83-.24s0-.05,0-.05Z" transform="translate(-134.35 15.33)"/>
    <path class="cls-3" d="M311,408.25a11.73,11.73,0,0,1,9.89-.6c.21.08.3-.26.09-.34a12.07,12.07,0,0,0-10.16.64c-.2.11,0,.41.18.3Z" transform="translate(-134.35 15.33)"/>
    <path class="cls-3" d="M315.61,484.81q3.38-.46,6.77-.75s0-.05,0-.05q-3.4.28-6.79.75s0,.05,0,0Z" transform="translate(-134.35 15.33)"/>
    <path class="cls-3" d="M325.53,488.07c-1.8-.65-3.54.24-5.1,1.12a0,0,0,0,0,0,0c1.54-.88,3.27-1.76,5.06-1.12,0,0,0,0,0,0Z" transform="translate(-134.35 15.33)"/>
    <path class="cls-3" d="M316,492.18c.64.49,1.27.27,2,0a8.67,8.67,0,0,1,4.37-.69s0,0,0,0a7.86,7.86,0,0,0-2.68.1c-1,.23-2.63,1.39-3.66.6,0,0-.05,0,0,0Z" transform="translate(-134.35 15.33)"/>
    <path class="cls-3" d="M324.78,492.86a24,24,0,0,1-5.6,1.4s0,.05,0,.05a24,24,0,0,0,5.61-1.4s0-.06,0,0Z" transform="translate(-134.35 15.33)"/>
    <path class="cls-3" d="M316.21,499.94a19.44,19.44,0,0,0,6.59.09s0-.05,0,0a19.31,19.31,0,0,1-6.56-.09s0,0,0,0Z" transform="translate(-134.35 15.33)"/>
    <path class="cls-3" d="M323.49,509.74l-5.38,1.41a0,0,0,0,0,0,0l5.38-1.41a0,0,0,0,0,0,0Z" transform="translate(-134.35 15.33)"/>
    <path class="cls-3" d="M317.27,507.55c.41-.82,2-.16,2.69-.13a6,6,0,0,0,2.11-.3s0-.06,0,0a7.89,7.89,0,0,1-3.7,0c-.47-.06-.9,0-1.13.41,0,0,0,.05,0,0Z" transform="translate(-134.35 15.33)"/>
    <path class="cls-3" d="M324.75,503.81l-4.83.33s0,.05,0,.05l4.83-.33s0-.05,0-.05Z" transform="translate(-134.35 15.33)"/>
    <path class="cls-3" d="M316.76,518.86a9.34,9.34,0,0,0,4.81-.26s0-.06,0,0a9.28,9.28,0,0,1-4.79.26s0,0,0,0Z" transform="translate(-134.35 15.33)"/>
    <path class="cls-3" d="M324.44,515.16l-4.81.72s0,.05,0,0l4.81-.72s0-.05,0,0Z" transform="translate(-134.35 15.33)"/>
    <path class="cls-3" d="M317.53,523.73c1.43-.57,3.22,1.43,4.46.13,0,0,0-.06,0,0-1.23,1.29-3-.72-4.44-.14,0,0,0,.06,0,0Z" transform="translate(-134.35 15.33)"/>
    <path class="cls-3" d="M324.36,521.62l-3.51.24s0,.05,0,0l3.51-.24s0-.05,0-.05Z" transform="translate(-134.35 15.33)"/>
    <path class="cls-3" d="M318.15,532.87a4.33,4.33,0,0,1,4.08.05s.05,0,0,0a4.39,4.39,0,0,0-4.13-.05s0,.06,0,0Z" transform="translate(-134.35 15.33)"/>
    <path class="cls-3" d="M324.13,530l-4.38.38s0,.05,0,0l4.38-.38s0-.05,0,0Z" transform="translate(-134.35 15.33)"/>
    <path class="cls-3" d="M317.59,527.24a28.86,28.86,0,0,1,4.62-.07s0,0,0,0a28.86,28.86,0,0,0-4.62.07s0,.05,0,0Z" transform="translate(-134.35 15.33)"/>
    <path class="cls-3" d="M324.27,536.44c-1.38-1.15-3.2,1-4.59-.07,0,0-.06,0,0,0,1.39,1.12,3.22-1.07,4.59.07,0,0,.06,0,0,0Z" transform="translate(-134.35 15.33)"/>
    <path class="cls-3" d="M317.59,539.37a41.79,41.79,0,0,0,4.85.58s0,0,0-.05a41.7,41.7,0,0,1-4.84-.57s0,0,0,0Z" transform="translate(-134.35 15.33)"/>
    <path class="cls-3" d="M278.21,40.05l3.9.93c.19,0,.27-.24.08-.29l-3.9-.93c-.19,0-.27.24-.08.29Z" transform="translate(-134.35 15.33)"/>
    <path class="cls-3" d="M282.28,40.77c-2.55,20.41-6.92,40.35-10.61,60.55-3.46,18.94-3.74,38-3.69,57.23a.15.15,0,0,0,.3,0c-.06-20.49.46-40.63,4.37-60.81,3.67-19,7.54-37.78,9.93-57,0-.19-.28-.19-.3,0Z" transform="translate(-134.35 15.33)"/>
    <path class="cls-3" d="M278,39.87c-1.9,15.43-4.55,30.45-7.74,45.64-2.85,13.59-1.84,27.76-6.44,41-.06.18.23.26.29.08C268.92,112.8,267.8,98,271,83.83c3.25-14.57,5.53-29.14,7.36-44,0-.19-.28-.19-.3,0Z" transform="translate(-134.35 15.33)"/>
    <path class="cls-3" d="M244.08,44.14c4.48,13.09,6.88,27,10,40.5l9.75,41.82c0,.19.33.11.29-.08l-9.75-41.82c-3.14-13.46-5.54-27.41-10-40.5-.06-.18-.35-.1-.29.08Z" transform="translate(-134.35 15.33)"/>
    <path class="cls-3" d="M243.84,43.34a4,4,0,0,1-2.38.76.15.15,0,0,0,0,.3,4.28,4.28,0,0,0,2.53-.8c.16-.11,0-.37-.15-.26Z" transform="translate(-134.35 15.33)"/>
    <path class="cls-3" d="M240.94,44.23A569.2,569.2,0,0,1,259.6,145.15c0,.19.32.19.3,0a569.66,569.66,0,0,0-18.66-101,.15.15,0,0,0-.29.08Z" transform="translate(-134.35 15.33)"/>
    <path class="cls-3" d="M259.53,145.15a45.59,45.59,0,0,1,.33,16.94c0,.19.26.27.29.08a46.19,46.19,0,0,0-.33-17.1c0-.19-.33-.11-.29.08Z" transform="translate(-134.35 15.33)"/>
    <path class="cls-3" d="M267.77,158.34l.21,3.54c0,.19.31.19.3,0l-.21-3.54c0-.19-.31-.19-.3,0Z" transform="translate(-134.35 15.33)"/>
    <path class="cls-3" d="M248.45,168.51c6.28-8.31,31.62-8.23,28.9,6.54,0,.19.25.27.29.08,2.74-14.87-22.72-15.68-29.45-6.77-.12.15.14.3.26.15Z" transform="translate(-134.35 15.33)"/>
    <path class="cls-3" d="M247.92,168.54a32.88,32.88,0,0,0-5,14.2c-.62,5.31-1.88,10.27.64,15.18.09.17.35,0,.26-.15-2.45-4.78-1.22-9.9-.6-15a32.87,32.87,0,0,1,4.94-14c.1-.17-.16-.32-.26-.15Z" transform="translate(-134.35 15.33)"/>
    <path class="cls-3" d="M243.82,197.89c1.5,7.42,7.29,12.6,10.67,19.13.09.17.35,0,.26-.15-3.36-6.51-9.14-11.65-10.63-19.06,0-.19-.33-.11-.29.08Z" transform="translate(-134.35 15.33)"/>
    <path
    class="cls-3"
    d="M254.57,217.52c2.67,3.92,2.26,8.29,2.54,12.76.22,3.51,1.08,6.76,1,10.31-.22,8.39,1.45,15.47,4.11,23.45.06.18.35.1.29-.08-1.76-5.29-3.6-10.67-4.13-16.26-.33-3.44.39-6.84.12-10.25-.3-3.94-1-7.79-1.21-11.76a15.33,15.33,0,0,0-2.44-8.32c-.11-.16-.37,0-.26.15Z"
    transform="translate(-134.35 15.33)"/>
    <path class="cls-3" d="M262.83,264.45q-1.19-12.19-1.93-24.41c-.52-8.82-1.33-17.21,2.48-25.49.08-.17-.18-.33-.26-.15-3.31,7.2-3.15,14.14-2.73,21.88q.75,14.11,2.15,28.17c0,.19.32.19.3,0Z" transform="translate(-134.35 15.33)"/>
    <path class="cls-3" d="M263,215c2.91-4.25,6.91-7.44,10.09-11.45,2.87-3.6,4.36-7.74,5.76-12.07.06-.18-.23-.26-.29-.08-1.77,5.47-3.81,10-7.72,14.26-2.78,3-5.77,5.77-8.11,9.18-.11.16.15.31.26.15Z" transform="translate(-134.35 15.33)"/>
    <path class="cls-3" d="M277.63,175.58a5.8,5.8,0,0,1,1.86,6.42c-.06.18.23.26.29.08a6.09,6.09,0,0,0-1.93-6.71c-.15-.12-.36.09-.21.21Z" transform="translate(-134.35 15.33)"/>
    <path class="cls-3" d="M279.26,183c1,3,2.05,6.61-.69,9-.14.13.07.34.21.21,2.8-2.48,1.82-6.24.76-9.33-.06-.18-.35-.1-.29.08Z" transform="translate(-134.35 15.33)"/>
    <path class="cls-3" d="M252.06,184.24a134.41,134.41,0,0,1,14.51.4c.19,0,.19-.28,0-.3a134.41,134.41,0,0,0-14.51-.4.15.15,0,0,0,0,.3Z" transform="translate(-134.35 15.33)"/>
    <path class="cls-3" d="M247.41,194c2.46-1.65,5-.75,7.65-.46a31.87,31.87,0,0,0,7.08-.26c.19,0,.19-.32,0-.3a42.91,42.91,0,0,1-10-.2,6.76,6.76,0,0,0-4.87,1c-.16.11,0,.37.15.26Z" transform="translate(-134.35 15.33)"/>
    <path class="cls-3" d="M244.49,198.64a26.34,26.34,0,0,1,7.65.36c.19,0,.27-.25.08-.29a26.63,26.63,0,0,0-7.73-.37c-.19,0-.19.32,0,.3Z" transform="translate(-134.35 15.33)"/>
    <path class="cls-3" d="M252.23,212.28c1.45-1,3.49-.85,5.17-.85a43.12,43.12,0,0,1,5,.3c.19,0,.19-.28,0-.3a42.3,42.3,0,0,0-6.5-.26,6.83,6.83,0,0,0-3.79.86c-.16.11,0,.37.15.26Z" transform="translate(-134.35 15.33)"/>
    <path class="cls-3" d="M266.69,172.58l10,2.24c.19,0,.27-.25.08-.29l-10-2.24c-.19,0-.27.25-.08.29Z" transform="translate(-134.35 15.33)"/>
    <path class="cls-3" d="M279.31,182.42a34.29,34.29,0,0,0-10.12-1.84c-.19,0-.19.29,0,.3a34.07,34.07,0,0,1,10,1.83c.18.06.26-.23.08-.29Z" transform="translate(-134.35 15.33)"/>
    <path class="cls-3" d="M245.85,173.6a20.72,20.72,0,0,1,12,.08.15.15,0,0,0,.08-.29,21.06,21.06,0,0,0-12.12-.08.15.15,0,0,0,.08.29Z" transform="translate(-134.35 15.33)"/>
    <path class="cls-3" d="M278.42,191.26a14.21,14.21,0,0,0-4.86-.54l-6.2-.15a.15.15,0,0,0,0,.3l5.37.13c1.84,0,3.87-.12,5.6.55.18.07.26-.22.08-.29Z" transform="translate(-134.35 15.33)"/>
    <path class="cls-3" d="M275.06,199.36l-9.46-.06a.15.15,0,0,0,0,.3l9.46.06a.15.15,0,0,0,0-.3Z" transform="translate(-134.35 15.33)"/>
    <path class="cls-3" d="M272.3,204a9.08,9.08,0,0,0-4.24-.51l-6.85.11a.15.15,0,0,0,0,.3l5.24-.09c1.82,0,4-.36,5.7.44.17.08.33-.18.15-.26Z" transform="translate(-134.35 15.33)"/>
    <path class="cls-3" d="M352,189.16l3.9.93c.19,0,.27-.24.08-.29l-3.9-.93c-.19,0-.27.24-.08.29Z" transform="translate(-134.35 15.33)"/>
    <path class="cls-3" d="M356.11,189.87c-2.55,20.41-6.92,40.35-10.61,60.55-3.46,18.94-3.74,38-3.69,57.23a.15.15,0,0,0,.3,0c-.06-20.49.46-40.63,4.37-60.81,3.67-19,7.54-37.78,9.93-57,0-.19-.28-.19-.3,0Z" transform="translate(-134.35 15.33)"/>
    <path class="cls-3" d="M351.85,189c-1.9,15.43-4.55,30.45-7.74,45.64-2.85,13.59-1.84,27.76-6.44,41-.06.18.23.26.29.08,4.79-13.8,3.67-28.63,6.83-42.77,3.25-14.57,5.53-29.14,7.36-44,0-.19-.28-.19-.3,0Z" transform="translate(-134.35 15.33)"/>
    <path class="cls-3" d="M317.91,193.24c4.48,13.09,6.88,27,10,40.5l9.75,41.82c0,.19.33.11.29-.08l-9.75-41.82c-3.14-13.46-5.54-27.41-10-40.5-.06-.18-.35-.1-.29.08Z" transform="translate(-134.35 15.33)"/>
    <path class="cls-3" d="M317.68,192.44a4,4,0,0,1-2.38.76.15.15,0,0,0,0,.3,4.28,4.28,0,0,0,2.53-.8c.16-.11,0-.37-.15-.26Z" transform="translate(-134.35 15.33)"/>
    <path class="cls-3" d="M314.78,193.33a569.2,569.2,0,0,1,18.65,100.93c0,.19.32.19.3,0a569.66,569.66,0,0,0-18.66-101,.15.15,0,0,0-.29.08Z" transform="translate(-134.35 15.33)"/>
    <path class="cls-3" d="M333.37,294.25a45.59,45.59,0,0,1,.33,16.94c0,.19.26.27.29.08a46.19,46.19,0,0,0-.33-17.1c0-.19-.33-.11-.29.08Z" transform="translate(-134.35 15.33)"/>
    <path class="cls-3" d="M341.61,307.44l.21,3.54c0,.19.31.19.3,0l-.21-3.54c0-.19-.31-.19-.3,0Z" transform="translate(-134.35 15.33)"/>
    <path class="cls-3" d="M322.28,317.61c6.28-8.31,31.62-8.23,28.9,6.54,0,.19.25.27.29.08,2.74-14.87-22.72-15.68-29.45-6.77-.12.15.14.3.26.15Z" transform="translate(-134.35 15.33)"/>
    <path class="cls-3" d="M321.76,317.65a32.88,32.88,0,0,0-5,14.2c-.62,5.31-1.88,10.27.64,15.18.09.17.35,0,.26-.15-2.45-4.78-1.22-9.9-.6-15a32.87,32.87,0,0,1,4.94-14c.1-.17-.16-.32-.26-.15Z" transform="translate(-134.35 15.33)"/>
    <path class="cls-3" d="M317.65,347c1.5,7.42,7.29,12.6,10.67,19.13.09.17.35,0,.26-.15-3.36-6.51-9.14-11.65-10.63-19.06,0-.19-.33-.11-.29.08Z" transform="translate(-134.35 15.33)"/>
    <path
    class="cls-3"
    d="M328.41,366.62c2.67,3.92,2.26,8.29,2.54,12.76.22,3.51,1.08,6.76,1,10.31-.22,8.39,1.45,15.47,4.11,23.45.06.18.35.1.29-.08-1.76-5.29-3.6-10.67-4.13-16.26-.33-3.44.39-6.84.12-10.25-.3-3.94-1-7.79-1.21-11.76a15.33,15.33,0,0,0-2.44-8.32c-.11-.16-.37,0-.26.15Z"
    transform="translate(-134.35 15.33)"/>
    <path class="cls-3" d="M336.67,413.55q-1.19-12.19-1.93-24.41c-.52-8.82-1.33-17.21,2.48-25.49.08-.17-.18-.33-.26-.15-3.31,7.2-3.15,14.14-2.73,21.88q.75,14.11,2.15,28.17c0,.19.32.19.3,0Z" transform="translate(-134.35 15.33)"/>
    <path class="cls-3" d="M336.88,364.15c2.91-4.25,6.91-7.44,10.09-11.45,2.87-3.6,4.36-7.74,5.76-12.07.06-.18-.23-.26-.29-.08-1.77,5.47-3.81,10-7.72,14.26-2.78,3-5.77,5.77-8.11,9.18-.11.16.15.31.26.15Z" transform="translate(-134.35 15.33)"/>
    <path class="cls-3" d="M351.47,324.69a5.8,5.8,0,0,1,1.86,6.42c-.06.18.23.26.29.08a6.09,6.09,0,0,0-1.93-6.71c-.15-.12-.36.09-.21.21Z" transform="translate(-134.35 15.33)"/>
    <path class="cls-3" d="M353.1,332.07c1,3,2.05,6.61-.69,9-.14.13.07.34.21.21,2.8-2.48,1.82-6.24.76-9.33-.06-.18-.35-.1-.29.08Z" transform="translate(-134.35 15.33)"/>
    <path class="cls-3" d="M325.9,333.34a134.41,134.41,0,0,1,14.51.4c.19,0,.19-.28,0-.3a134.41,134.41,0,0,0-14.51-.4.15.15,0,0,0,0,.3Z" transform="translate(-134.35 15.33)"/>
    <path class="cls-3" d="M321.24,343.08c2.46-1.65,5-.75,7.65-.46a31.87,31.87,0,0,0,7.08-.26c.19,0,.19-.32,0-.3a42.91,42.91,0,0,1-10-.2,6.76,6.76,0,0,0-4.87,1c-.16.11,0,.37.15.26Z" transform="translate(-134.35 15.33)"/>
    <path class="cls-3" d="M318.33,347.75a26.34,26.34,0,0,1,7.65.36c.19,0,.27-.25.08-.29a26.63,26.63,0,0,0-7.73-.37c-.19,0-.19.32,0,.3Z" transform="translate(-134.35 15.33)"/>
    <path class="cls-3" d="M326.06,361.38c1.45-1,3.49-.85,5.17-.85a43.12,43.12,0,0,1,5,.3c.19,0,.19-.28,0-.3a42.3,42.3,0,0,0-6.5-.26,6.83,6.83,0,0,0-3.79.86c-.16.11,0,.37.15.26Z" transform="translate(-134.35 15.33)"/>
    <path class="cls-3" d="M340.53,321.69l10,2.24c.19,0,.27-.25.08-.29l-10-2.24c-.19,0-.27.25-.08.29Z" transform="translate(-134.35 15.33)"/>
    <path class="cls-3" d="M353.14,331.53A34.29,34.29,0,0,0,343,329.69c-.19,0-.19.29,0,.3a34.07,34.07,0,0,1,10,1.83c.18.06.26-.23.08-.29Z" transform="translate(-134.35 15.33)"/>
    <path class="cls-3" d="M319.69,322.7a20.72,20.72,0,0,1,12,.08.15.15,0,0,0,.08-.29,21.06,21.06,0,0,0-12.12-.08.15.15,0,0,0,.08.29Z" transform="translate(-134.35 15.33)"/>
    <path class="cls-3" d="M352.25,340.36a14.21,14.21,0,0,0-4.86-.54l-6.2-.15a.15.15,0,0,0,0,.3l5.37.13c1.84,0,3.87-.12,5.6.55.18.07.26-.22.08-.29Z" transform="translate(-134.35 15.33)"/>
    <path class="cls-3" d="M348.9,348.46l-9.46-.06a.15.15,0,0,0,0,.3l9.46.06a.15.15,0,0,0,0-.3Z" transform="translate(-134.35 15.33)"/>
    <path class="cls-3" d="M346.14,353.08a9.08,9.08,0,0,0-4.24-.51l-6.85.11a.15.15,0,0,0,0,.3l5.24-.09c1.82,0,4-.36,5.7.44.17.08.33-.18.15-.26Z" transform="translate(-134.35 15.33)"/>
  </g>
  <circle class="cls-4" cx="146.24" cy="293.34" r="133.59"/>
</svg>
